PlusJakartaSans-ExtraLight.ufo
<glyph name="exclam" format="2">
  <advance width="255"/>
  <unicode hex="0021"/>
  <outline>
    <contour>
      <point x="150" y="208" type="line"/>
      <point x="153" y="745" type="line"/>
      <point x="103" y="745" type="line"/>
      <point x="105" y="208" type="line"/>
    </contour>
    <contour>
      <point x="156" y="0" type="line"/>
      <point x="156" y="90" type="line"/>
      <point x="101" y="90" type="line"/>
      <point x="101" y="0" type="line"/>
    </contour>
  </outline>
</glyph>
<glyph name="quotedbl" format="2">
  <advance width="346"/>
  <unicode hex="0022"/>
  <outline>
    <contour>
      <point x="128" y="560" type="line"/>
      <point x="138" y="745" type="line"/>
      <point x="83" y="745" type="line"/>
      <point x="93" y="560" type="line"/>
    </contour>
    <contour>
      <point x="253" y="560" type="line"/>
      <point x="263" y="745" type="line"/>
      <point x="208" y="745" type="line"/>
      <point x="218" y="560" type="line"/>
    </contour>
  </outline>
</glyph>
<glyph name="numbersign" format="2">
  <advance width="742"/>
  <unicode hex="0023"/>
  <outline>
    <contour>
      <point x="147" y="0" type="line"/>
      <point x="208" y="213" type="line"/>
      <point x="442" y="213" type="line"/>
      <point x="381" y="0" type="line"/>
      <point x="433" y="0" type="line"/>
      <point x="494" y="213" type="line"/>
      <point x="627" y="213" type="line"/>
      <point x="627" y="258" type="line"/>
      <point x="507" y="258" type="line"/>
      <point x="574" y="487" type="line"/>
      <point x="706" y="487" type="line"/>
      <point x="706" y="533" type="line"/>
      <point x="586" y="533" type="line"/>
      <point x="648" y="745" type="line"/>
      <point x="596" y="745" type="line"/>
      <point x="534" y="533" type="line"/>
      <point x="300" y="533" type="line"/>
      <point x="361" y="745" type="line"/>
      <point x="309" y="745" type="line"/>
      <point x="248" y="533" type="line"/>
      <point x="115" y="533" type="line"/>
      <point x="115" y="488" type="line"/>
      <point x="235" y="488" type="line"/>
      <point x="169" y="258" type="line"/>
      <point x="36" y="258" type="line"/>
      <point x="36" y="213" type="line"/>
      <point x="156" y="213" type="line"/>
      <point x="95" y="0" type="line"/>
    </contour>
    <contour>
      <point x="287" y="488" type="line"/>
      <point x="522" y="488" type="line"/>
      <point x="455" y="258" type="line"/>
      <point x="221" y="258" type="line"/>
    </contour>
  </outline>
</glyph>
<glyph name="percent" format="2">
  <advance width="928"/>
  <unicode hex="0025"/>
  <outline>
    <contour>
      <point x="185" y="0" type="line"/>
      <point x="800" y="745" type="line"/>
      <point x="739" y="745" type="line"/>
      <point x="124" y="0" type="line"/>
    </contour>
    <contour>
      <point x="237" y="385" type="curve" smooth="yes"/>
      <point x="336" y="385"/>
      <point x="420" y="468"/>
      <point x="420" y="571" type="curve" smooth="yes"/>
      <point x="420" y="674"/>
      <point x="336" y="757"/>
      <point x="237" y="757" type="curve" smooth="yes"/>
      <point x="137" y="757"/>
      <point x="52" y="674"/>
      <point x="52" y="571" type="curve" smooth="yes"/>
      <point x="52" y="468"/>
      <point x="137" y="385"/>
    </contour>
    <contour>
      <point x="237" y="428" type="curve" smooth="yes"/>
      <point x="157" y="428"/>
      <point x="97" y="499"/>
      <point x="97" y="571" type="curve" smooth="yes"/>
      <point x="97" y="643"/>
      <point x="157" y="714"/>
      <point x="237" y="714" type="curve" smooth="yes"/>
      <point x="317" y="714"/>
      <point x="375" y="642"/>
      <point x="375" y="571" type="curve" smooth="yes"/>
      <point x="375" y="500"/>
      <point x="317" y="428"/>
    </contour>
    <contour>
      <point x="693" y="-12" type="curve" smooth="yes"/>
      <point x="792" y="-12"/>
      <point x="876" y="71"/>
      <point x="876" y="174" type="curve" smooth="yes"/>
      <point x="876" y="277"/>
      <point x="792" y="360"/>
      <point x="693" y="360" type="curve" smooth="yes"/>
      <point x="593" y="360"/>
      <point x="508" y="277"/>
      <point x="508" y="174" type="curve" smooth="yes"/>
      <point x="508" y="71"/>
      <point x="593" y="-12"/>
    </contour>
    <contour>
      <point x="693" y="31" type="curve" smooth="yes"/>
      <point x="613" y="31"/>
      <point x="553" y="102"/>
      <point x="553" y="174" type="curve" smooth="yes"/>
      <point x="553" y="246"/>
      <point x="613" y="317"/>
      <point x="693" y="317" type="curve" smooth="yes"/>
      <point x="773" y="317"/>
      <point x="831" y="245"/>
      <point x="831" y="174" type="curve" smooth="yes"/>
      <point x="831" y="103"/>
      <point x="773" y="31"/>
    </contour>
  </outline>
</glyph>
<glyph name="ampersand" format="2">
  <advance width="722"/>
  <unicode hex="0026"/>
  <outline>
    <contour>
      <point x="250" y="-12" type="curve" smooth="yes"/>
      <point x="397" y="-12"/>
      <point x="465" y="107"/>
      <point x="509" y="173" type="curve" smooth="yes"/>
      <point x="642" y="373" type="line"/>
      <point x="582" y="373" type="line"/>
      <point x="467" y="201" type="line" smooth="yes"/>
      <point x="423" y="135"/>
      <point x="370" y="36"/>
      <point x="250" y="36" type="curve" smooth="yes"/>
      <point x="166" y="36"/>
      <point x="106" y="84"/>
      <point x="106" y="162" type="curve" smooth="yes"/>
      <point x="106" y="244"/>
      <point x="171" y="294"/>
      <point x="262" y="362" type="curve" smooth="yes"/>
      <point x="289" y="383" type="line" smooth="yes"/>
      <point x="361" y="438"/>
      <point x="438" y="497"/>
      <point x="438" y="594" type="curve" smooth="yes"/>
      <point x="438" y="690"/>
      <point x="364" y="757"/>
      <point x="276" y="757" type="curve" smooth="yes"/>
      <point x="184" y="757"/>
      <point x="114" y="686"/>
      <point x="114" y="593" type="curve" smooth="yes"/>
      <point x="114" y="500"/>
      <point x="184" y="430"/>
      <point x="228" y="386" type="curve" smooth="yes"/>
      <point x="615" y="0" type="line"/>
      <point x="685" y="0" type="line"/>
      <point x="264" y="422" type="line" smooth="yes"/>
      <point x="221" y="465"/>
      <point x="164" y="522"/>
      <point x="164" y="593" type="curve" smooth="yes"/>
      <point x="164" y="658"/>
      <point x="211" y="709"/>
      <point x="276" y="709" type="curve" smooth="yes"/>
      <point x="337" y="709"/>
      <point x="388" y="662"/>
      <point x="388" y="594" type="curve" smooth="yes"/>
      <point x="388" y="524"/>
      <point x="333" y="479"/>
      <point x="254" y="420" type="curve" smooth="yes"/>
      <point x="226" y="398" type="line" smooth="yes"/>
      <point x="140" y="333"/>
      <point x="56" y="270"/>
      <point x="56" y="162" type="curve" smooth="yes"/>
      <point x="56" y="56"/>
      <point x="139" y="-12"/>
    </contour>
  </outline>
  <guideline angle="208.811" x="264" y="337"/>
</glyph>
<glyph name="quotesingle" format="2">
  <advance width="221"/>
  <unicode hex="0027"/>
  <outline>
    <contour>
      <point x="128" y="560" type="line"/>
      <point x="138" y="745" type="line"/>
      <point x="83" y="745" type="line"/>
      <point x="93" y="560" type="line"/>
    </contour>
  </outline>
</glyph>
<glyph name="parenleft" format="2">
  <advance width="269"/>
  <unicode hex="0028"/>
  <outline>
    <contour>
      <point x="249" y="-130" type="line"/>
      <point x="153" y="1"/>
      <point x="100" y="158"/>
      <point x="100" y="308" type="curve" smooth="yes"/>
      <point x="100" y="462"/>
      <point x="153" y="618"/>
      <point x="249" y="745" type="curve"/>
      <point x="198" y="745" type="line"/>
      <point x="102" y="632"/>
      <point x="50" y="479"/>
      <point x="50" y="308" type="curve" smooth="yes"/>
      <point x="50" y="146"/>
      <point x="101" y="-14"/>
      <point x="198" y="-130" type="curve"/>
    </contour>
  </outline>
</glyph>
<glyph name="parenright" format="2">
  <advance width="269"/>
  <unicode hex="0029"/>
  <outline>
    <contour>
      <point x="71" y="-130" type="line"/>
      <point x="168" y="-14"/>
      <point x="219" y="146"/>
      <point x="219" y="308" type="curve" smooth="yes"/>
      <point x="219" y="479"/>
      <point x="167" y="632"/>
      <point x="71" y="745" type="curve"/>
      <point x="20" y="745" type="line"/>
      <point x="116" y="618"/>
      <point x="169" y="462"/>
      <point x="169" y="308" type="curve" smooth="yes"/>
      <point x="169" y="158"/>
      <point x="116" y="1"/>
      <point x="20" y="-130" type="curve"/>
    </contour>
  </outline>
</glyph>
<glyph name="asterisk" format="2">
  <advance width="459"/>
  <unicode hex="002A"/>
  <outline>
    <contour>
      <point x="229" y="523" type="line"/>
      <point x="326" y="398" type="line"/>
      <point x="366" y="427" type="line"/>
      <point x="272" y="552" type="line"/>
      <point x="407" y="598" type="line"/>
      <point x="391" y="645" type="line"/>
      <point x="254" y="600" type="line"/>
      <point x="254" y="745" type="line"/>
      <point x="204" y="745" type="line"/>
      <point x="204" y="600" type="line"/>
      <point x="66" y="645" type="line"/>
      <point x="52" y="598" type="line"/>
      <point x="188" y="552" type="line"/>
      <point x="93" y="427" type="line"/>
      <point x="133" y="398" type="line"/>
    </contour>
  </outline>
</glyph>
<glyph name="plus" format="2">
  <advance width="596"/>
  <unicode hex="002B"/>
  <outline>
    <contour>
      <point x="321" y="0" type="line"/>
      <point x="321" y="228" type="line"/>
      <point x="548" y="228" type="line"/>
      <point x="548" y="273" type="line"/>
      <point x="321" y="273" type="line"/>
      <point x="321" y="500" type="line"/>
      <point x="276" y="500" type="line"/>
      <point x="276" y="273" type="line"/>
      <point x="48" y="273" type="line"/>
      <point x="48" y="228" type="line"/>
      <point x="276" y="228" type="line"/>
      <point x="276" y="0" type="line"/>
    </contour>
  </outline>
</glyph>
<glyph name="comma" format="2">
  <advance width="248"/>
  <unicode hex="002C"/>
  <outline>
    <contour>
      <point x="81" y="-123" type="line"/>
      <point x="128" y="-109"/>
      <point x="156" y="-61"/>
      <point x="156" y="20" type="curve" smooth="yes"/>
      <point x="156" y="90" type="line"/>
      <point x="101" y="90" type="line"/>
      <point x="101" y="0" type="line"/>
      <point x="124" y="0" type="line"/>
      <point x="124" y="-52"/>
      <point x="109" y="-80"/>
      <point x="81" y="-89" type="curve"/>
    </contour>
  </outline>
</glyph>
<glyph name="hyphen" format="2">
  <advance width="468"/>
  <unicode hex="002D"/>
  <outline>
    <contour>
      <point x="394" y="241" type="line"/>
      <point x="394" y="286" type="line"/>
      <point x="74" y="286" type="line"/>
      <point x="74" y="241" type="line"/>
    </contour>
  </outline>
</glyph>
<glyph name="period" format="2">
  <advance width="261"/>
  <unicode hex="002E"/>
  <outline>
    <contour>
      <point x="158" y="0" type="line"/>
      <point x="158" y="90" type="line"/>
      <point x="103" y="90" type="line"/>
      <point x="103" y="0" type="line"/>
    </contour>
  </outline>
</glyph>
<glyph name="slash" format="2">
  <advance width="397"/>
  <unicode hex="002F"/>
  <outline>
    <contour>
      <point x="57" y="-120" type="line"/>
      <point x="395" y="705" type="line"/>
      <point x="340" y="705" type="line"/>
      <point x="2" y="-120" type="line"/>
    </contour>
  </outline>
</glyph>
<glyph name="zero" format="2">
  <advance width="714"/>
  <unicode hex="0030"/>
  <outline>
    <contour>
      <point x="358" y="-12" type="curve" smooth="yes"/>
      <point x="528" y="-12"/>
      <point x="642" y="143"/>
      <point x="642" y="373" type="curve" smooth="yes"/>
      <point x="642" y="603"/>
      <point x="527" y="757"/>
      <point x="357" y="757" type="curve" smooth="yes"/>
      <point x="187" y="757"/>
      <point x="72" y="602"/>
      <point x="72" y="373" type="curve" smooth="yes"/>
      <point x="72" y="144"/>
      <point x="188" y="-12"/>
    </contour>
    <contour>
      <point x="358" y="36" type="curve" smooth="yes"/>
      <point x="210" y="36"/>
      <point x="122" y="175"/>
      <point x="122" y="373" type="curve" smooth="yes"/>
      <point x="122" y="571"/>
      <point x="208" y="709"/>
      <point x="357" y="709" type="curve" smooth="yes"/>
      <point x="506" y="709"/>
      <point x="592" y="572"/>
      <point x="592" y="373" type="curve" smooth="yes"/>
      <point x="592" y="174"/>
      <point x="506" y="36"/>
    </contour>
  </outline>
</glyph>
<glyph name="one" format="2">
  <advance width="338"/>
  <unicode hex="0031"/>
  <outline>
    <contour>
      <point x="228" y="0" type="line"/>
      <point x="228" y="745" type="line"/>
      <point x="38" y="745" type="line"/>
      <point x="38" y="700" type="line"/>
      <point x="178" y="700" type="line"/>
      <point x="178" y="0" type="line"/>
    </contour>
  </outline>
</glyph>
<glyph name="two" format="2">
  <advance width="578"/>
  <unicode hex="0032"/>
  <outline>
    <contour>
      <point x="520" y="0" type="line"/>
      <point x="520" y="45" type="line"/>
      <point x="130" y="45" type="line"/>
      <point x="334" y="267" type="line" smooth="yes"/>
      <point x="441" y="383"/>
      <point x="507" y="461"/>
      <point x="507" y="558" type="curve" smooth="yes"/>
      <point x="507" y="680"/>
      <point x="411" y="757"/>
      <point x="289" y="757" type="curve" smooth="yes"/>
      <point x="172" y="757"/>
      <point x="78" y="686"/>
      <point x="50" y="556" type="curve"/>
      <point x="95" y="546" type="line"/>
      <point x="119" y="651"/>
      <point x="187" y="712"/>
      <point x="289" y="712" type="curve" smooth="yes"/>
      <point x="396" y="712"/>
      <point x="457" y="654"/>
      <point x="457" y="558" type="curve" smooth="yes"/>
      <point x="457" y="456"/>
      <point x="391" y="397"/>
      <point x="266" y="260" type="curve" smooth="yes"/>
      <point x="56" y="30" type="line"/>
      <point x="56" y="0" type="line"/>
    </contour>
  </outline>
</glyph>
<glyph name="three" format="2">
  <advance width="599"/>
  <unicode hex="0033"/>
  <outline>
    <contour>
      <point x="293" y="-12" type="curve" smooth="yes"/>
      <point x="440" y="-12"/>
      <point x="538" y="93"/>
      <point x="538" y="223" type="curve" smooth="yes"/>
      <point x="538" y="364"/>
      <point x="424" y="450"/>
      <point x="304" y="445" type="curve"/>
      <point x="303" y="431" type="line"/>
      <point x="515" y="715" type="line"/>
      <point x="515" y="745" type="line"/>
      <point x="75" y="745" type="line"/>
      <point x="75" y="700" type="line"/>
      <point x="451" y="700" type="line"/>
      <point x="243" y="420" type="line"/>
      <point x="249" y="400" type="line"/>
      <point x="264" y="403"/>
      <point x="282" y="404"/>
      <point x="294" y="404" type="curve" smooth="yes"/>
      <point x="402" y="404"/>
      <point x="490" y="345"/>
      <point x="490" y="224" type="curve" smooth="yes"/>
      <point x="490" y="111"/>
      <point x="411" y="33"/>
      <point x="292" y="33" type="curve" smooth="yes"/>
      <point x="183" y="33"/>
      <point x="115" y="98"/>
      <point x="94" y="201" type="curve"/>
      <point x="48" y="189" type="line"/>
      <point x="73" y="61"/>
      <point x="171" y="-12"/>
    </contour>
  </outline>
</glyph>
<glyph name="four" format="2">
  <advance width="606"/>
  <unicode hex="0034"/>
  <outline>
    <contour>
      <point x="482" y="0" type="line"/>
      <point x="482" y="176" type="line"/>
      <point x="563" y="176" type="line"/>
      <point x="563" y="221" type="line"/>
      <point x="482" y="221" type="line"/>
      <point x="482" y="745" type="line"/>
      <point x="437" y="745" type="line"/>
      <point x="43" y="216" type="line"/>
      <point x="43" y="176" type="line"/>
      <point x="432" y="176" type="line"/>
      <point x="432" y="0" type="line"/>
    </contour>
    <contour>
      <point x="455" y="691" type="line"/>
      <point x="432" y="696" type="line"/>
      <point x="432" y="221" type="line"/>
      <point x="82" y="221" type="line"/>
      <point x="89" y="203" type="line"/>
    </contour>
  </outline>
</glyph>
<glyph name="five" format="2">
  <advance width="608"/>
  <unicode hex="0035"/>
  <outline>
    <contour>
      <point x="304" y="-12" type="curve" smooth="yes"/>
      <point x="446" y="-12"/>
      <point x="546" y="90"/>
      <point x="546" y="232" type="curve" smooth="yes"/>
      <point x="546" y="368"/>
      <point x="442" y="471"/>
      <point x="307" y="471" type="curve" smooth="yes"/>
      <point x="234" y="471"/>
      <point x="164" y="442"/>
      <point x="131" y="394" type="curve"/>
      <point x="142" y="388" type="line"/>
      <point x="185" y="709" type="line"/>
      <point x="161" y="700" type="line"/>
      <point x="515" y="700" type="line"/>
      <point x="515" y="745" type="line"/>
      <point x="145" y="745" type="line"/>
      <point x="91" y="346" type="line"/>
      <point x="134" y="336" type="line"/>
      <point x="162" y="382"/>
      <point x="228" y="424"/>
      <point x="305" y="424" type="curve" smooth="yes"/>
      <point x="411" y="424"/>
      <point x="496" y="342"/>
      <point x="496" y="232" type="curve" smooth="yes"/>
      <point x="496" y="115"/>
      <point x="420" y="33"/>
      <point x="304" y="33" type="curve" smooth="yes"/>
      <point x="199" y="33"/>
      <point x="124" y="94"/>
      <point x="102" y="201" type="curve"/>
      <point x="56" y="189" type="line"/>
      <point x="80" y="65"/>
      <point x="177" y="-12"/>
    </contour>
  </outline>
</glyph>
<glyph name="six" format="2">
  <advance width="587"/>
  <unicode hex="0036"/>
  <outline>
    <contour>
      <point x="294" y="-12" type="curve" smooth="yes"/>
      <point x="426" y="-12"/>
      <point x="530" y="86"/>
      <point x="530" y="225" type="curve" smooth="yes"/>
      <point x="530" y="365"/>
      <point x="427" y="459"/>
      <point x="300" y="459" type="curve" smooth="yes"/>
      <point x="241" y="459"/>
      <point x="165" y="439"/>
      <point x="120" y="366" type="curve"/>
      <point x="137" y="366" type="line"/>
      <point x="419" y="745" type="line"/>
      <point x="360" y="745" type="line"/>
      <point x="164" y="486" type="line" smooth="yes"/>
      <point x="98" y="399"/>
      <point x="60" y="328"/>
      <point x="60" y="233" type="curve" smooth="yes"/>
      <point x="60" y="91"/>
      <point x="160" y="-12"/>
    </contour>
    <contour>
      <point x="295" y="33" type="curve" smooth="yes"/>
      <point x="192" y="33"/>
      <point x="111" y="111"/>
      <point x="111" y="222" type="curve" smooth="yes"/>
      <point x="111" y="334"/>
      <point x="190" y="414"/>
      <point x="295" y="414" type="curve" smooth="yes"/>
      <point x="401" y="414"/>
      <point x="479" y="334"/>
      <point x="479" y="222" type="curve" smooth="yes"/>
      <point x="479" y="112"/>
      <point x="401" y="33"/>
    </contour>
  </outline>
</glyph>
<glyph name="seven" format="2">
  <advance width="523"/>
  <unicode hex="0037"/>
  <outline>
    <contour>
      <point x="129" y="0" type="line"/>
      <point x="481" y="705" type="line"/>
      <point x="481" y="745" type="line"/>
      <point x="41" y="745" type="line"/>
      <point x="41" y="700" type="line"/>
      <point x="423" y="700" type="line"/>
      <point x="74" y="0" type="line"/>
    </contour>
  </outline>
</glyph>
<glyph name="eight" format="2">
  <advance width="606"/>
  <unicode hex="0038"/>
  <outline>
    <contour>
      <point x="303" y="-12" type="curve" smooth="yes"/>
      <point x="440" y="-12"/>
      <point x="543" y="84"/>
      <point x="543" y="214" type="curve" smooth="yes"/>
      <point x="543" y="313"/>
      <point x="482" y="396"/>
      <point x="390" y="424" type="curve"/>
      <point x="388" y="409" type="line"/>
      <point x="461" y="444"/>
      <point x="498" y="499"/>
      <point x="498" y="571" type="curve" smooth="yes"/>
      <point x="498" y="678"/>
      <point x="415" y="757"/>
      <point x="303" y="757" type="curve" smooth="yes"/>
      <point x="192" y="757"/>
      <point x="107" y="677"/>
      <point x="107" y="571" type="curve" smooth="yes"/>
      <point x="107" y="499"/>
      <point x="148" y="440"/>
      <point x="220" y="409" type="curve"/>
      <point x="216" y="424" type="line"/>
      <point x="124" y="395"/>
      <point x="63" y="312"/>
      <point x="63" y="214" type="curve" smooth="yes"/>
      <point x="63" y="84"/>
      <point x="166" y="-12"/>
    </contour>
    <contour>
      <point x="303" y="33" type="curve" smooth="yes"/>
      <point x="190" y="33"/>
      <point x="113" y="105"/>
      <point x="113" y="212" type="curve" smooth="yes"/>
      <point x="113" y="319"/>
      <point x="190" y="392"/>
      <point x="303" y="392" type="curve" smooth="yes"/>
      <point x="416" y="392"/>
      <point x="493" y="319"/>
      <point x="493" y="212" type="curve" smooth="yes"/>
      <point x="493" y="105"/>
      <point x="416" y="33"/>
    </contour>
    <contour>
      <point x="303" y="438" type="curve" smooth="yes"/>
      <point x="219" y="438"/>
      <point x="157" y="496"/>
      <point x="157" y="575" type="curve" smooth="yes"/>
      <point x="157" y="654"/>
      <point x="220" y="712"/>
      <point x="303" y="712" type="curve" smooth="yes"/>
      <point x="386" y="712"/>
      <point x="448" y="654"/>
      <point x="448" y="575" type="curve" smooth="yes"/>
      <point x="448" y="496"/>
      <point x="386" y="438"/>
    </contour>
  </outline>
</glyph>
<glyph name="nine" format="2">
  <advance width="587"/>
  <unicode hex="0039"/>
  <outline>
    <contour>
      <point x="227" y="0" type="line"/>
      <point x="423" y="259" type="line" smooth="yes"/>
      <point x="489" y="346"/>
      <point x="527" y="417"/>
      <point x="527" y="512" type="curve" smooth="yes"/>
      <point x="527" y="654"/>
      <point x="427" y="757"/>
      <point x="293" y="757" type="curve" smooth="yes"/>
      <point x="161" y="757"/>
      <point x="57" y="659"/>
      <point x="57" y="520" type="curve" smooth="yes"/>
      <point x="57" y="380"/>
      <point x="160" y="286"/>
      <point x="287" y="286" type="curve" smooth="yes"/>
      <point x="346" y="286"/>
      <point x="422" y="306"/>
      <point x="467" y="379" type="curve"/>
      <point x="450" y="379" type="line"/>
      <point x="168" y="0" type="line"/>
    </contour>
    <contour>
      <point x="292" y="331" type="curve" smooth="yes"/>
      <point x="186" y="331"/>
      <point x="108" y="411"/>
      <point x="108" y="523" type="curve" smooth="yes"/>
      <point x="108" y="633"/>
      <point x="186" y="712"/>
      <point x="292" y="712" type="curve" smooth="yes"/>
      <point x="395" y="712"/>
      <point x="476" y="634"/>
      <point x="476" y="523" type="curve" smooth="yes"/>
      <point x="476" y="411"/>
      <point x="397" y="331"/>
    </contour>
  </outline>
</glyph>
<glyph name="colon" format="2">
  <advance width="261"/>
  <unicode hex="003A"/>
  <outline>
    <contour>
      <point x="158" y="0" type="line"/>
      <point x="158" y="90" type="line"/>
      <point x="103" y="90" type="line"/>
      <point x="103" y="0" type="line"/>
    </contour>
    <contour>
      <point x="158" y="436" type="line"/>
      <point x="158" y="526" type="line"/>
      <point x="103" y="526" type="line"/>
      <point x="103" y="436" type="line"/>
    </contour>
  </outline>
</glyph>
<glyph name="semicolon" format="2">
  <advance width="281"/>
  <unicode hex="003B"/>
  <outline>
    <contour>
      <point x="103" y="-123" type="line"/>
      <point x="150" y="-109"/>
      <point x="178" y="-61"/>
      <point x="178" y="20" type="curve" smooth="yes"/>
      <point x="178" y="90" type="line"/>
      <point x="123" y="90" type="line"/>
      <point x="123" y="0" type="line"/>
      <point x="151" y="0" type="line"/>
      <point x="149" y="-53"/>
      <point x="131" y="-85"/>
      <point x="103" y="-94" type="curve"/>
    </contour>
    <contour>
      <point x="178" y="436" type="line"/>
      <point x="178" y="526" type="line"/>
      <point x="123" y="526" type="line"/>
      <point x="123" y="436" type="line"/>
    </contour>
  </outline>
</glyph>
<glyph name="less" format="2">
  <advance width="596"/>
  <unicode hex="003C"/>
  <outline>
    <contour>
      <point x="533" y="100" type="line"/>
      <point x="192" y="274" type="line"/>
      <point x="192" y="252" type="line"/>
      <point x="533" y="426" type="line"/>
      <point x="533" y="476" type="line"/>
      <point x="148" y="281" type="line"/>
      <point x="148" y="245" type="line"/>
      <point x="533" y="50" type="line"/>
    </contour>
  </outline>
</glyph>
<glyph name="equal" format="2">
  <advance width="596"/>
  <unicode hex="003D"/>
  <outline>
    <contour>
      <point x="523" y="346" type="line"/>
      <point x="523" y="391" type="line"/>
      <point x="73" y="391" type="line"/>
      <point x="73" y="346" type="line"/>
    </contour>
    <contour>
      <point x="523" y="111" type="line"/>
      <point x="523" y="156" type="line"/>
      <point x="73" y="156" type="line"/>
      <point x="73" y="111" type="line"/>
    </contour>
  </outline>
</glyph>
<glyph name="greater" format="2">
  <advance width="596"/>
  <unicode hex="003E"/>
  <outline>
    <contour>
      <point x="448" y="245" type="line"/>
      <point x="448" y="281" type="line"/>
      <point x="63" y="476" type="line"/>
      <point x="63" y="426" type="line"/>
      <point x="404" y="252" type="line"/>
      <point x="404" y="274" type="line"/>
      <point x="63" y="100" type="line"/>
      <point x="63" y="50" type="line"/>
    </contour>
  </outline>
</glyph>
<glyph name="question" format="2">
  <advance width="474"/>
  <unicode hex="003F"/>
  <outline>
    <contour>
      <point x="205" y="208" type="line"/>
      <point x="205" y="212" type="line" smooth="yes"/>
      <point x="205" y="278"/>
      <point x="248" y="326"/>
      <point x="295" y="374" type="curve" smooth="yes"/>
      <point x="357" y="436"/>
      <point x="430" y="494"/>
      <point x="430" y="590" type="curve" smooth="yes"/>
      <point x="430" y="681"/>
      <point x="349" y="757"/>
      <point x="244" y="757" type="curve" smooth="yes"/>
      <point x="138" y="757"/>
      <point x="54" y="688"/>
      <point x="35" y="576" type="curve"/>
      <point x="79" y="567" type="line"/>
      <point x="99" y="659"/>
      <point x="160" y="713"/>
      <point x="244" y="713" type="curve" smooth="yes"/>
      <point x="330" y="713"/>
      <point x="380" y="653"/>
      <point x="380" y="592" type="curve" smooth="yes"/>
      <point x="380" y="517"/>
      <point x="329" y="465"/>
      <point x="274" y="413" type="curve" smooth="yes"/>
      <point x="215" y="359"/>
      <point x="160" y="304"/>
      <point x="160" y="212" type="curve" smooth="yes"/>
      <point x="160" y="208" type="line"/>
    </contour>
    <contour>
      <point x="211" y="0" type="line"/>
      <point x="211" y="90" type="line"/>
      <point x="156" y="90" type="line"/>
      <point x="156" y="0" type="line"/>
    </contour>
  </outline>
</glyph>
<glyph name="at" format="2">
  <advance width="926"/>
  <unicode hex="0040"/>
  <outline>
    <contour>
      <point x="483" y="-205" type="curve" smooth="yes"/>
      <point x="554" y="-205"/>
      <point x="622" y="-188"/>
      <point x="675" y="-158" type="curve"/>
      <point x="654" y="-117" type="line"/>
      <point x="607" y="-146"/>
      <point x="549" y="-160"/>
      <point x="488" y="-160" type="curve" smooth="yes"/>
      <point x="273" y="-160"/>
      <point x="125" y="5"/>
      <point x="125" y="210" type="curve" smooth="yes"/>
      <point x="125" y="404"/>
      <point x="271" y="567"/>
      <point x="483" y="567" type="curve" smooth="yes"/>
      <point x="691" y="567"/>
      <point x="839" y="411"/>
      <point x="839" y="210" type="curve" smooth="yes"/>
      <point x="839" y="103"/>
      <point x="797" y="45"/>
      <point x="741" y="45" type="curve" smooth="yes"/>
      <point x="689" y="45"/>
      <point x="662" y="79"/>
      <point x="662" y="129" type="curve" smooth="yes"/>
      <point x="662" y="412" type="line"/>
      <point x="614" y="412" type="line"/>
      <point x="614" y="311" type="line"/>
      <point x="629" y="324" type="line"/>
      <point x="602" y="391"/>
      <point x="536" y="422"/>
      <point x="471" y="422" type="curve" smooth="yes"/>
      <point x="358" y="422"/>
      <point x="270" y="329"/>
      <point x="270" y="211" type="curve" smooth="yes"/>
      <point x="270" y="90"/>
      <point x="357" y="0"/>
      <point x="471" y="0" type="curve" smooth="yes"/>
      <point x="540" y="0"/>
      <point x="599" y="32"/>
      <point x="629" y="107" type="curve"/>
      <point x="614" y="105" type="line"/>
      <point x="622" y="44"/>
      <point x="674" y="0"/>
      <point x="739" y="0" type="curve" smooth="yes"/>
      <point x="820" y="0"/>
      <point x="887" y="77"/>
      <point x="887" y="209" type="curve" smooth="yes"/>
      <point x="887" y="419"/>
      <point x="728" y="612"/>
      <point x="483" y="612" type="curve" smooth="yes"/>
      <point x="256" y="612"/>
      <point x="77" y="434"/>
      <point x="77" y="205" type="curve" smooth="yes"/>
      <point x="77" y="-24"/>
      <point x="254" y="-205"/>
    </contour>
    <contour>
      <point x="469" y="45" type="curve" smooth="yes"/>
      <point x="383" y="45"/>
      <point x="318" y="114"/>
      <point x="318" y="211" type="curve" smooth="yes"/>
      <point x="318" y="311"/>
      <point x="386" y="377"/>
      <point x="470" y="377" type="curve" smooth="yes"/>
      <point x="555" y="377"/>
      <point x="614" y="309"/>
      <point x="614" y="211" type="curve" smooth="yes"/>
      <point x="614" y="114"/>
      <point x="555" y="45"/>
    </contour>
  </outline>
</glyph>
<glyph name="A" format="2">
  <advance width="644"/>
  <unicode hex="0041"/>
  <anchor x="322" y="0" name="bottom"/>
  <anchor x="595" y="0" name="ogonek"/>
  <anchor x="322" y="745" name="top"/>
  <outline>
    <contour>
      <point x="77" y="0" type="line"/>
      <point x="149" y="197" type="line"/>
      <point x="495" y="197" type="line"/>
      <point x="567" y="0" type="line"/>
      <point x="622" y="0" type="line"/>
      <point x="346" y="745" type="line"/>
      <point x="298" y="745" type="line"/>
      <point x="22" y="0" type="line"/>
    </contour>
    <contour>
      <point x="334" y="704" type="line"/>
      <point x="310" y="704" type="line"/>
      <point x="479" y="242" type="line"/>
      <point x="165" y="242" type="line"/>
    </contour>
  </outline>
</glyph>
<glyph name="C" format="2">
  <advance width="788"/>
  <unicode hex="0043"/>
  <anchor x="430" y="0" name="bottom"/>
  <anchor x="430" y="745" name="top"/>
  <outline>
    <contour>
      <point x="430" y="-12" type="curve" smooth="yes"/>
      <point x="577" y="-12"/>
      <point x="686" y="83"/>
      <point x="722" y="169" type="curve"/>
      <point x="675" y="190" type="line"/>
      <point x="631" y="97"/>
      <point x="543" y="36"/>
      <point x="430" y="36" type="curve" smooth="yes"/>
      <point x="252" y="36"/>
      <point x="127" y="173"/>
      <point x="127" y="373" type="curve" smooth="yes"/>
      <point x="127" y="572"/>
      <point x="252" y="709"/>
      <point x="430" y="709" type="curve" smooth="yes"/>
      <point x="543" y="709"/>
      <point x="631" y="648"/>
      <point x="675" y="555" type="curve"/>
      <point x="722" y="576" type="line"/>
      <point x="686" y="662"/>
      <point x="577" y="757"/>
      <point x="430" y="757" type="curve" smooth="yes"/>
      <point x="228" y="757"/>
      <point x="77" y="595"/>
      <point x="77" y="373" type="curve" smooth="yes"/>
      <point x="77" y="150"/>
      <point x="228" y="-12"/>
    </contour>
  </outline>
</glyph>
<glyph name="D" format="2">
  <advance width="744"/>
  <unicode hex="0044"/>
  <anchor x="383" y="0" name="bottom"/>
  <anchor x="174" y="373" name="center"/>
  <anchor x="383" y="745" name="top"/>
  <outline>
    <contour>
      <point x="337" y="0" type="line" smooth="yes"/>
      <point x="552" y="0"/>
      <point x="689" y="146"/>
      <point x="689" y="373" type="curve" smooth="yes"/>
      <point x="689" y="601"/>
      <point x="552" y="745"/>
      <point x="337" y="745" type="curve" smooth="yes"/>
      <point x="99" y="745" type="line"/>
      <point x="99" y="0" type="line"/>
    </contour>
    <contour>
      <point x="149" y="700" type="line"/>
      <point x="335" y="700" type="line" smooth="yes"/>
      <point x="517" y="700"/>
      <point x="639" y="569"/>
      <point x="639" y="373" type="curve" smooth="yes"/>
      <point x="639" y="177"/>
      <point x="517" y="45"/>
      <point x="335" y="45" type="curve" smooth="yes"/>
      <point x="149" y="45" type="line"/>
    </contour>
  </outline>
</glyph>
<glyph name="E" format="2">
  <advance width="614"/>
  <unicode hex="0045"/>
  <anchor x="329" y="0" name="bottom"/>
  <anchor x="459" y="0" name="ogonek"/>
  <anchor x="329" y="745" name="top"/>
  <outline>
    <contour>
      <point x="559" y="0" type="line"/>
      <point x="559" y="45" type="line"/>
      <point x="149" y="45" type="line"/>
      <point x="149" y="351" type="line"/>
      <point x="539" y="351" type="line"/>
      <point x="539" y="396" type="line"/>
      <point x="149" y="396" type="line"/>
      <point x="149" y="700" type="line"/>
      <point x="559" y="700" type="line"/>
      <point x="559" y="745" type="line"/>
      <point x="99" y="745" type="line"/>
      <point x="99" y="0" type="line"/>
    </contour>
  </outline>
</glyph>
<glyph name="F" format="2">
  <advance width="593"/>
  <unicode hex="0046"/>
  <anchor x="297" y="0" name="bottom"/>
  <anchor x="297" y="745" name="top"/>
  <outline>
    <contour>
      <point x="149" y="0" type="line"/>
      <point x="149" y="351" type="line"/>
      <point x="509" y="351" type="line"/>
      <point x="509" y="396" type="line"/>
      <point x="149" y="396" type="line"/>
      <point x="149" y="700" type="line"/>
      <point x="549" y="700" type="line"/>
      <point x="549" y="745" type="line"/>
      <point x="99" y="745" type="line"/>
      <point x="99" y="0" type="line"/>
    </contour>
  </outline>
</glyph>
<glyph name="H" format="2">
  <advance width="738"/>
  <unicode hex="0048"/>
  <anchor x="369" y="0" name="bottom"/>
  <anchor x="369" y="595" name="center"/>
  <anchor x="369" y="745" name="top"/>
  <outline>
    <contour>
      <point x="149" y="0" type="line"/>
      <point x="149" y="357" type="line"/>
      <point x="589" y="357" type="line"/>
      <point x="589" y="0" type="line"/>
      <point x="639" y="0" type="line"/>
      <point x="639" y="745" type="line"/>
      <point x="589" y="745" type="line"/>
      <point x="589" y="402" type="line"/>
      <point x="149" y="402" type="line"/>
      <point x="149" y="745" type="line"/>
      <point x="99" y="745" type="line"/>
      <point x="99" y="0" type="line"/>
    </contour>
  </outline>
</glyph>
<glyph name="I" format="2">
  <advance width="248"/>
  <unicode hex="0049"/>
  <anchor x="124" y="0" name="bottom"/>
  <anchor x="129" y="0" name="ogonek"/>
  <anchor x="124" y="745" name="top"/>
  <outline>
    <contour>
      <point x="149" y="0" type="line"/>
      <point x="149" y="745" type="line"/>
      <point x="99" y="745" type="line"/>
      <point x="99" y="0" type="line"/>
    </contour>
  </outline>
</glyph>
<glyph name="J" format="2">
  <advance width="381"/>
  <unicode hex="004A"/>
  <anchor x="202" y="0" name="bottom"/>
  <anchor x="257" y="745" name="top"/>
  <outline>
    <contour>
      <point x="104" y="0" type="line" smooth="yes"/>
      <point x="212" y="0"/>
      <point x="282" y="72"/>
      <point x="282" y="191" type="curve" smooth="yes"/>
      <point x="282" y="745" type="line"/>
      <point x="232" y="745" type="line"/>
      <point x="232" y="194" type="line" smooth="yes"/>
      <point x="232" y="99"/>
      <point x="184" y="50"/>
      <point x="104" y="50" type="curve" smooth="yes"/>
      <point x="66" y="50" type="line"/>
      <point x="66" y="0" type="line"/>
    </contour>
  </outline>
</glyph>
<glyph name="K" format="2">
  <advance width="651"/>
  <unicode hex="004B"/>
  <anchor x="326" y="0" name="bottom"/>
  <anchor x="326" y="745" name="top"/>
  <outline>
    <contour>
      <point x="149" y="0" type="line"/>
      <point x="149" y="241" type="line"/>
      <point x="283" y="390" type="line"/>
      <point x="567" y="0" type="line"/>
      <point x="629" y="0" type="line"/>
      <point x="305" y="444" type="line"/>
      <point x="303" y="409" type="line"/>
      <point x="606" y="745" type="line"/>
      <point x="539" y="745" type="line"/>
      <point x="130" y="294" type="line"/>
      <point x="149" y="285" type="line"/>
      <point x="149" y="745" type="line"/>
      <point x="99" y="745" type="line"/>
      <point x="99" y="0" type="line"/>
    </contour>
  </outline>
</glyph>
<glyph name="L" format="2">
  <advance width="533"/>
  <unicode hex="004C"/>
  <anchor x="294" y="0" name="bottom"/>
  <anchor x="124" y="373" name="center"/>
  <anchor x="319" y="372" name="dot"/>
  <anchor x="124" y="745" name="top"/>
  <anchor x="319" y="526" name="topright"/>
  <outline>
    <contour>
      <point x="489" y="0" type="line"/>
      <point x="489" y="45" type="line"/>
      <point x="149" y="45" type="line"/>
      <point x="149" y="745" type="line"/>
      <point x="99" y="745" type="line"/>
      <point x="99" y="0" type="line"/>
    </contour>
  </outline>
</glyph>
<glyph name="M" format="2">
  <advance width="818"/>
  <unicode hex="004D"/>
  <anchor x="409" y="0" name="bottom"/>
  <anchor x="409" y="745" name="top"/>
  <outline>
    <contour>
      <point x="149" y="0" type="line"/>
      <point x="149" y="662" type="line"/>
      <point x="141" y="654" type="line"/>
      <point x="408" y="246" type="line"/>
      <point x="410" y="246" type="line"/>
      <point x="675" y="654" type="line"/>
      <point x="669" y="662" type="line"/>
      <point x="669" y="0" type="line"/>
      <point x="719" y="0" type="line"/>
      <point x="719" y="745" type="line"/>
      <point x="679" y="745" type="line"/>
      <point x="400" y="323" type="line"/>
      <point x="415" y="323" type="line"/>
      <point x="139" y="745" type="line"/>
      <point x="99" y="745" type="line"/>
      <point x="99" y="0" type="line"/>
    </contour>
  </outline>
</glyph>
<glyph name="N" format="2">
  <advance width="738"/>
  <unicode hex="004E"/>
  <anchor x="369" y="0" name="bottom"/>
  <anchor x="369" y="745" name="top"/>
  <outline>
    <contour>
      <point x="149" y="0" type="line"/>
      <point x="149" y="671" type="line"/>
      <point x="130" y="671" type="line"/>
      <point x="599" y="0" type="line"/>
      <point x="639" y="0" type="line"/>
      <point x="639" y="745" type="line"/>
      <point x="589" y="745" type="line"/>
      <point x="589" y="78" type="line"/>
      <point x="605" y="78" type="line"/>
      <point x="139" y="745" type="line"/>
      <point x="99" y="745" type="line"/>
      <point x="99" y="0" type="line"/>
    </contour>
  </outline>
</glyph>
<glyph name="O" format="2">
  <advance width="884"/>
  <unicode hex="004F"/>
  <anchor x="442" y="0" name="bottom"/>
  <anchor x="442" y="373" name="center"/>
  <anchor x="492" y="0" name="ogonek"/>
  <anchor x="442" y="745" name="top"/>
  <anchor x="864" y="745" name="topright"/>
  <outline>
    <contour>
      <point x="442" y="-12" type="curve" smooth="yes"/>
      <point x="643" y="-12"/>
      <point x="807" y="147"/>
      <point x="807" y="373" type="curve" smooth="yes"/>
      <point x="807" y="598"/>
      <point x="642" y="757"/>
      <point x="442" y="757" type="curve" smooth="yes"/>
      <point x="242" y="757"/>
      <point x="77" y="599"/>
      <point x="77" y="373" type="curve" smooth="yes"/>
      <point x="77" y="147"/>
      <point x="241" y="-12"/>
    </contour>
    <contour>
      <point x="442" y="36" type="curve" smooth="yes"/>
      <point x="255" y="36"/>
      <point x="127" y="191"/>
      <point x="127" y="373" type="curve" smooth="yes"/>
      <point x="127" y="552"/>
      <point x="254" y="709"/>
      <point x="442" y="709" type="curve" smooth="yes"/>
      <point x="631" y="709"/>
      <point x="757" y="552"/>
      <point x="757" y="373" type="curve" smooth="yes"/>
      <point x="757" y="191"/>
      <point x="629" y="36"/>
    </contour>
  </outline>
</glyph>
<glyph name="P" format="2">
  <advance width="645"/>
  <unicode hex="0050"/>
  <anchor x="323" y="0" name="bottom"/>
  <anchor x="323" y="745" name="top"/>
  <outline>
    <contour>
      <point x="149" y="0" type="line"/>
      <point x="149" y="300" type="line"/>
      <point x="343" y="300" type="line" smooth="yes"/>
      <point x="483" y="300"/>
      <point x="579" y="390"/>
      <point x="579" y="522" type="curve" smooth="yes"/>
      <point x="579" y="654"/>
      <point x="482" y="745"/>
      <point x="343" y="745" type="curve" smooth="yes"/>
      <point x="99" y="745" type="line"/>
      <point x="99" y="0" type="line"/>
    </contour>
    <contour>
      <point x="149" y="700" type="line"/>
      <point x="343" y="700" type="line" smooth="yes"/>
      <point x="453" y="700"/>
      <point x="529" y="628"/>
      <point x="529" y="523" type="curve" smooth="yes"/>
      <point x="529" y="418"/>
      <point x="452" y="345"/>
      <point x="343" y="345" type="curve" smooth="yes"/>
      <point x="149" y="345" type="line"/>
    </contour>
  </outline>
</glyph>
<glyph name="Q" format="2">
  <advance width="884"/>
  <unicode hex="0051"/>
  <anchor x="442" y="0" name="bottom"/>
  <anchor x="442" y="745" name="top"/>
  <outline>
    <contour>
      <point x="442" y="-12" type="curve" smooth="yes"/>
      <point x="643" y="-12"/>
      <point x="807" y="147"/>
      <point x="807" y="373" type="curve" smooth="yes"/>
      <point x="807" y="598"/>
      <point x="642" y="757"/>
      <point x="442" y="757" type="curve" smooth="yes"/>
      <point x="242" y="757"/>
      <point x="77" y="599"/>
      <point x="77" y="373" type="curve" smooth="yes"/>
      <point x="77" y="147"/>
      <point x="241" y="-12"/>
    </contour>
    <contour>
      <point x="442" y="36" type="curve" smooth="yes"/>
      <point x="255" y="36"/>
      <point x="127" y="191"/>
      <point x="127" y="373" type="curve" smooth="yes"/>
      <point x="127" y="552"/>
      <point x="254" y="709"/>
      <point x="442" y="709" type="curve" smooth="yes"/>
      <point x="631" y="709"/>
      <point x="757" y="552"/>
      <point x="757" y="373" type="curve" smooth="yes"/>
      <point x="757" y="191"/>
      <point x="629" y="36"/>
    </contour>
    <contour>
      <point x="733" y="-90" type="line"/>
      <point x="483" y="298" type="line"/>
      <point x="424" y="298" type="line"/>
      <point x="674" y="-90" type="line"/>
    </contour>
  </outline>
</glyph>
<glyph name="S" format="2">
  <advance width="639"/>
  <unicode hex="0053"/>
  <anchor x="331" y="0" name="bottom"/>
  <anchor x="320" y="745" name="top"/>
  <outline>
    <contour>
      <point x="332" y="-12" type="curve" smooth="yes"/>
      <point x="464" y="-12"/>
      <point x="562" y="68"/>
      <point x="562" y="183" type="curve" smooth="yes"/>
      <point x="562" y="276"/>
      <point x="502" y="345"/>
      <point x="405" y="374" type="curve" smooth="yes"/>
      <point x="279" y="412" type="line" smooth="yes"/>
      <point x="177" y="443"/>
      <point x="145" y="489"/>
      <point x="145" y="562" type="curve" smooth="yes"/>
      <point x="145" y="655"/>
      <point x="217" y="714"/>
      <point x="310" y="714" type="curve" smooth="yes"/>
      <point x="398" y="714"/>
      <point x="473" y="663"/>
      <point x="508" y="569" type="curve"/>
      <point x="553" y="583" type="line"/>
      <point x="524" y="675"/>
      <point x="432" y="757"/>
      <point x="309" y="757" type="curve" smooth="yes"/>
      <point x="190" y="757"/>
      <point x="97" y="678"/>
      <point x="97" y="563" type="curve" smooth="yes"/>
      <point x="97" y="474"/>
      <point x="142" y="398"/>
      <point x="257" y="365" type="curve" smooth="yes"/>
      <point x="396" y="325" type="line" smooth="yes"/>
      <point x="458" y="307"/>
      <point x="514" y="265"/>
      <point x="514" y="184" type="curve" smooth="yes"/>
      <point x="514" y="88"/>
      <point x="436" y="31"/>
      <point x="331" y="31" type="curve" smooth="yes"/>
      <point x="226" y="31"/>
      <point x="150" y="87"/>
      <point x="111" y="188" type="curve"/>
      <point x="66" y="174" type="line"/>
      <point x="96" y="79"/>
      <point x="189" y="-12"/>
    </contour>
  </outline>
</glyph>
<glyph name="T" format="2">
  <advance width="514"/>
  <unicode hex="0054"/>
  <anchor x="257" y="0" name="bottom"/>
  <anchor x="257" y="373" name="center"/>
  <anchor x="257" y="745" name="top"/>
  <outline>
    <contour>
      <point x="283" y="0" type="line"/>
      <point x="283" y="700" type="line"/>
      <point x="492" y="700" type="line"/>
      <point x="492" y="745" type="line"/>
      <point x="22" y="745" type="line"/>
      <point x="22" y="700" type="line"/>
      <point x="233" y="700" type="line"/>
      <point x="233" y="0" type="line"/>
    </contour>
  </outline>
</glyph>
<glyph name="U" format="2">
  <advance width="690"/>
  <unicode hex="0055"/>
  <anchor x="345" y="0" name="bottom"/>
  <anchor x="365" y="0" name="ogonek"/>
  <anchor x="345" y="745" name="top"/>
  <outline>
    <contour>
      <point x="345" y="-12" type="curve" smooth="yes"/>
      <point x="494" y="-12"/>
      <point x="595" y="93"/>
      <point x="595" y="251" type="curve" smooth="yes"/>
      <point x="595" y="745" type="line"/>
      <point x="545" y="745" type="line"/>
      <point x="545" y="247" type="line" smooth="yes"/>
      <point x="545" y="121"/>
      <point x="464" y="33"/>
      <point x="345" y="33" type="curve" smooth="yes"/>
      <point x="226" y="33"/>
      <point x="145" y="121"/>
      <point x="145" y="247" type="curve" smooth="yes"/>
      <point x="145" y="745" type="line"/>
      <point x="95" y="745" type="line"/>
      <point x="95" y="251" type="line" smooth="yes"/>
      <point x="95" y="93"/>
      <point x="196" y="-12"/>
    </contour>
  </outline>
</glyph>
<glyph name="V" format="2">
  <advance width="654"/>
  <unicode hex="0056"/>
  <anchor x="327" y="0" name="bottom"/>
  <anchor x="327" y="745" name="top"/>
  <outline>
    <contour>
      <point x="351" y="0" type="line"/>
      <point x="632" y="745" type="line"/>
      <point x="577" y="745" type="line"/>
      <point x="317" y="46" type="line"/>
      <point x="338" y="46" type="line"/>
      <point x="77" y="745" type="line"/>
      <point x="22" y="745" type="line"/>
      <point x="303" y="0" type="line"/>
    </contour>
  </outline>
</glyph>
<glyph name="W" format="2">
  <advance width="988"/>
  <unicode hex="0057"/>
  <anchor x="494" y="0" name="bottom"/>
  <anchor x="494" y="745" name="top"/>
  <outline>
    <contour>
      <point x="293" y="0" type="line"/>
      <point x="508" y="706" type="line"/>
      <point x="480" y="706" type="line"/>
      <point x="695" y="0" type="line"/>
      <point x="743" y="0" type="line"/>
      <point x="966" y="745" type="line"/>
      <point x="912" y="745" type="line"/>
      <point x="706" y="44" type="line"/>
      <point x="732" y="45" type="line"/>
      <point x="518" y="745" type="line"/>
      <point x="470" y="745" type="line"/>
      <point x="256" y="45" type="line"/>
      <point x="282" y="44" type="line"/>
      <point x="76" y="745" type="line"/>
      <point x="22" y="745" type="line"/>
      <point x="245" y="0" type="line"/>
    </contour>
  </outline>
</glyph>
<glyph name="X" format="2">
  <advance width="589"/>
  <unicode hex="0058"/>
  <anchor x="295" y="0" name="bottom"/>
  <anchor x="295" y="745" name="top"/>
  <outline>
    <contour>
      <point x="84" y="0" type="line"/>
      <point x="298" y="343" type="line"/>
      <point x="290" y="343" type="line"/>
      <point x="505" y="0" type="line"/>
      <point x="567" y="0" type="line"/>
      <point x="325" y="382" type="line"/>
      <point x="555" y="745" type="line"/>
      <point x="494" y="745" type="line"/>
      <point x="291" y="421" type="line"/>
      <point x="298" y="421" type="line"/>
      <point x="94" y="745" type="line"/>
      <point x="32" y="745" type="line"/>
      <point x="262" y="382" type="line"/>
      <point x="22" y="0" type="line"/>
    </contour>
  </outline>
</glyph>
<glyph name="Y" format="2">
  <advance width="624"/>
  <unicode hex="0059"/>
  <anchor x="312" y="0" name="bottom"/>
  <anchor x="312" y="745" name="top"/>
  <outline>
    <contour>
      <point x="337" y="0" type="line"/>
      <point x="337" y="333" type="line"/>
      <point x="602" y="745" type="line"/>
      <point x="545" y="745" type="line"/>
      <point x="300" y="369" type="line"/>
      <point x="326" y="369" type="line"/>
      <point x="79" y="745" type="line"/>
      <point x="22" y="745" type="line"/>
      <point x="287" y="333" type="line"/>
      <point x="287" y="0" type="line"/>
    </contour>
  </outline>
</glyph>
<glyph name="Z" format="2">
  <advance width="606"/>
  <unicode hex="005A"/>
  <anchor x="303" y="0" name="bottom"/>
  <anchor x="303" y="373" name="center"/>
  <anchor x="303" y="745" name="top"/>
  <outline>
    <contour>
      <point x="573" y="0" type="line"/>
      <point x="573" y="45" type="line"/>
      <point x="102" y="45" type="line"/>
      <point x="563" y="715" type="line"/>
      <point x="563" y="745" type="line"/>
      <point x="60" y="745" type="line"/>
      <point x="60" y="700" type="line"/>
      <point x="495" y="700" type="line"/>
      <point x="33" y="30" type="line"/>
      <point x="33" y="0" type="line"/>
    </contour>
  </outline>
</glyph>
<glyph name="bracketleft" format="2">
  <advance width="281"/>
  <unicode hex="005B"/>
  <outline>
    <contour>
      <point x="258" y="-130" type="line"/>
      <point x="258" y="-85" type="line"/>
      <point x="138" y="-85" type="line"/>
      <point x="138" y="700" type="line"/>
      <point x="258" y="700" type="line"/>
      <point x="258" y="745" type="line"/>
      <point x="88" y="745" type="line"/>
      <point x="88" y="-130" type="line"/>
    </contour>
  </outline>
</glyph>
<glyph name="backslash" format="2">
  <advance width="397"/>
  <unicode hex="005C"/>
  <outline>
    <contour>
      <point x="395" y="-120" type="line"/>
      <point x="57" y="705" type="line"/>
      <point x="2" y="705" type="line"/>
      <point x="340" y="-120" type="line"/>
    </contour>
  </outline>
</glyph>
<glyph name="bracketright" format="2">
  <advance width="281"/>
  <unicode hex="005D"/>
  <outline>
    <contour>
      <point x="193" y="-130" type="line"/>
      <point x="193" y="745" type="line"/>
      <point x="23" y="745" type="line"/>
      <point x="23" y="700" type="line"/>
      <point x="143" y="700" type="line"/>
      <point x="143" y="-85" type="line"/>
      <point x="23" y="-85" type="line"/>
      <point x="23" y="-130" type="line"/>
    </contour>
  </outline>
</glyph>
<glyph name="asciicircum" format="2">
  <advance width="596"/>
  <unicode hex="005E"/>
  <outline>
    <contour>
      <point x="165" y="428" type="line"/>
      <point x="315" y="713" type="line"/>
      <point x="281" y="713" type="line"/>
      <point x="431" y="428" type="line"/>
      <point x="483" y="428" type="line"/>
      <point x="316" y="745" type="line"/>
      <point x="280" y="745" type="line"/>
      <point x="113" y="428" type="line"/>
    </contour>
  </outline>
</glyph>
<glyph name="underscore" format="2">
  <advance width="548"/>
  <unicode hex="005F"/>
  <outline>
    <contour>
      <point x="474" y="-45" type="line"/>
      <point x="474" y="0" type="line"/>
      <point x="74" y="0" type="line"/>
      <point x="74" y="-45" type="line"/>
    </contour>
  </outline>
</glyph>
<glyph name="b" format="2">
  <advance width="674"/>
  <unicode hex="0062"/>
  <anchor x="337" y="0" name="bottom"/>
  <anchor x="349" y="745" name="top"/>
  <outline>
    <contour>
      <point x="349" y="-12" type="curve" smooth="yes"/>
      <point x="496" y="-12"/>
      <point x="608" y="107"/>
      <point x="608" y="263" type="curve" smooth="yes"/>
      <point x="608" y="419"/>
      <point x="496" y="538"/>
      <point x="349" y="538" type="curve" smooth="yes"/>
      <point x="248" y="538"/>
      <point x="163" y="481"/>
      <point x="125" y="394" type="curve"/>
      <point x="133" y="377" type="line"/>
      <point x="133" y="757" type="line"/>
      <point x="88" y="757" type="line"/>
      <point x="88" y="0" type="line"/>
      <point x="133" y="0" type="line"/>
      <point x="133" y="149" type="line"/>
      <point x="125" y="132" type="line"/>
      <point x="163" y="45"/>
      <point x="248" y="-12"/>
    </contour>
    <contour>
      <point x="349" y="33" type="curve" smooth="yes"/>
      <point x="228" y="33"/>
      <point x="136" y="130"/>
      <point x="136" y="263" type="curve" smooth="yes"/>
      <point x="136" y="396"/>
      <point x="228" y="493"/>
      <point x="349" y="493" type="curve" smooth="yes"/>
      <point x="471" y="493"/>
      <point x="560" y="395"/>
      <point x="560" y="263" type="curve" smooth="yes"/>
      <point x="560" y="131"/>
      <point x="471" y="33"/>
    </contour>
  </outline>
</glyph>
<glyph name="c" format="2">
  <advance width="607"/>
  <unicode hex="0063"/>
  <anchor x="328" y="0" name="bottom"/>
  <anchor x="328" y="526" name="top"/>
  <outline>
    <contour>
      <point x="328" y="-12" type="curve" smooth="yes"/>
      <point x="425" y="-12"/>
      <point x="505" y="42"/>
      <point x="541" y="113" type="curve"/>
      <point x="503" y="133" type="line"/>
      <point x="466" y="67"/>
      <point x="404" y="30"/>
      <point x="328" y="30" type="curve" smooth="yes"/>
      <point x="206" y="30"/>
      <point x="111" y="123"/>
      <point x="111" y="263" type="curve" smooth="yes"/>
      <point x="111" y="403"/>
      <point x="206" y="496"/>
      <point x="328" y="496" type="curve" smooth="yes"/>
      <point x="404" y="496"/>
      <point x="466" y="459"/>
      <point x="503" y="393" type="curve"/>
      <point x="541" y="414" type="line"/>
      <point x="505" y="485"/>
      <point x="425" y="538"/>
      <point x="328" y="538" type="curve" smooth="yes"/>
      <point x="181" y="538"/>
      <point x="66" y="420"/>
      <point x="66" y="263" type="curve" smooth="yes"/>
      <point x="66" y="106"/>
      <point x="181" y="-12"/>
    </contour>
  </outline>
</glyph>
<glyph name="d" format="2">
  <advance width="674"/>
  <unicode hex="0064"/>
  <anchor x="337" y="0" name="bottom"/>
  <anchor x="564" y="640" name="center"/>
  <anchor x="326" y="745" name="top"/>
  <anchor x="674" y="526" name="topright"/>
  <outline>
    <contour>
      <point x="325" y="-12" type="curve" smooth="yes"/>
      <point x="426" y="-12"/>
      <point x="511" y="45"/>
      <point x="549" y="132" type="curve"/>
      <point x="541" y="149" type="line"/>
      <point x="541" y="0" type="line"/>
      <point x="586" y="0" type="line"/>
      <point x="586" y="757" type="line"/>
      <point x="541" y="757" type="line"/>
      <point x="541" y="377" type="line"/>
      <point x="549" y="394" type="line"/>
      <point x="511" y="481"/>
      <point x="426" y="538"/>
      <point x="325" y="538" type="curve" smooth="yes"/>
      <point x="178" y="538"/>
      <point x="66" y="419"/>
      <point x="66" y="263" type="curve" smooth="yes"/>
      <point x="66" y="107"/>
      <point x="178" y="-12"/>
    </contour>
    <contour>
      <point x="325" y="33" type="curve" smooth="yes"/>
      <point x="203" y="33"/>
      <point x="114" y="131"/>
      <point x="114" y="263" type="curve" smooth="yes"/>
      <point x="114" y="395"/>
      <point x="203" y="493"/>
      <point x="325" y="493" type="curve" smooth="yes"/>
      <point x="446" y="493"/>
      <point x="538" y="396"/>
      <point x="538" y="263" type="curve" smooth="yes"/>
      <point x="538" y="130"/>
      <point x="446" y="33"/>
    </contour>
  </outline>
</glyph>
<glyph name="e" format="2">
  <advance width="627"/>
  <unicode hex="0065"/>
  <anchor x="314" y="0" name="bottom"/>
  <anchor x="331" y="0" name="ogonek"/>
  <anchor x="314" y="526" name="top"/>
  <outline>
    <contour>
      <point x="331" y="-12" type="curve" smooth="yes"/>
      <point x="425" y="-12"/>
      <point x="507" y="36"/>
      <point x="546" y="113" type="curve"/>
      <point x="508" y="133" type="line"/>
      <point x="471" y="68"/>
      <point x="407" y="30"/>
      <point x="331" y="30" type="curve" smooth="yes"/>
      <point x="205" y="30"/>
      <point x="111" y="130"/>
      <point x="111" y="263" type="curve" smooth="yes"/>
      <point x="111" y="394"/>
      <point x="203" y="496"/>
      <point x="321" y="496" type="curve" smooth="yes"/>
      <point x="435" y="496"/>
      <point x="521" y="399"/>
      <point x="515" y="276" type="curve"/>
      <point x="532" y="289" type="line"/>
      <point x="89" y="289" type="line"/>
      <point x="89" y="249" type="line"/>
      <point x="558" y="249" type="line"/>
      <point x="560" y="264"/>
      <point x="561" y="275"/>
      <point x="561" y="288" type="curve" smooth="yes"/>
      <point x="561" y="430"/>
      <point x="458" y="538"/>
      <point x="321" y="538" type="curve" smooth="yes"/>
      <point x="177" y="538"/>
      <point x="66" y="419"/>
      <point x="66" y="263" type="curve" smooth="yes"/>
      <point x="66" y="108"/>
      <point x="181" y="-12"/>
    </contour>
  </outline>
</glyph>
<glyph name="g" format="2">
  <advance width="664"/>
  <unicode hex="0067"/>
  <anchor x="332" y="-240" name="bottom"/>
  <anchor x="332" y="526" name="top"/>
  <outline>
    <contour>
      <point x="331" y="-220" type="curve" smooth="yes"/>
      <point x="474" y="-220"/>
      <point x="576" y="-121"/>
      <point x="576" y="18" type="curve" smooth="yes"/>
      <point x="576" y="526" type="line"/>
      <point x="531" y="526" type="line"/>
      <point x="531" y="377" type="line"/>
      <point x="541" y="394" type="line"/>
      <point x="503" y="481"/>
      <point x="421" y="538"/>
      <point x="320" y="538" type="curve" smooth="yes"/>
      <point x="173" y="538"/>
      <point x="66" y="419"/>
      <point x="66" y="273" type="curve" smooth="yes"/>
      <point x="66" y="127"/>
      <point x="173" y="8"/>
      <point x="320" y="8" type="curve" smooth="yes"/>
      <point x="421" y="8"/>
      <point x="503" y="65"/>
      <point x="541" y="152" type="curve"/>
      <point x="531" y="169" type="line"/>
      <point x="531" y="18" type="line" smooth="yes"/>
      <point x="531" y="-118"/>
      <point x="430" y="-178"/>
      <point x="331" y="-178" type="curve" smooth="yes"/>
      <point x="251" y="-178"/>
      <point x="185" y="-139"/>
      <point x="146" y="-73" type="curve"/>
      <point x="108" y="-95" type="line"/>
      <point x="146" y="-166"/>
      <point x="229" y="-220"/>
    </contour>
    <contour>
      <point x="320" y="53" type="curve" smooth="yes"/>
      <point x="198" y="53"/>
      <point x="114" y="151"/>
      <point x="114" y="273" type="curve" smooth="yes"/>
      <point x="114" y="395"/>
      <point x="198" y="493"/>
      <point x="320" y="493" type="curve" smooth="yes"/>
      <point x="441" y="493"/>
      <point x="528" y="396"/>
      <point x="528" y="273" type="curve" smooth="yes"/>
      <point x="528" y="150"/>
      <point x="441" y="53"/>
    </contour>
  </outline>
</glyph>
<glyph name="h" format="2">
  <advance width="570"/>
  <unicode hex="0068"/>
  <anchor x="285" y="0" name="bottom"/>
  <anchor x="111" y="640" name="center"/>
  <anchor x="111" y="745" name="top"/>
  <outline>
    <contour>
      <point x="133" y="0" type="line"/>
      <point x="133" y="320" type="line" smooth="yes"/>
      <point x="133" y="417"/>
      <point x="191" y="495"/>
      <point x="291" y="495" type="curve" smooth="yes"/>
      <point x="378" y="495"/>
      <point x="448" y="435"/>
      <point x="448" y="340" type="curve" smooth="yes"/>
      <point x="448" y="0" type="line"/>
      <point x="493" y="0" type="line"/>
      <point x="493" y="345" type="line" smooth="yes"/>
      <point x="493" y="461"/>
      <point x="401" y="538"/>
      <point x="295" y="538" type="curve" smooth="yes"/>
      <point x="211" y="538"/>
      <point x="142" y="490"/>
      <point x="121" y="420" type="curve"/>
      <point x="133" y="415" type="line"/>
      <point x="133" y="757" type="line"/>
      <point x="88" y="757" type="line"/>
      <point x="88" y="0" type="line"/>
    </contour>
  </outline>
</glyph>
<glyph name="i" format="2">
  <advance width="221"/>
  <unicode hex="0069"/>
  <anchor x="111" y="0" name="bottom"/>
  <outline>
    <contour>
      <point x="133" y="0" type="line"/>
      <point x="133" y="526" type="line"/>
      <point x="88" y="526" type="line"/>
      <point x="88" y="0" type="line"/>
    </contour>
    <contour>
      <point x="133" y="635" type="line"/>
      <point x="133" y="745" type="line"/>
      <point x="88" y="745" type="line"/>
      <point x="88" y="635" type="line"/>
    </contour>
  </outline>
</glyph>
<glyph name="j" format="2">
  <advance width="221"/>
  <unicode hex="006A"/>
  <outline>
    <contour>
      <point x="-18" y="-220" type="curve" smooth="yes"/>
      <point x="73" y="-220"/>
      <point x="133" y="-165"/>
      <point x="133" y="-62" type="curve" smooth="yes"/>
      <point x="133" y="526" type="line"/>
      <point x="88" y="526" type="line"/>
      <point x="88" y="-62" type="line" smooth="yes"/>
      <point x="88" y="-137"/>
      <point x="48" y="-177"/>
      <point x="-21" y="-177" type="curve" smooth="yes"/>
      <point x="-32" y="-177"/>
      <point x="-46" y="-176"/>
      <point x="-57" y="-174" type="curve"/>
      <point x="-57" y="-215" type="line"/>
      <point x="-47" y="-218"/>
      <point x="-34" y="-220"/>
    </contour>
    <contour>
      <point x="133" y="635" type="line"/>
      <point x="133" y="745" type="line"/>
      <point x="88" y="745" type="line"/>
      <point x="88" y="635" type="line"/>
    </contour>
  </outline>
</glyph>
<glyph name="m" format="2">
  <advance width="910"/>
  <unicode hex="006D"/>
  <anchor x="455" y="0" name="bottom"/>
  <anchor x="455" y="526" name="top"/>
  <outline>
    <contour>
      <point x="133" y="0" type="line"/>
      <point x="133" y="320" type="line" smooth="yes"/>
      <point x="133" y="417"/>
      <point x="191" y="495"/>
      <point x="286" y="495" type="curve" smooth="yes"/>
      <point x="368" y="495"/>
      <point x="438" y="435"/>
      <point x="438" y="340" type="curve" smooth="yes"/>
      <point x="438" y="0" type="line"/>
      <point x="483" y="0" type="line"/>
      <point x="483" y="320" type="line" smooth="yes"/>
      <point x="483" y="417"/>
      <point x="541" y="495"/>
      <point x="636" y="495" type="curve" smooth="yes"/>
      <point x="718" y="495"/>
      <point x="788" y="435"/>
      <point x="788" y="340" type="curve" smooth="yes"/>
      <point x="788" y="0" type="line"/>
      <point x="833" y="0" type="line"/>
      <point x="833" y="345" type="line" smooth="yes"/>
      <point x="833" y="461"/>
      <point x="741" y="538"/>
      <point x="640" y="538" type="curve" smooth="yes"/>
      <point x="553" y="538"/>
      <point x="478" y="483"/>
      <point x="459" y="403" type="curve"/>
      <point x="475" y="403" type="line"/>
      <point x="450" y="485"/>
      <point x="373" y="538"/>
      <point x="290" y="538" type="curve" smooth="yes"/>
      <point x="213" y="538"/>
      <point x="147" y="494"/>
      <point x="124" y="428" type="curve"/>
      <point x="133" y="413" type="line"/>
      <point x="133" y="526" type="line"/>
      <point x="88" y="526" type="line"/>
      <point x="88" y="0" type="line"/>
    </contour>
  </outline>
</glyph>
<glyph name="n" format="2">
  <advance width="570"/>
  <unicode hex="006E"/>
  <anchor x="285" y="0" name="bottom"/>
  <anchor x="285" y="526" name="top"/>
  <outline>
    <contour>
      <point x="133" y="0" type="line"/>
      <point x="133" y="320" type="line" smooth="yes"/>
      <point x="133" y="417"/>
      <point x="191" y="495"/>
      <point x="291" y="495" type="curve" smooth="yes"/>
      <point x="378" y="495"/>
      <point x="448" y="435"/>
      <point x="448" y="340" type="curve" smooth="yes"/>
      <point x="448" y="0" type="line"/>
      <point x="493" y="0" type="line"/>
      <point x="493" y="345" type="line" smooth="yes"/>
      <point x="493" y="461"/>
      <point x="401" y="538"/>
      <point x="295" y="538" type="curve" smooth="yes"/>
      <point x="211" y="538"/>
      <point x="142" y="490"/>
      <point x="121" y="420" type="curve"/>
      <point x="133" y="415" type="line"/>
      <point x="133" y="526" type="line"/>
      <point x="88" y="526" type="line"/>
      <point x="88" y="0" type="line"/>
    </contour>
  </outline>
</glyph>
<glyph name="o" format="2">
  <advance width="662"/>
  <unicode hex="006F"/>
  <anchor x="331" y="0" name="bottom"/>
  <anchor x="331" y="263" name="center"/>
  <anchor x="381" y="0" name="ogonek"/>
  <anchor x="331" y="526" name="top"/>
  <anchor x="642" y="526" name="topright"/>
  <outline>
    <contour>
      <point x="331" y="-12" type="curve" smooth="yes"/>
      <point x="482" y="-12"/>
      <point x="596" y="106"/>
      <point x="596" y="263" type="curve" smooth="yes"/>
      <point x="596" y="420"/>
      <point x="482" y="538"/>
      <point x="331" y="538" type="curve" smooth="yes"/>
      <point x="180" y="538"/>
      <point x="66" y="420"/>
      <point x="66" y="263" type="curve" smooth="yes"/>
      <point x="66" y="106"/>
      <point x="180" y="-12"/>
    </contour>
    <contour>
      <point x="331" y="31" type="curve" smooth="yes"/>
      <point x="209" y="31"/>
      <point x="114" y="132"/>
      <point x="114" y="263" type="curve" smooth="yes"/>
      <point x="114" y="394"/>
      <point x="208" y="495"/>
      <point x="331" y="495" type="curve" smooth="yes"/>
      <point x="454" y="495"/>
      <point x="548" y="394"/>
      <point x="548" y="263" type="curve" smooth="yes"/>
      <point x="548" y="132"/>
      <point x="453" y="31"/>
    </contour>
  </outline>
</glyph>
<glyph name="p" format="2">
  <advance width="674"/>
  <unicode hex="0070"/>
  <anchor x="337" y="0" name="bottom"/>
  <anchor x="337" y="526" name="top"/>
  <outline>
    <contour>
      <point x="133" y="-200" type="line"/>
      <point x="133" y="149" type="line"/>
      <point x="125" y="132" type="line"/>
      <point x="163" y="45"/>
      <point x="248" y="-12"/>
      <point x="349" y="-12" type="curve" smooth="yes"/>
      <point x="496" y="-12"/>
      <point x="608" y="107"/>
      <point x="608" y="263" type="curve" smooth="yes"/>
      <point x="608" y="419"/>
      <point x="496" y="538"/>
      <point x="349" y="538" type="curve" smooth="yes"/>
      <point x="248" y="538"/>
      <point x="163" y="481"/>
      <point x="125" y="394" type="curve"/>
      <point x="133" y="377" type="line"/>
      <point x="133" y="526" type="line"/>
      <point x="88" y="526" type="line"/>
      <point x="88" y="-200" type="line"/>
    </contour>
    <contour>
      <point x="349" y="33" type="curve" smooth="yes"/>
      <point x="228" y="33"/>
      <point x="136" y="130"/>
      <point x="136" y="263" type="curve" smooth="yes"/>
      <point x="136" y="396"/>
      <point x="228" y="493"/>
      <point x="349" y="493" type="curve" smooth="yes"/>
      <point x="471" y="493"/>
      <point x="560" y="395"/>
      <point x="560" y="263" type="curve" smooth="yes"/>
      <point x="560" y="131"/>
      <point x="471" y="33"/>
    </contour>
  </outline>
</glyph>
<glyph name="r" format="2">
  <advance width="340"/>
  <unicode hex="0072"/>
  <anchor x="111" y="0" name="bottom"/>
  <anchor x="203" y="526" name="top"/>
  <outline>
    <contour>
      <point x="133" y="0" type="line"/>
      <point x="133" y="320" type="line" smooth="yes"/>
      <point x="133" y="417"/>
      <point x="188" y="487"/>
      <point x="284" y="487" type="curve" smooth="yes"/>
      <point x="318" y="487" type="line"/>
      <point x="318" y="532" type="line"/>
      <point x="285" y="532" type="line" smooth="yes"/>
      <point x="206" y="532"/>
      <point x="141" y="490"/>
      <point x="121" y="420" type="curve"/>
      <point x="133" y="415" type="line"/>
      <point x="133" y="526" type="line"/>
      <point x="88" y="526" type="line"/>
      <point x="88" y="0" type="line"/>
    </contour>
  </outline>
</glyph>
<glyph name="s" format="2">
  <advance width="506"/>
  <unicode hex="0073"/>
  <anchor x="253" y="0" name="bottom"/>
  <anchor x="253" y="526" name="top"/>
  <outline>
    <contour>
      <point x="260" y="-12" type="curve" smooth="yes"/>
      <point x="361" y="-12"/>
      <point x="440" y="50"/>
      <point x="440" y="135" type="curve" smooth="yes"/>
      <point x="440" y="204"/>
      <point x="391" y="256"/>
      <point x="305" y="280" type="curve" smooth="yes"/>
      <point x="217" y="305" type="line" smooth="yes"/>
      <point x="159" y="321"/>
      <point x="128" y="352"/>
      <point x="128" y="396" type="curve" smooth="yes"/>
      <point x="128" y="453"/>
      <point x="177" y="495"/>
      <point x="244" y="495" type="curve" smooth="yes"/>
      <point x="306" y="495"/>
      <point x="360" y="460"/>
      <point x="389" y="400" type="curve"/>
      <point x="433" y="420" type="line"/>
      <point x="406" y="490"/>
      <point x="329" y="538"/>
      <point x="244" y="538" type="curve" smooth="yes"/>
      <point x="153" y="538"/>
      <point x="82" y="479"/>
      <point x="82" y="395" type="curve" smooth="yes"/>
      <point x="82" y="327"/>
      <point x="125" y="279"/>
      <point x="210" y="256" type="curve" smooth="yes"/>
      <point x="297" y="232" type="line" smooth="yes"/>
      <point x="359" y="215"/>
      <point x="393" y="181"/>
      <point x="393" y="133" type="curve" smooth="yes"/>
      <point x="393" y="72"/>
      <point x="335" y="31"/>
      <point x="260" y="31" type="curve" smooth="yes"/>
      <point x="191" y="31"/>
      <point x="131" y="70"/>
      <point x="97" y="137" type="curve"/>
      <point x="55" y="118" type="line"/>
      <point x="91" y="37"/>
      <point x="167" y="-12"/>
    </contour>
  </outline>
</glyph>
<glyph name="t" format="2">
  <advance width="379"/>
  <unicode hex="0074"/>
  <anchor x="240" y="0" name="bottom"/>
  <anchor x="166" y="263" name="center"/>
  <anchor x="166" y="650" name="top"/>
  <anchor x="245" y="526" name="topright"/>
  <outline>
    <contour>
      <point x="270" y="-6" type="curve" smooth="yes"/>
      <point x="278" y="-6"/>
      <point x="299" y="-4"/>
      <point x="313" y="0" type="curve"/>
      <point x="313" y="40" type="line"/>
      <point x="303" y="38"/>
      <point x="285" y="37"/>
      <point x="274" y="37" type="curve" smooth="yes"/>
      <point x="198" y="37"/>
      <point x="188" y="89"/>
      <point x="188" y="126" type="curve" smooth="yes"/>
      <point x="188" y="486" type="line"/>
      <point x="302" y="486" type="line"/>
      <point x="302" y="526" type="line"/>
      <point x="188" y="526" type="line"/>
      <point x="188" y="650" type="line"/>
      <point x="143" y="650" type="line"/>
      <point x="143" y="580" type="line" smooth="yes"/>
      <point x="143" y="543"/>
      <point x="127" y="526"/>
      <point x="93" y="526" type="curve" smooth="yes"/>
      <point x="43" y="526" type="line"/>
      <point x="43" y="486" type="line"/>
      <point x="143" y="486" type="line"/>
      <point x="143" y="126" type="line" smooth="yes"/>
      <point x="143" y="38"/>
      <point x="188" y="-6"/>
    </contour>
  </outline>
</glyph>
<glyph name="u" format="2">
  <advance width="570"/>
  <unicode hex="0075"/>
  <anchor x="285" y="0" name="bottom"/>
  <anchor x="460" y="0" name="ogonek"/>
  <anchor x="285" y="526" name="top"/>
  <anchor x="550" y="526" name="topright"/>
  <outline>
    <contour>
      <point x="275" y="-12" type="curve" smooth="yes"/>
      <point x="361" y="-12"/>
      <point x="428" y="36"/>
      <point x="449" y="106" type="curve"/>
      <point x="437" y="111" type="line"/>
      <point x="437" y="0" type="line"/>
      <point x="482" y="0" type="line"/>
      <point x="482" y="526" type="line"/>
      <point x="437" y="526" type="line"/>
      <point x="437" y="206" type="line" smooth="yes"/>
      <point x="437" y="109"/>
      <point x="381" y="31"/>
      <point x="279" y="31" type="curve" smooth="yes"/>
      <point x="194" y="31"/>
      <point x="122" y="85"/>
      <point x="122" y="186" type="curve" smooth="yes"/>
      <point x="122" y="526" type="line"/>
      <point x="77" y="526" type="line"/>
      <point x="77" y="186" type="line" smooth="yes"/>
      <point x="77" y="59"/>
      <point x="171" y="-12"/>
    </contour>
  </outline>
</glyph>
<glyph name="v" format="2">
  <advance width="519"/>
  <unicode hex="0076"/>
  <anchor x="260" y="0" name="bottom"/>
  <anchor x="260" y="526" name="top"/>
  <outline>
    <contour>
      <point x="282" y="0" type="line"/>
      <point x="497" y="526" type="line"/>
      <point x="445" y="526" type="line"/>
      <point x="249" y="39" type="line"/>
      <point x="268" y="39" type="line"/>
      <point x="73" y="526" type="line"/>
      <point x="22" y="526" type="line"/>
      <point x="234" y="0" type="line"/>
    </contour>
  </outline>
</glyph>
<glyph name="w" format="2">
  <advance width="769"/>
  <unicode hex="0077"/>
  <anchor x="385" y="0" name="bottom"/>
  <anchor x="385" y="526" name="top"/>
  <outline>
    <contour>
      <point x="250" y="0" type="line"/>
      <point x="388" y="469" type="line"/>
      <point x="380" y="469" type="line"/>
      <point x="518" y="0" type="line"/>
      <point x="566" y="0" type="line"/>
      <point x="747" y="526" type="line"/>
      <point x="697" y="526" type="line"/>
      <point x="530" y="33" type="line"/>
      <point x="552" y="33" type="line"/>
      <point x="408" y="526" type="line"/>
      <point x="360" y="526" type="line"/>
      <point x="216" y="33" type="line"/>
      <point x="237" y="33" type="line"/>
      <point x="72" y="526" type="line"/>
      <point x="22" y="526" type="line"/>
      <point x="202" y="0" type="line"/>
    </contour>
  </outline>
</glyph>
<glyph name="x" format="2">
  <advance width="474"/>
  <unicode hex="0078"/>
  <anchor x="237" y="0" name="bottom"/>
  <anchor x="237" y="526" name="top"/>
  <outline>
    <contour>
      <point x="79" y="0" type="line"/>
      <point x="257" y="250" type="line"/>
      <point x="218" y="250" type="line"/>
      <point x="394" y="0" type="line"/>
      <point x="452" y="0" type="line"/>
      <point x="266" y="263" type="line"/>
      <point x="451" y="526" type="line"/>
      <point x="393" y="526" type="line"/>
      <point x="218" y="276" type="line"/>
      <point x="257" y="276" type="line"/>
      <point x="81" y="526" type="line"/>
      <point x="24" y="526" type="line"/>
      <point x="209" y="263" type="line"/>
      <point x="22" y="0" type="line"/>
    </contour>
  </outline>
</glyph>
<glyph name="y" format="2">
  <advance width="529"/>
  <unicode hex="0079"/>
  <anchor x="479" y="100" name="bottom"/>
  <anchor x="265" y="526" name="top"/>
  <outline>
    <contour>
      <point x="81" y="-220" type="curve" smooth="yes"/>
      <point x="183" y="-220"/>
      <point x="233" y="-135"/>
      <point x="255" y="-81" type="curve" smooth="yes"/>
      <point x="507" y="526" type="line"/>
      <point x="455" y="526" type="line"/>
      <point x="252" y="30" type="line"/>
      <point x="280" y="30" type="line"/>
      <point x="79" y="526" type="line"/>
      <point x="28" y="526" type="line"/>
      <point x="251" y="-24" type="line"/>
      <point x="249" y="22" type="line"/>
      <point x="207" y="-76" type="line" smooth="yes"/>
      <point x="179" y="-141"/>
      <point x="143" y="-176"/>
      <point x="78" y="-177" type="curve" smooth="yes"/>
      <point x="63" y="-177"/>
      <point x="40" y="-175"/>
      <point x="22" y="-170" type="curve"/>
      <point x="22" y="-211" type="line"/>
      <point x="42" y="-218"/>
      <point x="65" y="-220"/>
    </contour>
  </outline>
</glyph>
<glyph name="z" format="2">
  <advance width="435"/>
  <unicode hex="007A"/>
  <anchor x="218" y="0" name="bottom"/>
  <anchor x="218" y="263" name="center"/>
  <anchor x="218" y="526" name="top"/>
  <outline>
    <contour>
      <point x="413" y="0" type="line"/>
      <point x="413" y="40" type="line"/>
      <point x="57" y="40" type="line"/>
      <point x="72" y="10" type="line"/>
      <point x="410" y="496" type="line"/>
      <point x="410" y="526" type="line"/>
      <point x="52" y="526" type="line"/>
      <point x="52" y="486" type="line"/>
      <point x="385" y="486" type="line"/>
      <point x="370" y="516" type="line"/>
      <point x="33" y="30" type="line"/>
      <point x="33" y="0" type="line"/>
    </contour>
  </outline>
</glyph>
<glyph name="braceleft" format="2">
  <advance width="291"/>
  <unicode hex="007B"/>
  <outline>
    <contour>
      <point x="268" y="-130" type="line"/>
      <point x="268" y="-85" type="line"/>
      <point x="240" y="-85" type="line" smooth="yes"/>
      <point x="194" y="-85"/>
      <point x="166" y="-49"/>
      <point x="166" y="-1" type="curve" smooth="yes"/>
      <point x="166" y="203" type="line" smooth="yes"/>
      <point x="166" y="237"/>
      <point x="157" y="278"/>
      <point x="126" y="308" type="curve"/>
      <point x="157" y="338"/>
      <point x="166" y="372"/>
      <point x="166" y="412" type="curve" smooth="yes"/>
      <point x="166" y="616" type="line" smooth="yes"/>
      <point x="166" y="664"/>
      <point x="194" y="700"/>
      <point x="240" y="700" type="curve" smooth="yes"/>
      <point x="268" y="700" type="line"/>
      <point x="268" y="745" type="line"/>
      <point x="240" y="745" type="line" smooth="yes"/>
      <point x="168" y="745"/>
      <point x="116" y="691"/>
      <point x="116" y="614" type="curve" smooth="yes"/>
      <point x="116" y="412" type="line" smooth="yes"/>
      <point x="116" y="364"/>
      <point x="95" y="331"/>
      <point x="45" y="331" type="curve" smooth="yes"/>
      <point x="18" y="331" type="line"/>
      <point x="18" y="285" type="line"/>
      <point x="45" y="285" type="line" smooth="yes"/>
      <point x="95" y="285"/>
      <point x="116" y="252"/>
      <point x="116" y="205" type="curve" smooth="yes"/>
      <point x="116" y="1" type="line" smooth="yes"/>
      <point x="116" y="-76"/>
      <point x="168" y="-130"/>
      <point x="240" y="-130" type="curve" smooth="yes"/>
    </contour>
  </outline>
</glyph>
<glyph name="bar" format="2">
  <advance width="270"/>
  <unicode hex="007C"/>
  <outline>
    <contour>
      <point x="160" y="-190" type="line"/>
      <point x="160" y="845" type="line"/>
      <point x="110" y="845" type="line"/>
      <point x="110" y="-190" type="line"/>
    </contour>
  </outline>
</glyph>
<glyph name="braceright" format="2">
  <advance width="291"/>
  <unicode hex="007D"/>
  <outline>
    <contour>
      <point x="51" y="-130" type="line" smooth="yes"/>
      <point x="123" y="-130"/>
      <point x="175" y="-76"/>
      <point x="175" y="1" type="curve" smooth="yes"/>
      <point x="175" y="205" type="line" smooth="yes"/>
      <point x="175" y="252"/>
      <point x="196" y="285"/>
      <point x="246" y="285" type="curve" smooth="yes"/>
      <point x="273" y="285" type="line"/>
      <point x="273" y="331" type="line"/>
      <point x="246" y="331" type="line" smooth="yes"/>
      <point x="196" y="331"/>
      <point x="175" y="364"/>
      <point x="175" y="412" type="curve" smooth="yes"/>
      <point x="175" y="614" type="line" smooth="yes"/>
      <point x="175" y="691"/>
      <point x="123" y="745"/>
      <point x="51" y="745" type="curve" smooth="yes"/>
      <point x="23" y="745" type="line"/>
      <point x="23" y="700" type="line"/>
      <point x="51" y="700" type="line" smooth="yes"/>
      <point x="97" y="700"/>
      <point x="125" y="664"/>
      <point x="125" y="616" type="curve" smooth="yes"/>
      <point x="125" y="412" type="line" smooth="yes"/>
      <point x="125" y="372"/>
      <point x="134" y="338"/>
      <point x="165" y="308" type="curve"/>
      <point x="134" y="278"/>
      <point x="125" y="237"/>
      <point x="125" y="203" type="curve" smooth="yes"/>
      <point x="125" y="-1" type="line" smooth="yes"/>
      <point x="125" y="-49"/>
      <point x="97" y="-85"/>
      <point x="51" y="-85" type="curve" smooth="yes"/>
      <point x="23" y="-85" type="line"/>
      <point x="23" y="-130" type="line"/>
    </contour>
  </outline>
</glyph>
<glyph name="asciitilde" format="2">
  <advance width="596"/>
  <unicode hex="007E"/>
  <outline>
    <contour>
      <point x="392" y="203" type="curve" smooth="yes"/>
      <point x="452" y="203"/>
      <point x="506" y="242"/>
      <point x="509" y="324" type="curve"/>
      <point x="466" y="324" type="line"/>
      <point x="459" y="264"/>
      <point x="431" y="248"/>
      <point x="395" y="248" type="curve" smooth="yes"/>
      <point x="320" y="248"/>
      <point x="292" y="330"/>
      <point x="204" y="330" type="curve" smooth="yes"/>
      <point x="144" y="330"/>
      <point x="90" y="291"/>
      <point x="87" y="209" type="curve"/>
      <point x="130" y="209" type="line"/>
      <point x="137" y="269"/>
      <point x="165" y="285"/>
      <point x="201" y="285" type="curve" smooth="yes"/>
      <point x="276" y="285"/>
      <point x="304" y="203"/>
    </contour>
  </outline>
</glyph>
<glyph name="exclamdown" format="2">
  <advance width="255"/>
  <unicode hex="00A1"/>
  <outline>
    <contour>
      <point x="153" y="-219" type="line"/>
      <point x="150" y="318" type="line"/>
      <point x="105" y="318" type="line"/>
      <point x="103" y="-219" type="line"/>
    </contour>
    <contour>
      <point x="156" y="436" type="line"/>
      <point x="156" y="526" type="line"/>
      <point x="101" y="526" type="line"/>
      <point x="101" y="436" type="line"/>
    </contour>
  </outline>
</glyph>
<glyph name="cent" format="2">
  <advance width="607"/>
  <unicode hex="00A2"/>
  <outline>
    <contour>
      <point x="328" y="98" type="curve" smooth="yes"/>
      <point x="425" y="98"/>
      <point x="505" y="152"/>
      <point x="541" y="223" type="curve"/>
      <point x="503" y="243" type="line"/>
      <point x="466" y="177"/>
      <point x="404" y="140"/>
      <point x="328" y="140" type="curve" smooth="yes"/>
      <point x="206" y="140"/>
      <point x="111" y="233"/>
      <point x="111" y="373" type="curve" smooth="yes"/>
      <point x="111" y="513"/>
      <point x="206" y="606"/>
      <point x="328" y="606" type="curve" smooth="yes"/>
      <point x="404" y="606"/>
      <point x="466" y="569"/>
      <point x="503" y="503" type="curve"/>
      <point x="541" y="524" type="line"/>
      <point x="505" y="595"/>
      <point x="425" y="648"/>
      <point x="328" y="648" type="curve" smooth="yes"/>
      <point x="181" y="648"/>
      <point x="66" y="530"/>
      <point x="66" y="373" type="curve" smooth="yes"/>
      <point x="66" y="216"/>
      <point x="181" y="98"/>
    </contour>
    <contour>
      <point x="349" y="0" type="line"/>
      <point x="349" y="745" type="line"/>
      <point x="304" y="745" type="line"/>
      <point x="304" y="0" type="line"/>
    </contour>
  </outline>
</glyph>
<glyph name="sterling" format="2">
  <advance width="648"/>
  <unicode hex="00A3"/>
  <outline>
    <contour>
      <point x="549" y="0" type="line"/>
      <point x="549" y="45" type="line"/>
      <point x="200" y="45" type="line"/>
      <point x="200" y="534" type="line" smooth="yes"/>
      <point x="200" y="643"/>
      <point x="268" y="712"/>
      <point x="369" y="712" type="curve" smooth="yes"/>
      <point x="471" y="712"/>
      <point x="539" y="655"/>
      <point x="553" y="556" type="curve"/>
      <point x="598" y="566" type="line"/>
      <point x="580" y="690"/>
      <point x="486" y="757"/>
      <point x="369" y="757" type="curve" smooth="yes"/>
      <point x="238" y="757"/>
      <point x="150" y="668"/>
      <point x="150" y="534" type="curve" smooth="yes"/>
      <point x="150" y="45" type="line"/>
      <point x="50" y="45" type="line"/>
      <point x="50" y="0" type="line"/>
    </contour>
    <contour>
      <point x="400" y="356" type="line"/>
      <point x="400" y="401" type="line"/>
      <point x="50" y="401" type="line"/>
      <point x="50" y="356" type="line"/>
    </contour>
  </outline>
</glyph>
<glyph name="currency" format="2">
  <advance width="584"/>
  <unicode hex="00A4"/>
  <outline>
    <contour>
      <point x="171" y="117" type="line"/>
      <point x="208" y="88"/>
      <point x="254" y="75"/>
      <point x="292" y="75" type="curve" smooth="yes"/>
      <point x="330" y="75"/>
      <point x="374" y="87"/>
      <point x="413" y="117" type="curve"/>
      <point x="487" y="43" type="line"/>
      <point x="518" y="75" type="line"/>
      <point x="445" y="149" type="line"/>
      <point x="472" y="185"/>
      <point x="486" y="226"/>
      <point x="486" y="269" type="curve" smooth="yes"/>
      <point x="486" y="310"/>
      <point x="472" y="352"/>
      <point x="445" y="390" type="curve"/>
      <point x="518" y="465" type="line"/>
      <point x="487" y="495" type="line"/>
      <point x="413" y="421" type="line"/>
      <point x="378" y="447"/>
      <point x="335" y="465"/>
      <point x="292" y="465" type="curve" smooth="yes"/>
      <point x="251" y="465"/>
      <point x="205" y="447"/>
      <point x="171" y="421" type="curve"/>
      <point x="97" y="495" type="line"/>
      <point x="66" y="465" type="line"/>
      <point x="140" y="390" type="line"/>
      <point x="112" y="352"/>
      <point x="98" y="310"/>
      <point x="98" y="269" type="curve" smooth="yes"/>
      <point x="98" y="227"/>
      <point x="112" y="185"/>
      <point x="140" y="149" type="curve"/>
      <point x="66" y="75" type="line"/>
      <point x="97" y="43" type="line"/>
    </contour>
    <contour>
      <point x="292" y="123" type="curve" smooth="yes"/>
      <point x="212" y="123"/>
      <point x="143" y="189"/>
      <point x="143" y="269" type="curve" smooth="yes"/>
      <point x="143" y="349"/>
      <point x="212" y="416"/>
      <point x="292" y="416" type="curve" smooth="yes"/>
      <point x="373" y="416"/>
      <point x="440" y="349"/>
      <point x="440" y="269" type="curve" smooth="yes"/>
      <point x="440" y="189"/>
      <point x="373" y="123"/>
    </contour>
  </outline>
</glyph>
<glyph name="yen" format="2">
  <advance width="624"/>
  <unicode hex="00A5"/>
  <outline>
    <contour>
      <point x="337" y="0" type="line"/>
      <point x="337" y="333" type="line"/>
      <point x="602" y="745" type="line"/>
      <point x="545" y="745" type="line"/>
      <point x="300" y="369" type="line"/>
      <point x="326" y="369" type="line"/>
      <point x="79" y="745" type="line"/>
      <point x="22" y="745" type="line"/>
      <point x="287" y="333" type="line"/>
      <point x="287" y="0" type="line"/>
    </contour>
    <contour>
      <point x="487" y="308" type="line"/>
      <point x="487" y="353" type="line"/>
      <point x="137" y="353" type="line"/>
      <point x="137" y="308" type="line"/>
    </contour>
    <contour>
      <point x="487" y="153" type="line"/>
      <point x="487" y="198" type="line"/>
      <point x="137" y="198" type="line"/>
      <point x="137" y="153" type="line"/>
    </contour>
  </outline>
</glyph>
<glyph name="brokenbar" format="2">
  <advance width="270"/>
  <unicode hex="00A6"/>
  <outline>
    <contour>
      <point x="160" y="428" type="line"/>
      <point x="160" y="845" type="line"/>
      <point x="110" y="845" type="line"/>
      <point x="110" y="428" type="line"/>
    </contour>
    <contour>
      <point x="160" y="-190" type="line"/>
      <point x="160" y="228" type="line"/>
      <point x="110" y="228" type="line"/>
      <point x="110" y="-190" type="line"/>
    </contour>
  </outline>
</glyph>
<glyph name="section" format="2">
  <advance width="546"/>
  <unicode hex="00A7"/>
  <outline>
    <contour>
      <point x="273" y="-90" type="curve" smooth="yes"/>
      <point x="381" y="-90"/>
      <point x="460" y="-24"/>
      <point x="460" y="65" type="curve" smooth="yes"/>
      <point x="460" y="136"/>
      <point x="408" y="193"/>
      <point x="318" y="218" type="curve" smooth="yes"/>
      <point x="225" y="244" type="line" smooth="yes"/>
      <point x="163" y="261"/>
      <point x="131" y="298"/>
      <point x="131" y="341" type="curve" smooth="yes"/>
      <point x="131" y="407"/>
      <point x="183" y="456"/>
      <point x="254" y="456" type="curve"/>
      <point x="254" y="491" type="line"/>
      <point x="158" y="491"/>
      <point x="83" y="428"/>
      <point x="83" y="340" type="curve" smooth="yes"/>
      <point x="83" y="271"/>
      <point x="129" y="219"/>
      <point x="218" y="194" type="curve" smooth="yes"/>
      <point x="310" y="168" type="line" smooth="yes"/>
      <point x="377" y="149"/>
      <point x="411" y="113"/>
      <point x="411" y="63" type="curve" smooth="yes"/>
      <point x="411" y="-1"/>
      <point x="352" y="-45"/>
      <point x="276" y="-45" type="curve" smooth="yes"/>
      <point x="204" y="-45"/>
      <point x="135" y="-6"/>
      <point x="99" y="67" type="curve"/>
      <point x="55" y="47" type="line"/>
      <point x="90" y="-34"/>
      <point x="174" y="-90"/>
    </contour>
    <contour>
      <point x="291" y="176" type="line"/>
      <point x="397" y="176"/>
      <point x="480" y="242"/>
      <point x="480" y="331" type="curve" smooth="yes"/>
      <point x="480" y="402"/>
      <point x="428" y="459"/>
      <point x="338" y="484" type="curve" smooth="yes"/>
      <point x="245" y="510" type="line" smooth="yes"/>
      <point x="183" y="527"/>
      <point x="151" y="564"/>
      <point x="151" y="607" type="curve" smooth="yes"/>
      <point x="151" y="667"/>
      <point x="203" y="712"/>
      <point x="274" y="712" type="curve" smooth="yes"/>
      <point x="339" y="712"/>
      <point x="396" y="675"/>
      <point x="427" y="612" type="curve"/>
      <point x="473" y="633" type="line"/>
      <point x="444" y="706"/>
      <point x="363" y="757"/>
      <point x="275" y="757" type="curve" smooth="yes"/>
      <point x="177" y="757"/>
      <point x="103" y="693"/>
      <point x="103" y="606" type="curve" smooth="yes"/>
      <point x="103" y="537"/>
      <point x="149" y="485"/>
      <point x="238" y="460" type="curve" smooth="yes"/>
      <point x="330" y="434" type="line" smooth="yes"/>
      <point x="397" y="415"/>
      <point x="431" y="379"/>
      <point x="431" y="329" type="curve" smooth="yes"/>
      <point x="431" y="259"/>
      <point x="370" y="211"/>
      <point x="291" y="211" type="curve"/>
    </contour>
  </outline>
</glyph>
<glyph name="copyright" format="2">
  <advance width="895"/>
  <unicode hex="00A9"/>
  <outline>
    <contour>
      <point x="448" y="-12" type="curve" smooth="yes"/>
      <point x="659" y="-12"/>
      <point x="832" y="158"/>
      <point x="832" y="373" type="curve" smooth="yes"/>
      <point x="832" y="584"/>
      <point x="661" y="757"/>
      <point x="448" y="757" type="curve" smooth="yes"/>
      <point x="233" y="757"/>
      <point x="63" y="584"/>
      <point x="63" y="373" type="curve" smooth="yes"/>
      <point x="63" y="159"/>
      <point x="234" y="-12"/>
    </contour>
    <contour>
      <point x="448" y="36" type="curve" smooth="yes"/>
      <point x="260" y="36"/>
      <point x="113" y="185"/>
      <point x="113" y="373" type="curve" smooth="yes"/>
      <point x="113" y="559"/>
      <point x="260" y="709"/>
      <point x="448" y="709" type="curve" smooth="yes"/>
      <point x="635" y="709"/>
      <point x="782" y="558"/>
      <point x="782" y="373" type="curve" smooth="yes"/>
      <point x="782" y="185"/>
      <point x="634" y="36"/>
    </contour>
    <contour>
      <point x="451" y="163" type="curve" smooth="yes"/>
      <point x="534" y="163"/>
      <point x="596" y="214"/>
      <point x="616" y="265" type="curve"/>
      <point x="572" y="286" type="line"/>
      <point x="552" y="242"/>
      <point x="511" y="209"/>
      <point x="451" y="209" type="curve" smooth="yes"/>
      <point x="364" y="209"/>
      <point x="304" y="276"/>
      <point x="304" y="373" type="curve" smooth="yes"/>
      <point x="304" y="469"/>
      <point x="364" y="536"/>
      <point x="451" y="536" type="curve" smooth="yes"/>
      <point x="509" y="536"/>
      <point x="553" y="503"/>
      <point x="572" y="459" type="curve"/>
      <point x="616" y="480" type="line"/>
      <point x="596" y="531"/>
      <point x="534" y="582"/>
      <point x="451" y="582" type="curve" smooth="yes"/>
      <point x="339" y="582"/>
      <point x="254" y="494"/>
      <point x="254" y="373" type="curve" smooth="yes"/>
      <point x="254" y="252"/>
      <point x="339" y="163"/>
    </contour>
  </outline>
</glyph>
<glyph name="ordfeminine" format="2">
  <advance width="456"/>
  <unicode hex="00AA"/>
  <outline>
    <contour>
      <point x="188" y="367" type="curve" smooth="yes"/>
      <point x="254" y="367"/>
      <point x="311" y="404"/>
      <point x="330" y="449" type="curve"/>
      <point x="325" y="452" type="line"/>
      <point x="325" y="375" type="line"/>
      <point x="368" y="375" type="line"/>
      <point x="368" y="631" type="line" smooth="yes"/>
      <point x="368" y="703"/>
      <point x="311" y="755"/>
      <point x="229" y="755" type="curve" smooth="yes"/>
      <point x="166" y="755"/>
      <point x="107" y="718"/>
      <point x="85" y="673" type="curve"/>
      <point x="124" y="651" type="line"/>
      <point x="143" y="689"/>
      <point x="184" y="714"/>
      <point x="229" y="714" type="curve" smooth="yes"/>
      <point x="286" y="714"/>
      <point x="325" y="680"/>
      <point x="325" y="631" type="curve" smooth="yes"/>
      <point x="325" y="539" type="line" smooth="yes"/>
      <point x="325" y="467"/>
      <point x="272" y="405"/>
      <point x="191" y="405" type="curve" smooth="yes"/>
      <point x="147" y="405"/>
      <point x="112" y="433"/>
      <point x="112" y="473" type="curve" smooth="yes"/>
      <point x="112" y="510"/>
      <point x="134" y="539"/>
      <point x="198" y="550" type="curve" smooth="yes"/>
      <point x="336" y="573" type="line"/>
      <point x="336" y="613" type="line"/>
      <point x="187" y="588" type="line" smooth="yes"/>
      <point x="100" y="573"/>
      <point x="66" y="524"/>
      <point x="66" y="471" type="curve" smooth="yes"/>
      <point x="66" y="409"/>
      <point x="120" y="367"/>
    </contour>
  </outline>
</glyph>
<glyph name="guillemetleft" format="2">
  <advance width="472"/>
  <unicode hex="00AB"/>
  <outline>
    <contour>
      <point x="227" y="83" type="line"/>
      <point x="80" y="269" type="line"/>
      <point x="227" y="455" type="line"/>
      <point x="180" y="455" type="line"/>
      <point x="29" y="269" type="line"/>
      <point x="180" y="83" type="line"/>
    </contour>
    <contour>
      <point x="443" y="83" type="line"/>
      <point x="296" y="269" type="line"/>
      <point x="443" y="455" type="line"/>
      <point x="396" y="455" type="line"/>
      <point x="245" y="269" type="line"/>
      <point x="396" y="83" type="line"/>
    </contour>
  </outline>
</glyph>
<glyph name="logicalnot" format="2">
  <advance width="596"/>
  <unicode hex="00AC"/>
  <outline>
    <contour>
      <point x="548" y="40" type="line"/>
      <point x="548" y="273" type="line"/>
      <point x="48" y="273" type="line"/>
      <point x="48" y="228" type="line"/>
      <point x="503" y="228" type="line"/>
      <point x="503" y="40" type="line"/>
    </contour>
  </outline>
</glyph>
<glyph name="registered" format="2">
  <advance width="639"/>
  <unicode hex="00AE"/>
  <outline>
    <contour>
      <point x="320" y="272" type="curve" smooth="yes"/>
      <point x="460" y="272"/>
      <point x="576" y="386"/>
      <point x="576" y="528" type="curve" smooth="yes"/>
      <point x="576" y="668"/>
      <point x="461" y="784"/>
      <point x="320" y="784" type="curve" smooth="yes"/>
      <point x="176" y="784"/>
      <point x="63" y="668"/>
      <point x="63" y="528" type="curve" smooth="yes"/>
      <point x="63" y="386"/>
      <point x="178" y="272"/>
    </contour>
    <contour>
      <point x="320" y="315" type="curve" smooth="yes"/>
      <point x="200" y="315"/>
      <point x="107" y="410"/>
      <point x="107" y="528" type="curve" smooth="yes"/>
      <point x="107" y="645"/>
      <point x="200" y="740"/>
      <point x="320" y="740" type="curve" smooth="yes"/>
      <point x="437" y="740"/>
      <point x="532" y="645"/>
      <point x="532" y="528" type="curve" smooth="yes"/>
      <point x="532" y="410"/>
      <point x="437" y="315"/>
    </contour>
    <contour>
      <point x="275" y="394" type="line"/>
      <point x="275" y="495" type="line"/>
      <point x="328" y="495" type="line"/>
      <point x="385" y="394" type="line"/>
      <point x="435" y="394" type="line"/>
      <point x="372" y="501" type="line"/>
      <point x="408" y="516"/>
      <point x="423" y="547"/>
      <point x="423" y="579" type="curve" smooth="yes"/>
      <point x="423" y="632"/>
      <point x="384" y="664"/>
      <point x="331" y="664" type="curve" smooth="yes"/>
      <point x="231" y="664" type="line"/>
      <point x="231" y="394" type="line"/>
    </contour>
    <contour>
      <point x="275" y="624" type="line"/>
      <point x="331" y="624" type="line" smooth="yes"/>
      <point x="360" y="624"/>
      <point x="379" y="607"/>
      <point x="379" y="579" type="curve" smooth="yes"/>
      <point x="379" y="552"/>
      <point x="360" y="533"/>
      <point x="331" y="533" type="curve" smooth="yes"/>
      <point x="275" y="533" type="line"/>
    </contour>
  </outline>
</glyph>
<glyph name="degree" format="2">
  <advance width="440"/>
  <unicode hex="00B0"/>
  <outline>
    <contour>
      <point x="220" y="486" type="curve" smooth="yes"/>
      <point x="298" y="486"/>
      <point x="355" y="544"/>
      <point x="355" y="620" type="curve" smooth="yes"/>
      <point x="355" y="697"/>
      <point x="297" y="757"/>
      <point x="220" y="757" type="curve" smooth="yes"/>
      <point x="143" y="757"/>
      <point x="85" y="698"/>
      <point x="85" y="621" type="curve" smooth="yes"/>
      <point x="85" y="543"/>
      <point x="143" y="486"/>
    </contour>
    <contour>
      <point x="220" y="524" type="curve" smooth="yes"/>
      <point x="169" y="524"/>
      <point x="124" y="562"/>
      <point x="124" y="621" type="curve" smooth="yes"/>
      <point x="124" y="681"/>
      <point x="170" y="718"/>
      <point x="220" y="718" type="curve" smooth="yes"/>
      <point x="268" y="718"/>
      <point x="316" y="680"/>
      <point x="316" y="621" type="curve" smooth="yes"/>
      <point x="316" y="562"/>
      <point x="268" y="524"/>
    </contour>
  </outline>
</glyph>
<glyph name="plusminus" format="2">
  <advance width="596"/>
  <unicode hex="00B1"/>
  <outline>
    <contour>
      <point x="321" y="145" type="line"/>
      <point x="321" y="343" type="line"/>
      <point x="548" y="343" type="line"/>
      <point x="548" y="388" type="line"/>
      <point x="321" y="388" type="line"/>
      <point x="321" y="585" type="line"/>
      <point x="276" y="585" type="line"/>
      <point x="276" y="388" type="line"/>
      <point x="48" y="388" type="line"/>
      <point x="48" y="343" type="line"/>
      <point x="276" y="343" type="line"/>
      <point x="276" y="145" type="line"/>
    </contour>
    <contour>
      <point x="548" y="0" type="line"/>
      <point x="548" y="45" type="line"/>
      <point x="48" y="45" type="line"/>
      <point x="48" y="0" type="line"/>
    </contour>
  </outline>
</glyph>
<glyph name="micro" format="2">
  <advance width="570"/>
  <unicode hex="00B5"/>
  <outline>
    <contour>
      <point x="122" y="-140" type="line"/>
      <point x="122" y="91" type="line"/>
      <point x="108" y="75" type="line"/>
      <point x="143" y="18"/>
      <point x="207" y="-12"/>
      <point x="275" y="-12" type="curve" smooth="yes"/>
      <point x="357" y="-12"/>
      <point x="423" y="32"/>
      <point x="446" y="98" type="curve"/>
      <point x="437" y="113" type="line"/>
      <point x="437" y="0" type="line"/>
      <point x="482" y="0" type="line"/>
      <point x="482" y="526" type="line"/>
      <point x="437" y="526" type="line"/>
      <point x="437" y="206" type="line" smooth="yes"/>
      <point x="437" y="109"/>
      <point x="381" y="31"/>
      <point x="279" y="31" type="curve" smooth="yes"/>
      <point x="194" y="31"/>
      <point x="122" y="85"/>
      <point x="122" y="186" type="curve" smooth="yes"/>
      <point x="122" y="526" type="line"/>
      <point x="77" y="526" type="line"/>
      <point x="77" y="-140" type="line"/>
    </contour>
  </outline>
</glyph>
<glyph name="paragraph" format="2">
  <advance width="358"/>
  <unicode hex="00B6"/>
  <outline>
    <contour>
      <point x="248" y="-100" type="line"/>
      <point x="248" y="745" type="line"/>
      <point x="198" y="745" type="line" smooth="yes"/>
      <point x="106" y="745"/>
      <point x="48" y="687"/>
      <point x="48" y="599" type="curve" smooth="yes"/>
      <point x="48" y="511"/>
      <point x="108" y="453"/>
      <point x="198" y="453" type="curve"/>
      <point x="198" y="-100" type="line"/>
    </contour>
  </outline>
</glyph>
<glyph name="periodcentered" format="2">
  <advance width="261"/>
  <unicode hex="00B7"/>
  <outline>
    <contour>
      <point x="158" y="226" type="line"/>
      <point x="158" y="316" type="line"/>
      <point x="103" y="316" type="line"/>
      <point x="103" y="226" type="line"/>
    </contour>
  </outline>
</glyph>
<glyph name="ordmasculine" format="2">
  <advance width="509"/>
  <unicode hex="00BA"/>
  <outline>
    <contour>
      <point x="255" y="367" type="curve" smooth="yes"/>
      <point x="360" y="367"/>
      <point x="443" y="449"/>
      <point x="443" y="561" type="curve" smooth="yes"/>
      <point x="443" y="672"/>
      <point x="361" y="755"/>
      <point x="255" y="755" type="curve" smooth="yes"/>
      <point x="148" y="755"/>
      <point x="66" y="672"/>
      <point x="66" y="561" type="curve" smooth="yes"/>
      <point x="66" y="450"/>
      <point x="149" y="367"/>
    </contour>
    <contour>
      <point x="255" y="409" type="curve" smooth="yes"/>
      <point x="175" y="409"/>
      <point x="112" y="476"/>
      <point x="112" y="561" type="curve" smooth="yes"/>
      <point x="112" y="647"/>
      <point x="175" y="713"/>
      <point x="255" y="713" type="curve" smooth="yes"/>
      <point x="334" y="713"/>
      <point x="397" y="647"/>
      <point x="397" y="561" type="curve" smooth="yes"/>
      <point x="397" y="475"/>
      <point x="333" y="409"/>
    </contour>
  </outline>
</glyph>
<glyph name="guillemetright" format="2">
  <advance width="472"/>
  <unicode hex="00BB"/>
  <outline>
    <contour>
      <point x="292" y="83" type="line"/>
      <point x="443" y="269" type="line"/>
      <point x="292" y="455" type="line"/>
      <point x="245" y="455" type="line"/>
      <point x="392" y="269" type="line"/>
      <point x="245" y="83" type="line"/>
    </contour>
    <contour>
      <point x="76" y="83" type="line"/>
      <point x="227" y="269" type="line"/>
      <point x="76" y="455" type="line"/>
      <point x="29" y="455" type="line"/>
      <point x="176" y="269" type="line"/>
      <point x="29" y="83" type="line"/>
    </contour>
  </outline>
</glyph>
<glyph name="questiondown" format="2">
  <advance width="474"/>
  <unicode hex="00BF"/>
  <outline>
    <contour>
      <point x="230" y="-231" type="curve" smooth="yes"/>
      <point x="336" y="-231"/>
      <point x="420" y="-162"/>
      <point x="439" y="-50" type="curve"/>
      <point x="395" y="-41" type="line"/>
      <point x="375" y="-133"/>
      <point x="314" y="-187"/>
      <point x="230" y="-187" type="curve" smooth="yes"/>
      <point x="144" y="-187"/>
      <point x="94" y="-127"/>
      <point x="94" y="-66" type="curve" smooth="yes"/>
      <point x="94" y="9"/>
      <point x="145" y="61"/>
      <point x="200" y="113" type="curve" smooth="yes"/>
      <point x="259" y="167"/>
      <point x="314" y="222"/>
      <point x="314" y="314" type="curve" smooth="yes"/>
      <point x="314" y="318" type="line"/>
      <point x="269" y="318" type="line"/>
      <point x="269" y="314" type="line" smooth="yes"/>
      <point x="269" y="248"/>
      <point x="226" y="200"/>
      <point x="179" y="152" type="curve" smooth="yes"/>
      <point x="117" y="90"/>
      <point x="44" y="32"/>
      <point x="44" y="-64" type="curve" smooth="yes"/>
      <point x="44" y="-155"/>
      <point x="125" y="-231"/>
    </contour>
    <contour>
      <point x="318" y="436" type="line"/>
      <point x="318" y="526" type="line"/>
      <point x="263" y="526" type="line"/>
      <point x="263" y="436" type="line"/>
    </contour>
  </outline>
</glyph>
<glyph name="AE" format="2">
  <advance width="987"/>
  <unicode hex="00C6"/>
  <anchor x="494" y="0" name="bottom"/>
  <anchor x="494" y="745" name="top"/>
  <outline>
    <contour>
      <point x="77" y="0" type="line"/>
      <point x="149" y="197" type="line"/>
      <point x="472" y="197" type="line"/>
      <point x="472" y="0" type="line"/>
      <point x="932" y="0" type="line"/>
      <point x="932" y="45" type="line"/>
      <point x="522" y="45" type="line"/>
      <point x="522" y="351" type="line"/>
      <point x="912" y="351" type="line"/>
      <point x="912" y="396" type="line"/>
      <point x="522" y="396" type="line"/>
      <point x="522" y="700" type="line"/>
      <point x="932" y="700" type="line"/>
      <point x="932" y="745" type="line"/>
      <point x="298" y="745" type="line"/>
      <point x="22" y="0" type="line"/>
    </contour>
    <contour>
      <point x="333" y="700" type="line"/>
      <point x="472" y="700" type="line"/>
      <point x="472" y="242" type="line"/>
      <point x="165" y="242" type="line"/>
    </contour>
  </outline>
</glyph>
<glyph name="multiply" format="2">
  <advance width="596"/>
  <unicode hex="00D7"/>
  <outline>
    <contour>
      <point x="298" y="175" type="line"/>
      <point x="473" y="0" type="line"/>
      <point x="505" y="31" type="line"/>
      <point x="330" y="207" type="line"/>
      <point x="504" y="381" type="line"/>
      <point x="473" y="413" type="line"/>
      <point x="298" y="239" type="line"/>
      <point x="123" y="413" type="line"/>
      <point x="92" y="381" type="line"/>
      <point x="266" y="207" type="line"/>
      <point x="91" y="31" type="line"/>
      <point x="123" y="0" type="line"/>
    </contour>
  </outline>
</glyph>
<glyph name="Thorn" format="2">
  <advance width="635"/>
  <unicode hex="00DE"/>
  <outline>
    <contour>
      <point x="145" y="0" type="line"/>
      <point x="145" y="150" type="line"/>
      <point x="339" y="150" type="line" smooth="yes"/>
      <point x="479" y="150"/>
      <point x="575" y="240"/>
      <point x="575" y="372" type="curve" smooth="yes"/>
      <point x="575" y="504"/>
      <point x="478" y="595"/>
      <point x="339" y="595" type="curve" smooth="yes"/>
      <point x="145" y="595" type="line"/>
      <point x="145" y="745" type="line"/>
      <point x="95" y="745" type="line"/>
      <point x="95" y="0" type="line"/>
    </contour>
    <contour>
      <point x="145" y="550" type="line"/>
      <point x="339" y="550" type="line" smooth="yes"/>
      <point x="449" y="550"/>
      <point x="525" y="478"/>
      <point x="525" y="373" type="curve" smooth="yes"/>
      <point x="525" y="268"/>
      <point x="448" y="195"/>
      <point x="339" y="195" type="curve" smooth="yes"/>
      <point x="145" y="195" type="line"/>
    </contour>
  </outline>
</glyph>
<glyph name="germandbls" format="2">
  <advance width="605"/>
  <unicode hex="00DF"/>
  <outline>
    <contour>
      <point x="145" y="-140" type="line"/>
      <point x="145" y="551" type="line" smooth="yes"/>
      <point x="145" y="649"/>
      <point x="215" y="712"/>
      <point x="305" y="712" type="curve" smooth="yes"/>
      <point x="395" y="712"/>
      <point x="457" y="649"/>
      <point x="457" y="565" type="curve" smooth="yes"/>
      <point x="457" y="474"/>
      <point x="388" y="417"/>
      <point x="300" y="417" type="curve" smooth="yes"/>
      <point x="245" y="417" type="line"/>
      <point x="245" y="372" type="line"/>
      <point x="307" y="372" type="line" smooth="yes"/>
      <point x="415" y="372"/>
      <point x="488" y="306"/>
      <point x="488" y="208" type="curve" smooth="yes"/>
      <point x="488" y="110"/>
      <point x="416" y="45"/>
      <point x="314" y="45" type="curve" smooth="yes"/>
      <point x="245" y="45" type="line"/>
      <point x="245" y="0" type="line"/>
      <point x="314" y="0" type="line" smooth="yes"/>
      <point x="443" y="0"/>
      <point x="539" y="82"/>
      <point x="539" y="209" type="curve" smooth="yes"/>
      <point x="539" y="310"/>
      <point x="479" y="376"/>
      <point x="366" y="405" type="curve"/>
      <point x="369" y="387" type="line"/>
      <point x="456" y="419"/>
      <point x="508" y="473"/>
      <point x="508" y="565" type="curve" smooth="yes"/>
      <point x="508" y="683"/>
      <point x="418" y="757"/>
      <point x="307" y="757" type="curve" smooth="yes"/>
      <point x="191" y="757"/>
      <point x="99" y="676"/>
      <point x="99" y="551" type="curve" smooth="yes"/>
      <point x="99" y="-140" type="line"/>
    </contour>
  </outline>
</glyph>
<glyph name="ae" format="2">
  <advance width="1002"/>
  <unicode hex="00E6"/>
  <anchor x="501" y="0" name="bottom"/>
  <anchor x="501" y="526" name="top"/>
  <outline>
    <contour>
      <point x="237" y="-12" type="curve" smooth="yes"/>
      <point x="342" y="-12"/>
      <point x="424" y="53"/>
      <point x="448" y="122" type="curve"/>
      <point x="440" y="140" type="line"/>
      <point x="440" y="0" type="line"/>
      <point x="486" y="0" type="line"/>
      <point x="486" y="143" type="line"/>
      <point x="474" y="128" type="line"/>
      <point x="518" y="43"/>
      <point x="604" y="-12"/>
      <point x="706" y="-12" type="curve" smooth="yes"/>
      <point x="800" y="-12"/>
      <point x="882" y="36"/>
      <point x="921" y="113" type="curve"/>
      <point x="883" y="133" type="line"/>
      <point x="846" y="68"/>
      <point x="782" y="30"/>
      <point x="706" y="30" type="curve" smooth="yes"/>
      <point x="584" y="30"/>
      <point x="493" y="123"/>
      <point x="486" y="249" type="curve"/>
      <point x="933" y="249" type="line"/>
      <point x="935" y="264"/>
      <point x="936" y="275"/>
      <point x="936" y="288" type="curve" smooth="yes"/>
      <point x="936" y="430"/>
      <point x="833" y="538"/>
      <point x="696" y="538" type="curve" smooth="yes"/>
      <point x="594" y="538"/>
      <point x="510" y="480"/>
      <point x="469" y="390" type="curve"/>
      <point x="485" y="389" type="line"/>
      <point x="473" y="478"/>
      <point x="397" y="538"/>
      <point x="293" y="538" type="curve" smooth="yes"/>
      <point x="199" y="538"/>
      <point x="122" y="484"/>
      <point x="92" y="425" type="curve"/>
      <point x="132" y="404" type="line"/>
      <point x="164" y="459"/>
      <point x="225" y="495"/>
      <point x="293" y="495" type="curve" smooth="yes"/>
      <point x="382" y="495"/>
      <point x="440" y="444"/>
      <point x="440" y="365" type="curve" smooth="yes"/>
      <point x="440" y="333" type="line"/>
      <point x="237" y="299" type="line" smooth="yes"/>
      <point x="110" y="278"/>
      <point x="66" y="208"/>
      <point x="66" y="136" type="curve" smooth="yes"/>
      <point x="66" y="47"/>
      <point x="141" y="-12"/>
    </contour>
    <contour>
      <point x="241" y="30" type="curve" smooth="yes"/>
      <point x="168" y="30"/>
      <point x="112" y="71"/>
      <point x="112" y="138" type="curve" smooth="yes"/>
      <point x="112" y="194"/>
      <point x="148" y="242"/>
      <point x="252" y="259" type="curve" smooth="yes"/>
      <point x="440" y="290" type="line"/>
      <point x="440" y="238" type="line" smooth="yes"/>
      <point x="440" y="127"/>
      <point x="362" y="30"/>
    </contour>
    <contour>
      <point x="487" y="289" type="line"/>
      <point x="498" y="407"/>
      <point x="586" y="496"/>
      <point x="696" y="496" type="curve" smooth="yes"/>
      <point x="806" y="496"/>
      <point x="890" y="406"/>
      <point x="890" y="289" type="curve"/>
    </contour>
  </outline>
</glyph>
<glyph name="eth" format="2">
  <advance width="664"/>
  <unicode hex="00F0"/>
  <outline>
    <contour>
      <point x="335" y="-12" type="curve" smooth="yes"/>
      <point x="482" y="-12"/>
      <point x="598" y="93"/>
      <point x="598" y="301" type="curve" smooth="yes"/>
      <point x="598" y="532"/>
      <point x="455" y="796"/>
      <point x="196" y="796" type="curve" smooth="yes"/>
      <point x="157" y="796"/>
      <point x="118" y="790"/>
      <point x="78" y="778" type="curve"/>
      <point x="91" y="736" type="line"/>
      <point x="127" y="748"/>
      <point x="160" y="753"/>
      <point x="191" y="753" type="curve" smooth="yes"/>
      <point x="399" y="753"/>
      <point x="548" y="527"/>
      <point x="548" y="348" type="curve"/>
      <point x="568" y="364" type="line"/>
      <point x="518" y="488"/>
      <point x="422" y="528"/>
      <point x="332" y="528" type="curve" smooth="yes"/>
      <point x="177" y="528"/>
      <point x="66" y="411"/>
      <point x="66" y="259" type="curve" smooth="yes"/>
      <point x="66" y="106"/>
      <point x="179" y="-12"/>
    </contour>
    <contour>
      <point x="331" y="31" type="curve" smooth="yes"/>
      <point x="212" y="31"/>
      <point x="114" y="129"/>
      <point x="114" y="259" type="curve" smooth="yes"/>
      <point x="114" y="385"/>
      <point x="205" y="485"/>
      <point x="331" y="485" type="curve" smooth="yes"/>
      <point x="457" y="485"/>
      <point x="548" y="385"/>
      <point x="548" y="260" type="curve" smooth="yes"/>
      <point x="548" y="132"/>
      <point x="453" y="31"/>
    </contour>
    <contour>
      <point x="527" y="684" type="line"/>
      <point x="527" y="727" type="line"/>
      <point x="251" y="630" type="line"/>
      <point x="251" y="588" type="line"/>
    </contour>
  </outline>
</glyph>
<glyph name="divide" format="2">
  <advance width="596"/>
  <unicode hex="00F7"/>
  <outline>
    <contour>
      <point x="548" y="228" type="line"/>
      <point x="548" y="273" type="line"/>
      <point x="48" y="273" type="line"/>
      <point x="48" y="228" type="line"/>
    </contour>
    <contour>
      <point x="326" y="0" type="line"/>
      <point x="326" y="78" type="line"/>
      <point x="271" y="78" type="line"/>
      <point x="271" y="0" type="line"/>
    </contour>
    <contour>
      <point x="326" y="422" type="line"/>
      <point x="326" y="500" type="line"/>
      <point x="271" y="500" type="line"/>
      <point x="271" y="422" type="line"/>
    </contour>
  </outline>
</glyph>
<glyph name="idotless" format="2">
  <advance width="185"/>
  <unicode hex="0131"/>
  <anchor x="92" y="0" name="bottom"/>
  <anchor x="103" y="0" name="ogonek"/>
  <anchor x="92" y="526" name="top"/>
  <outline>
    <contour>
      <point x="115" y="0" type="line"/>
      <point x="115" y="526" type="line"/>
      <point x="70" y="526" type="line"/>
      <point x="70" y="0" type="line"/>
    </contour>
  </outline>
</glyph>
<glyph name="Eng" format="2">
  <advance width="738"/>
  <unicode hex="014A"/>
  <outline>
    <contour>
      <point x="483" y="-220" type="curve" smooth="yes"/>
      <point x="574" y="-220"/>
      <point x="639" y="-165"/>
      <point x="639" y="-62" type="curve" smooth="yes"/>
      <point x="639" y="745" type="line"/>
      <point x="589" y="745" type="line"/>
      <point x="589" y="65" type="line"/>
      <point x="610" y="71" type="line"/>
      <point x="139" y="745" type="line"/>
      <point x="99" y="745" type="line"/>
      <point x="99" y="0" type="line"/>
      <point x="149" y="0" type="line"/>
      <point x="149" y="680" type="line"/>
      <point x="128" y="674" type="line"/>
      <point x="610" y="-16" type="line"/>
      <point x="589" y="50" type="line"/>
      <point x="589" y="-62" type="line" smooth="yes"/>
      <point x="589" y="-137"/>
      <point x="549" y="-175"/>
      <point x="480" y="-175" type="curve" smooth="yes"/>
      <point x="469" y="-175"/>
      <point x="455" y="-174"/>
      <point x="444" y="-172" type="curve"/>
      <point x="444" y="-215" type="line"/>
      <point x="454" y="-218"/>
      <point x="467" y="-220"/>
    </contour>
  </outline>
</glyph>
<glyph name="eng" format="2">
  <advance width="600"/>
  <unicode hex="014B"/>
  <outline>
    <contour>
      <point x="331" y="-220" type="curve" smooth="yes"/>
      <point x="422" y="-220"/>
      <point x="482" y="-165"/>
      <point x="482" y="-62" type="curve" smooth="yes"/>
      <point x="482" y="345" type="line" smooth="yes"/>
      <point x="482" y="461"/>
      <point x="390" y="538"/>
      <point x="284" y="538" type="curve" smooth="yes"/>
      <point x="200" y="538"/>
      <point x="131" y="490"/>
      <point x="110" y="420" type="curve"/>
      <point x="122" y="415" type="line"/>
      <point x="122" y="526" type="line"/>
      <point x="77" y="526" type="line"/>
      <point x="77" y="0" type="line"/>
      <point x="122" y="0" type="line"/>
      <point x="122" y="320" type="line" smooth="yes"/>
      <point x="122" y="417"/>
      <point x="180" y="495"/>
      <point x="280" y="495" type="curve" smooth="yes"/>
      <point x="367" y="495"/>
      <point x="437" y="435"/>
      <point x="437" y="340" type="curve" smooth="yes"/>
      <point x="437" y="-62" type="line" smooth="yes"/>
      <point x="437" y="-137"/>
      <point x="397" y="-177"/>
      <point x="328" y="-177" type="curve" smooth="yes"/>
      <point x="317" y="-177"/>
      <point x="303" y="-176"/>
      <point x="292" y="-174" type="curve"/>
      <point x="292" y="-215" type="line"/>
      <point x="302" y="-218"/>
      <point x="315" y="-220"/>
    </contour>
  </outline>
</glyph>
<glyph name="OE" format="2">
  <advance width="1278"/>
  <unicode hex="0152"/>
  <outline>
    <contour>
      <point x="442" y="-12" type="curve" smooth="yes"/>
      <point x="588" y="-12"/>
      <point x="716" y="72"/>
      <point x="774" y="207" type="curve"/>
      <point x="763" y="220" type="line"/>
      <point x="763" y="0" type="line"/>
      <point x="1223" y="0" type="line"/>
      <point x="1223" y="45" type="line"/>
      <point x="813" y="45" type="line"/>
      <point x="813" y="351" type="line"/>
      <point x="1203" y="351" type="line"/>
      <point x="1203" y="396" type="line"/>
      <point x="813" y="396" type="line"/>
      <point x="813" y="700" type="line"/>
      <point x="1223" y="700" type="line"/>
      <point x="1223" y="745" type="line"/>
      <point x="763" y="745" type="line"/>
      <point x="763" y="525" type="line"/>
      <point x="774" y="538" type="line"/>
      <point x="716" y="673"/>
      <point x="588" y="757"/>
      <point x="442" y="757" type="curve" smooth="yes"/>
      <point x="242" y="757"/>
      <point x="77" y="599"/>
      <point x="77" y="373" type="curve" smooth="yes"/>
      <point x="77" y="147"/>
      <point x="241" y="-12"/>
    </contour>
    <contour>
      <point x="442" y="36" type="curve" smooth="yes"/>
      <point x="255" y="36"/>
      <point x="127" y="191"/>
      <point x="127" y="373" type="curve" smooth="yes"/>
      <point x="127" y="552"/>
      <point x="254" y="709"/>
      <point x="442" y="709" type="curve" smooth="yes"/>
      <point x="631" y="709"/>
      <point x="757" y="552"/>
      <point x="757" y="373" type="curve" smooth="yes"/>
      <point x="757" y="191"/>
      <point x="629" y="36"/>
    </contour>
  </outline>
</glyph>
<glyph name="oe" format="2">
  <advance width="1113"/>
  <unicode hex="0153"/>
  <outline>
    <contour>
      <point x="331" y="-12" type="curve" smooth="yes"/>
      <point x="452" y="-12"/>
      <point x="548" y="63"/>
      <point x="582" y="173" type="curve"/>
      <point x="565" y="173" type="line"/>
      <point x="601" y="63"/>
      <point x="697" y="-12"/>
      <point x="817" y="-12" type="curve" smooth="yes"/>
      <point x="911" y="-12"/>
      <point x="993" y="36"/>
      <point x="1032" y="113" type="curve"/>
      <point x="994" y="133" type="line"/>
      <point x="957" y="68"/>
      <point x="893" y="30"/>
      <point x="817" y="30" type="curve" smooth="yes"/>
      <point x="695" y="30"/>
      <point x="604" y="123"/>
      <point x="597" y="249" type="curve"/>
      <point x="1044" y="249" type="line"/>
      <point x="1046" y="264"/>
      <point x="1047" y="275"/>
      <point x="1047" y="288" type="curve" smooth="yes"/>
      <point x="1047" y="430"/>
      <point x="944" y="538"/>
      <point x="807" y="538" type="curve" smooth="yes"/>
      <point x="693" y="538"/>
      <point x="599" y="463"/>
      <point x="566" y="353" type="curve"/>
      <point x="582" y="354" type="line"/>
      <point x="548" y="464"/>
      <point x="451" y="538"/>
      <point x="331" y="538" type="curve" smooth="yes"/>
      <point x="180" y="538"/>
      <point x="66" y="420"/>
      <point x="66" y="263" type="curve" smooth="yes"/>
      <point x="66" y="106"/>
      <point x="180" y="-12"/>
    </contour>
    <contour>
      <point x="331" y="31" type="curve" smooth="yes"/>
      <point x="209" y="31"/>
      <point x="114" y="132"/>
      <point x="114" y="263" type="curve" smooth="yes"/>
      <point x="114" y="394"/>
      <point x="208" y="495"/>
      <point x="331" y="495" type="curve" smooth="yes"/>
      <point x="454" y="495"/>
      <point x="548" y="394"/>
      <point x="548" y="263" type="curve" smooth="yes"/>
      <point x="548" y="132"/>
      <point x="453" y="31"/>
    </contour>
    <contour>
      <point x="598" y="289" type="line"/>
      <point x="609" y="407"/>
      <point x="697" y="496"/>
      <point x="807" y="496" type="curve" smooth="yes"/>
      <point x="917" y="496"/>
      <point x="1001" y="406"/>
      <point x="1001" y="289" type="curve"/>
    </contour>
  </outline>
</glyph>
<glyph name="Schwa" format="2">
  <advance width="844"/>
  <unicode hex="018F"/>
  <outline>
    <contour>
      <point x="410" y="-12" type="curve" smooth="yes"/>
      <point x="611" y="-12"/>
      <point x="767" y="156"/>
      <point x="767" y="371" type="curve" smooth="yes"/>
      <point x="767" y="589"/>
      <point x="606" y="757"/>
      <point x="398" y="757" type="curve" smooth="yes"/>
      <point x="262" y="757"/>
      <point x="140" y="686"/>
      <point x="87" y="582" type="curve"/>
      <point x="128" y="560" type="line"/>
      <point x="181" y="652"/>
      <point x="283" y="709"/>
      <point x="398" y="709" type="curve" smooth="yes"/>
      <point x="581" y="709"/>
      <point x="717" y="564"/>
      <point x="717" y="373" type="curve" smooth="yes"/>
      <point x="717" y="184"/>
      <point x="580" y="36"/>
      <point x="409" y="36" type="curve" smooth="yes"/>
      <point x="248" y="36"/>
      <point x="126" y="167"/>
      <point x="126" y="343" type="curve" smooth="yes"/>
      <point x="126" y="346"/>
      <point x="126" y="351"/>
      <point x="126" y="354" type="curve"/>
      <point x="109" y="342" type="line"/>
      <point x="751" y="342" type="line"/>
      <point x="751" y="388" type="line"/>
      <point x="81" y="388" type="line"/>
      <point x="78" y="368"/>
      <point x="77" y="355"/>
      <point x="77" y="338" type="curve" smooth="yes"/>
      <point x="77" y="139"/>
      <point x="221" y="-12"/>
    </contour>
  </outline>
</glyph>
<glyph name="florin" format="2">
  <advance width="462"/>
  <unicode hex="0192"/>
  <outline>
    <contour>
      <point x="92" y="-12" type="curve" smooth="yes"/>
      <point x="189" y="-12"/>
      <point x="254" y="54"/>
      <point x="254" y="176" type="curve" smooth="yes"/>
      <point x="254" y="351" type="line"/>
      <point x="387" y="351" type="line"/>
      <point x="387" y="396" type="line"/>
      <point x="254" y="396" type="line"/>
      <point x="254" y="569" type="line" smooth="yes"/>
      <point x="254" y="664"/>
      <point x="299" y="714"/>
      <point x="374" y="714" type="curve" smooth="yes"/>
      <point x="385" y="714"/>
      <point x="399" y="713"/>
      <point x="410" y="711" type="curve"/>
      <point x="410" y="752" type="line"/>
      <point x="400" y="755"/>
      <point x="387" y="757"/>
      <point x="371" y="757" type="curve" smooth="yes"/>
      <point x="274" y="757"/>
      <point x="209" y="691"/>
      <point x="209" y="569" type="curve" smooth="yes"/>
      <point x="209" y="396" type="line"/>
      <point x="76" y="396" type="line"/>
      <point x="76" y="351" type="line"/>
      <point x="209" y="351" type="line"/>
      <point x="209" y="176" type="line" smooth="yes"/>
      <point x="209" y="81"/>
      <point x="164" y="31"/>
      <point x="89" y="31" type="curve" smooth="yes"/>
      <point x="78" y="31"/>
      <point x="64" y="32"/>
      <point x="53" y="34" type="curve"/>
      <point x="53" y="-7" type="line"/>
      <point x="63" y="-10"/>
      <point x="76" y="-12"/>
    </contour>
  </outline>
</glyph>
<glyph name="Ohorn" format="2">
  <advance width="884"/>
  <unicode hex="01A0"/>
  <anchor x="442" y="0" name="bottom"/>
  <anchor x="442" y="373" name="center"/>
  <anchor x="442" y="745" name="top"/>
  <outline>
    <contour>
      <point x="442" y="-12" type="curve" smooth="yes"/>
      <point x="643" y="-12"/>
      <point x="807" y="147"/>
      <point x="807" y="373" type="curve" smooth="yes"/>
      <point x="807" y="536"/>
      <point x="721" y="664"/>
      <point x="597" y="722" type="curve"/>
      <point x="588" y="716" type="line"/>
      <point x="658" y="716" type="line" smooth="yes"/>
      <point x="714" y="716"/>
      <point x="754" y="747"/>
      <point x="754" y="806" type="curve" smooth="yes"/>
      <point x="754" y="835"/>
      <point x="744" y="864"/>
      <point x="733" y="893" type="curve"/>
      <point x="688" y="893" type="line"/>
      <point x="698" y="866"/>
      <point x="708" y="840"/>
      <point x="708" y="812" type="curve" smooth="yes"/>
      <point x="708" y="773"/>
      <point x="687" y="757"/>
      <point x="655" y="757" type="curve" smooth="yes"/>
      <point x="442" y="757" type="line" smooth="yes"/>
      <point x="242" y="757"/>
      <point x="77" y="599"/>
      <point x="77" y="373" type="curve" smooth="yes"/>
      <point x="77" y="147"/>
      <point x="241" y="-12"/>
    </contour>
    <contour>
      <point x="442" y="36" type="curve" smooth="yes"/>
      <point x="255" y="36"/>
      <point x="127" y="191"/>
      <point x="127" y="373" type="curve" smooth="yes"/>
      <point x="127" y="552"/>
      <point x="254" y="709"/>
      <point x="442" y="709" type="curve" smooth="yes"/>
      <point x="631" y="709"/>
      <point x="757" y="552"/>
      <point x="757" y="373" type="curve" smooth="yes"/>
      <point x="757" y="191"/>
      <point x="629" y="36"/>
    </contour>
  </outline>
</glyph>
<glyph name="ohorn" format="2">
  <advance width="662"/>
  <unicode hex="01A1"/>
  <anchor x="331" y="0" name="bottom"/>
  <anchor x="331" y="263" name="center"/>
  <anchor x="381" y="30" name="ogonek"/>
  <anchor x="331" y="526" name="top"/>
  <anchor x="642" y="526" name="topright"/>
  <outline>
    <contour>
      <point x="331" y="-12" type="curve" smooth="yes"/>
      <point x="482" y="-12"/>
      <point x="596" y="106"/>
      <point x="596" y="263" type="curve" smooth="yes"/>
      <point x="596" y="372"/>
      <point x="542" y="461"/>
      <point x="459" y="506" type="curve"/>
      <point x="455" y="497" type="line"/>
      <point x="507" y="500"/>
      <point x="543" y="531"/>
      <point x="543" y="587" type="curve" smooth="yes"/>
      <point x="543" y="616"/>
      <point x="533" y="645"/>
      <point x="522" y="674" type="curve"/>
      <point x="477" y="674" type="line"/>
      <point x="487" y="647"/>
      <point x="497" y="621"/>
      <point x="497" y="593" type="curve" smooth="yes"/>
      <point x="497" y="554"/>
      <point x="476" y="538"/>
      <point x="444" y="538" type="curve" smooth="yes"/>
      <point x="331" y="538" type="line" smooth="yes"/>
      <point x="180" y="538"/>
      <point x="66" y="420"/>
      <point x="66" y="263" type="curve" smooth="yes"/>
      <point x="66" y="106"/>
      <point x="180" y="-12"/>
    </contour>
    <contour>
      <point x="331" y="31" type="curve" smooth="yes"/>
      <point x="209" y="31"/>
      <point x="114" y="132"/>
      <point x="114" y="263" type="curve" smooth="yes"/>
      <point x="114" y="394"/>
      <point x="208" y="495"/>
      <point x="331" y="495" type="curve" smooth="yes"/>
      <point x="454" y="495"/>
      <point x="548" y="394"/>
      <point x="548" y="263" type="curve" smooth="yes"/>
      <point x="548" y="132"/>
      <point x="453" y="31"/>
    </contour>
  </outline>
</glyph>
<glyph name="Uhorn" format="2">
  <advance width="690"/>
  <unicode hex="01AF"/>
  <anchor x="345" y="0" name="bottom"/>
  <anchor x="621" y="10" name="ogonek"/>
  <anchor x="345" y="745" name="top"/>
  <outline>
    <contour>
      <point x="345" y="-12" type="curve" smooth="yes"/>
      <point x="494" y="-12"/>
      <point x="595" y="93"/>
      <point x="595" y="251" type="curve" smooth="yes"/>
      <point x="595" y="704" type="line"/>
      <point x="602" y="704" type="line" smooth="yes"/>
      <point x="652" y="704"/>
      <point x="687" y="738"/>
      <point x="687" y="794" type="curve" smooth="yes"/>
      <point x="687" y="823"/>
      <point x="677" y="852"/>
      <point x="666" y="881" type="curve"/>
      <point x="621" y="881" type="line"/>
      <point x="631" y="854"/>
      <point x="641" y="828"/>
      <point x="641" y="800" type="curve" smooth="yes"/>
      <point x="641" y="761"/>
      <point x="620" y="745"/>
      <point x="588" y="745" type="curve" smooth="yes" name="🧨"/>
      <point x="545" y="745" type="line"/>
      <point x="545" y="247" type="line" smooth="yes"/>
      <point x="545" y="121"/>
      <point x="464" y="33"/>
      <point x="345" y="33" type="curve" smooth="yes"/>
      <point x="226" y="33"/>
      <point x="145" y="121"/>
      <point x="145" y="247" type="curve" smooth="yes"/>
      <point x="145" y="745" type="line"/>
      <point x="95" y="745" type="line"/>
      <point x="95" y="251" type="line" smooth="yes"/>
      <point x="95" y="93"/>
      <point x="196" y="-12"/>
    </contour>
  </outline>
</glyph>
<glyph name="uhorn" format="2">
  <advance width="575"/>
  <unicode hex="01B0"/>
  <anchor x="285" y="0" name="bottom"/>
  <anchor x="464" y="30" name="ogonek"/>
  <anchor x="285" y="526" name="top"/>
  <anchor x="550" y="526" name="topright"/>
  <outline>
    <contour>
      <point x="275" y="-12" type="curve" smooth="yes"/>
      <point x="348" y="-12"/>
      <point x="408" y="23"/>
      <point x="437" y="77" type="curve"/>
      <point x="437" y="0" type="line"/>
      <point x="482" y="0" type="line"/>
      <point x="482" y="508" type="line"/>
      <point x="465" y="485" type="line"/>
      <point x="523" y="485"/>
      <point x="564" y="515"/>
      <point x="564" y="575" type="curve" smooth="yes"/>
      <point x="564" y="604"/>
      <point x="554" y="633"/>
      <point x="543" y="662" type="curve"/>
      <point x="498" y="662" type="line"/>
      <point x="508" y="635"/>
      <point x="518" y="609"/>
      <point x="518" y="581" type="curve" smooth="yes"/>
      <point x="518" y="542"/>
      <point x="497" y="526"/>
      <point x="465" y="526" type="curve" smooth="yes"/>
      <point x="437" y="526" type="line"/>
      <point x="437" y="206" type="line" smooth="yes"/>
      <point x="437" y="109"/>
      <point x="381" y="31"/>
      <point x="279" y="31" type="curve" smooth="yes"/>
      <point x="194" y="31"/>
      <point x="122" y="85"/>
      <point x="122" y="186" type="curve" smooth="yes"/>
      <point x="122" y="526" type="line"/>
      <point x="77" y="526" type="line"/>
      <point x="77" y="186" type="line" smooth="yes"/>
      <point x="77" y="59"/>
      <point x="171" y="-12"/>
    </contour>
  </outline>
</glyph>
<glyph name="jdotless" format="2">
  <advance width="221"/>
  <unicode hex="0237"/>
  <anchor x="111" y="-240" name="bottom"/>
  <anchor x="111" y="526" name="top"/>
  <outline>
    <contour>
      <point x="-18" y="-220" type="curve" smooth="yes"/>
      <point x="73" y="-220"/>
      <point x="133" y="-165"/>
      <point x="133" y="-62" type="curve" smooth="yes"/>
      <point x="133" y="526" type="line"/>
      <point x="88" y="526" type="line"/>
      <point x="88" y="-62" type="line" smooth="yes"/>
      <point x="88" y="-137"/>
      <point x="48" y="-177"/>
      <point x="-21" y="-177" type="curve" smooth="yes"/>
      <point x="-32" y="-177"/>
      <point x="-46" y="-176"/>
      <point x="-57" y="-174" type="curve"/>
      <point x="-57" y="-215" type="line"/>
      <point x="-47" y="-218"/>
      <point x="-34" y="-220"/>
    </contour>
  </outline>
</glyph>
<glyph name="schwa" format="2">
  <advance width="627"/>
  <unicode hex="0259"/>
  <outline>
    <contour>
      <point x="306" y="-12" type="curve" smooth="yes"/>
      <point x="450" y="-12"/>
      <point x="561" y="107"/>
      <point x="561" y="263" type="curve" smooth="yes"/>
      <point x="561" y="418"/>
      <point x="446" y="538"/>
      <point x="296" y="538" type="curve" smooth="yes"/>
      <point x="202" y="538"/>
      <point x="120" y="490"/>
      <point x="81" y="413" type="curve"/>
      <point x="119" y="393" type="line"/>
      <point x="156" y="458"/>
      <point x="220" y="496"/>
      <point x="296" y="496" type="curve" smooth="yes"/>
      <point x="422" y="496"/>
      <point x="516" y="396"/>
      <point x="516" y="263" type="curve" smooth="yes"/>
      <point x="516" y="132"/>
      <point x="424" y="30"/>
      <point x="306" y="30" type="curve" smooth="yes"/>
      <point x="192" y="30"/>
      <point x="106" y="127"/>
      <point x="112" y="250" type="curve"/>
      <point x="95" y="237" type="line"/>
      <point x="538" y="237" type="line"/>
      <point x="538" y="277" type="line"/>
      <point x="69" y="277" type="line"/>
      <point x="67" y="262"/>
      <point x="66" y="251"/>
      <point x="66" y="238" type="curve" smooth="yes"/>
      <point x="66" y="96"/>
      <point x="169" y="-12"/>
    </contour>
  </outline>
</glyph>
<glyph name="gravecomb" format="2">
  <advance width="359"/>
  <unicode hex="0300"/>
  <anchor x="233" y="526" name="_top"/>
  <outline>
    <contour>
      <point x="256" y="640" type="line"/>
      <point x="164" y="790" type="line"/>
      <point x="103" y="790" type="line"/>
      <point x="211" y="640" type="line"/>
    </contour>
  </outline>
</glyph>
<glyph name="acutecomb" format="2">
  <advance width="359"/>
  <unicode hex="0301"/>
  <anchor x="126" y="526" name="_top"/>
  <outline>
    <contour>
      <point x="148" y="640" type="line"/>
      <point x="256" y="790" type="line"/>
      <point x="195" y="790" type="line"/>
      <point x="103" y="640" type="line"/>
    </contour>
  </outline>
</glyph>
<glyph name="circumflexcomb" format="2">
  <advance width="500"/>
  <unicode hex="0302"/>
  <anchor x="250" y="526" name="_top"/>
  <outline>
    <contour>
      <point x="154" y="640" type="line"/>
      <point x="250" y="754" type="line"/>
      <point x="346" y="640" type="line"/>
      <point x="397" y="640" type="line"/>
      <point x="271" y="790" type="line"/>
      <point x="228" y="790" type="line"/>
      <point x="103" y="640" type="line"/>
    </contour>
  </outline>
</glyph>
<glyph name="macroncomb" format="2">
  <advance width="456"/>
  <unicode hex="0304"/>
  <anchor x="228" y="526" name="_top"/>
  <outline>
    <contour>
      <point x="353" y="660" type="line"/>
      <point x="353" y="700" type="line"/>
      <point x="103" y="700" type="line"/>
      <point x="103" y="660" type="line"/>
    </contour>
  </outline>
</glyph>
<glyph name="brevecomb" format="2">
  <advance width="480"/>
  <unicode hex="0306"/>
  <anchor x="240" y="526" name="_top"/>
  <outline>
    <contour>
      <point x="240" y="640" type="curve" smooth="yes"/>
      <point x="326" y="640"/>
      <point x="377" y="698"/>
      <point x="377" y="780" type="curve"/>
      <point x="331" y="780" type="line"/>
      <point x="331" y="721"/>
      <point x="299" y="680"/>
      <point x="240" y="680" type="curve" smooth="yes"/>
      <point x="181" y="680"/>
      <point x="149" y="721"/>
      <point x="149" y="780" type="curve"/>
      <point x="103" y="780" type="line"/>
      <point x="103" y="698"/>
      <point x="154" y="640"/>
    </contour>
  </outline>
</glyph>
<glyph name="dotaccentcomb" format="2">
  <advance width="276"/>
  <unicode hex="0307"/>
  <anchor x="138" y="526" name="_top"/>
  <outline>
    <contour>
      <point x="173" y="640" type="line"/>
      <point x="173" y="715" type="line"/>
      <point x="103" y="715" type="line"/>
      <point x="103" y="640" type="line"/>
    </contour>
  </outline>
</glyph>
<glyph name="dieresiscomb" format="2">
  <advance width="426"/>
  <unicode hex="0308"/>
  <anchor x="213" y="526" name="_top"/>
  <outline>
    <contour>
      <point x="173" y="640" type="line"/>
      <point x="173" y="715" type="line"/>
      <point x="103" y="715" type="line"/>
      <point x="103" y="640" type="line"/>
    </contour>
    <contour>
      <point x="323" y="640" type="line"/>
      <point x="323" y="715" type="line"/>
      <point x="253" y="715" type="line"/>
      <point x="253" y="640" type="line"/>
    </contour>
  </outline>
</glyph>
<glyph name="hookabovecomb" format="2">
  <advance width="361"/>
  <unicode hex="0309"/>
  <anchor x="181" y="526" name="_top"/>
  <outline>
    <contour>
      <point x="194" y="600" type="line"/>
      <point x="232" y="616"/>
      <point x="258" y="653"/>
      <point x="258" y="689" type="curve" smooth="yes"/>
      <point x="258" y="737"/>
      <point x="223" y="770"/>
      <point x="168" y="770" type="curve" smooth="yes"/>
      <point x="145" y="770"/>
      <point x="119" y="763"/>
      <point x="103" y="752" type="curve"/>
      <point x="111" y="720" type="line"/>
      <point x="127" y="730"/>
      <point x="145" y="735"/>
      <point x="163" y="735" type="curve" smooth="yes"/>
      <point x="195" y="735"/>
      <point x="218" y="715"/>
      <point x="218" y="687" type="curve" smooth="yes"/>
      <point x="218" y="661"/>
      <point x="202" y="638"/>
      <point x="173" y="627" type="curve"/>
    </contour>
  </outline>
</glyph>
<glyph name="ringcomb" format="2">
  <advance width="395"/>
  <unicode hex="030A"/>
  <anchor x="198" y="526" name="_top"/>
  <outline>
    <contour>
      <point x="197" y="620" type="curve" smooth="yes"/>
      <point x="249" y="620"/>
      <point x="292" y="657"/>
      <point x="292" y="714" type="curve" smooth="yes"/>
      <point x="292" y="770"/>
      <point x="249" y="808"/>
      <point x="197" y="808" type="curve" smooth="yes"/>
      <point x="146" y="808"/>
      <point x="103" y="771"/>
      <point x="103" y="714" type="curve" smooth="yes"/>
      <point x="103" y="657"/>
      <point x="146" y="620"/>
    </contour>
    <contour>
      <point x="197" y="656" type="curve" smooth="yes"/>
      <point x="166" y="656"/>
      <point x="141" y="679"/>
      <point x="141" y="714" type="curve" smooth="yes"/>
      <point x="141" y="748"/>
      <point x="166" y="771"/>
      <point x="197" y="771" type="curve" smooth="yes"/>
      <point x="228" y="771"/>
      <point x="255" y="748"/>
      <point x="255" y="714" type="curve" smooth="yes"/>
      <point x="255" y="679"/>
      <point x="228" y="656"/>
    </contour>
  </outline>
</glyph>
<glyph name="hungarumlautcomb" format="2">
  <advance width="460"/>
  <unicode hex="030B"/>
  <anchor x="196" y="526" name="_top"/>
  <outline>
    <contour>
      <point x="148" y="640" type="line"/>
      <point x="216" y="790" type="line"/>
      <point x="155" y="790" type="line"/>
      <point x="103" y="640" type="line"/>
    </contour>
    <contour>
      <point x="289" y="640" type="line"/>
      <point x="357" y="790" type="line"/>
      <point x="296" y="790" type="line"/>
      <point x="244" y="640" type="line"/>
    </contour>
  </outline>
</glyph>
<glyph name="caroncomb" format="2">
  <advance width="500"/>
  <unicode hex="030C"/>
  <anchor x="250" y="526" name="_top"/>
  <outline>
    <contour>
      <point x="271" y="640" type="line"/>
      <point x="397" y="790" type="line"/>
      <point x="346" y="790" type="line"/>
      <point x="250" y="676" type="line"/>
      <point x="154" y="790" type="line"/>
      <point x="103" y="790" type="line"/>
      <point x="228" y="640" type="line"/>
    </contour>
  </outline>
</glyph>
<glyph name="dblgravecomb" format="2">
  <advance width="500"/>
  <unicode hex="030F"/>
  <anchor x="304" y="526" name="_top"/>
  <outline>
    <contour>
      <point x="256" y="640" type="line"/>
      <point x="164" y="788" type="line"/>
      <point x="103" y="788" type="line"/>
      <point x="211" y="640" type="line"/>
    </contour>
    <contour>
      <point x="397" y="640" type="line"/>
      <point x="305" y="788" type="line"/>
      <point x="244" y="788" type="line"/>
      <point x="352" y="640" type="line"/>
    </contour>
  </outline>
</glyph>
<glyph name="breveinvertedcomb" format="2">
  <advance width="480"/>
  <unicode hex="0311"/>
  <anchor x="240" y="526" name="_top"/>
  <outline>
    <contour>
      <point x="149" y="640" type="line"/>
      <point x="149" y="699"/>
      <point x="181" y="740"/>
      <point x="240" y="740" type="curve" smooth="yes"/>
      <point x="299" y="740"/>
      <point x="331" y="699"/>
      <point x="331" y="640" type="curve"/>
      <point x="377" y="640" type="line"/>
      <point x="377" y="722"/>
      <point x="326" y="780"/>
      <point x="240" y="780" type="curve" smooth="yes"/>
      <point x="154" y="780"/>
      <point x="103" y="722"/>
      <point x="103" y="640" type="curve"/>
    </contour>
  </outline>
</glyph>
<glyph name="commaturnedabovecomb" format="2">
  <advance width="299"/>
  <unicode hex="0312"/>
  <anchor x="126" y="515" name="_top"/>
  <outline>
    <contour>
      <point x="148" y="600" type="line"/>
      <point x="196" y="763" type="line"/>
      <point x="161" y="763" type="line"/>
      <point x="103" y="600" type="line"/>
    </contour>
  </outline>
</glyph>
<glyph name="horncomb" format="2">
  <advance width="318"/>
  <unicode hex="031B"/>
  <outline>
    <contour>
      <point x="119" y="640" type="line" smooth="yes"/>
      <point x="175" y="640"/>
      <point x="215" y="671"/>
      <point x="215" y="730" type="curve" smooth="yes"/>
      <point x="215" y="759"/>
      <point x="205" y="788"/>
      <point x="194" y="817" type="curve"/>
      <point x="149" y="817" type="line"/>
      <point x="159" y="790"/>
      <point x="169" y="764"/>
      <point x="169" y="736" type="curve" smooth="yes"/>
      <point x="169" y="697"/>
      <point x="148" y="681"/>
      <point x="116" y="681" type="curve" smooth="yes"/>
      <point x="103" y="681" type="line"/>
      <point x="103" y="640" type="line"/>
    </contour>
  </outline>
</glyph>
<glyph name="dotbelowcomb" format="2">
  <advance width="276"/>
  <unicode hex="0323"/>
  <anchor x="138" y="0" name="_bottom"/>
  <outline>
    <contour>
      <point x="173" y="-165" type="line"/>
      <point x="173" y="-90" type="line"/>
      <point x="103" y="-90" type="line"/>
      <point x="103" y="-165" type="line"/>
    </contour>
  </outline>
</glyph>
<glyph name="dieresisbelowcomb" format="2">
  <advance width="426"/>
  <unicode hex="0324"/>
  <anchor x="213" y="0" name="_bottom"/>
  <outline>
    <contour>
      <point x="173" y="-165" type="line"/>
      <point x="173" y="-90" type="line"/>
      <point x="103" y="-90" type="line"/>
      <point x="103" y="-165" type="line"/>
    </contour>
    <contour>
      <point x="323" y="-165" type="line"/>
      <point x="323" y="-90" type="line"/>
      <point x="253" y="-90" type="line"/>
      <point x="253" y="-165" type="line"/>
    </contour>
  </outline>
</glyph>
<glyph name="commaaccentcomb" format="2">
  <advance width="299"/>
  <unicode hex="0326"/>
  <anchor x="173" y="0" name="_bottom"/>
  <outline>
    <contour>
      <point x="138" y="-233" type="line"/>
      <point x="196" y="-70" type="line"/>
      <point x="151" y="-70" type="line"/>
      <point x="103" y="-233" type="line"/>
    </contour>
  </outline>
</glyph>
<glyph name="cedillacomb" format="2">
  <advance width="397"/>
  <unicode hex="0327"/>
  <anchor x="191" y="0" name="_bottom"/>
  <outline>
    <contour>
      <point x="199" y="-220" type="curve" smooth="yes"/>
      <point x="255" y="-220"/>
      <point x="294" y="-187"/>
      <point x="294" y="-136" type="curve" smooth="yes"/>
      <point x="294" y="-93"/>
      <point x="257" y="-59"/>
      <point x="200" y="-49" type="curve"/>
      <point x="216" y="10" type="line"/>
      <point x="173" y="10" type="line"/>
      <point x="148" y="-76" type="line"/>
      <point x="211" y="-82"/>
      <point x="251" y="-102"/>
      <point x="251" y="-139" type="curve" smooth="yes"/>
      <point x="251" y="-164"/>
      <point x="230" y="-185"/>
      <point x="197" y="-185" type="curve" smooth="yes"/>
      <point x="170" y="-185"/>
      <point x="139" y="-172"/>
      <point x="118" y="-149" type="curve"/>
      <point x="103" y="-181" type="line"/>
      <point x="127" y="-206"/>
      <point x="162" y="-220"/>
    </contour>
  </outline>
</glyph>
<glyph name="ogonekcomb" format="2">
  <advance width="397"/>
  <unicode hex="0328"/>
  <anchor x="237" y="0" name="_ogonek"/>
  <outline>
    <contour>
      <point x="198" y="-220" type="curve" smooth="yes"/>
      <point x="235" y="-220"/>
      <point x="270" y="-206"/>
      <point x="294" y="-181" type="curve"/>
      <point x="279" y="-149" type="line"/>
      <point x="258" y="-172"/>
      <point x="227" y="-185"/>
      <point x="200" y="-185" type="curve" smooth="yes"/>
      <point x="165" y="-185"/>
      <point x="146" y="-165"/>
      <point x="146" y="-129" type="curve" smooth="yes"/>
      <point x="146" y="-71"/>
      <point x="198" y="-20"/>
      <point x="246" y="0" type="curve"/>
      <point x="246" y="15" type="line"/>
      <point x="229" y="15" type="line"/>
      <point x="167" y="2"/>
      <point x="103" y="-61"/>
      <point x="103" y="-136" type="curve" smooth="yes"/>
      <point x="103" y="-189"/>
      <point x="146" y="-220"/>
    </contour>
  </outline>
</glyph>
<glyph name="brevebelowcomb" format="2">
  <advance width="480"/>
  <unicode hex="032E"/>
  <anchor x="240" y="0" name="_bottom"/>
  <outline>
    <contour>
      <point x="240" y="-230" type="curve" smooth="yes"/>
      <point x="326" y="-230"/>
      <point x="377" y="-172"/>
      <point x="377" y="-90" type="curve"/>
      <point x="331" y="-90" type="line"/>
      <point x="331" y="-149"/>
      <point x="299" y="-190"/>
      <point x="240" y="-190" type="curve" smooth="yes"/>
      <point x="181" y="-190"/>
      <point x="149" y="-149"/>
      <point x="149" y="-90" type="curve"/>
      <point x="103" y="-90" type="line"/>
      <point x="103" y="-172"/>
      <point x="154" y="-230"/>
    </contour>
  </outline>
</glyph>
<glyph name="macronbelowcomb" format="2">
  <advance width="456"/>
  <unicode hex="0331"/>
  <anchor x="228" y="0" name="_bottom"/>
  <outline>
    <contour>
      <point x="353" y="-140" type="line"/>
      <point x="353" y="-100" type="line"/>
      <point x="103" y="-100" type="line"/>
      <point x="103" y="-140" type="line"/>
    </contour>
  </outline>
</glyph>
<glyph name="strokeshortcomb" format="2">
  <advance width="425"/>
  <unicode hex="0335"/>
  <anchor x="209" y="257" name="_center"/>
  <outline>
    <contour>
      <point x="339" y="237" type="line"/>
      <point x="339" y="277" type="line"/>
      <point x="79" y="277" type="line"/>
      <point x="79" y="237" type="line"/>
    </contour>
  </outline>
</glyph>
<glyph name="strokelongcomb" format="2">
  <advance width="890"/>
  <unicode hex="0336"/>
  <anchor x="445" y="352" name="_center"/>
  <outline>
    <contour>
      <point x="811" y="330" type="line"/>
      <point x="811" y="375" type="line"/>
      <point x="79" y="375" type="line"/>
      <point x="79" y="330" type="line"/>
    </contour>
  </outline>
</glyph>
<glyph name="slashshortcomb" format="2">
  <advance width="277"/>
  <unicode hex="0337"/>
  <anchor x="139" y="375" name="_center"/>
  <outline>
    <contour>
      <point x="242" y="419" type="line"/>
      <point x="242" y="474" type="line"/>
      <point x="36" y="330" type="line"/>
      <point x="36" y="275" type="line"/>
    </contour>
  </outline>
</glyph>
<glyph name="slashlongcomb" format="2">
  <advance width="496"/>
  <unicode hex="0338"/>
  <anchor x="276" y="263" name="_center"/>
  <outline>
    <contour>
      <point x="74" y="0" type="line"/>
      <point x="543" y="526" type="line"/>
      <point x="477" y="526" type="line"/>
      <point x="8" y="0" type="line"/>
    </contour>
  </outline>
</glyph>
<glyph name="Delta" format="2">
  <advance width="610"/>
  <unicode hex="0394"/>
  <outline>
    <contour>
      <point x="588" y="0" type="line"/>
      <point x="588" y="45" type="line"/>
      <point x="329" y="745" type="line"/>
      <point x="281" y="745" type="line"/>
      <point x="22" y="45" type="line"/>
      <point x="22" y="0" type="line"/>
    </contour>
    <contour>
      <point x="317" y="705" type="line"/>
      <point x="293" y="705" type="line"/>
      <point x="546" y="11" type="line"/>
      <point x="570" y="45" type="line"/>
      <point x="40" y="45" type="line"/>
      <point x="64" y="11" type="line"/>
    </contour>
  </outline>
</glyph>
<glyph name="Omega" format="2">
  <advance width="884"/>
  <unicode hex="03A9"/>
  <outline>
    <contour>
      <point x="327" y="0" type="line"/>
      <point x="327" y="45" type="line"/>
      <point x="204" y="99"/>
      <point x="127" y="226"/>
      <point x="127" y="373" type="curve" smooth="yes"/>
      <point x="127" y="552"/>
      <point x="254" y="709"/>
      <point x="442" y="709" type="curve" smooth="yes"/>
      <point x="630" y="709"/>
      <point x="757" y="552"/>
      <point x="757" y="373" type="curve" smooth="yes"/>
      <point x="757" y="226"/>
      <point x="680" y="99"/>
      <point x="557" y="45" type="curve"/>
      <point x="557" y="0" type="line"/>
      <point x="807" y="0" type="line"/>
      <point x="807" y="45" type="line"/>
      <point x="596" y="45" type="line"/>
      <point x="612" y="33" type="line"/>
      <point x="728" y="97"/>
      <point x="807" y="219"/>
      <point x="807" y="373" type="curve" smooth="yes"/>
      <point x="807" y="599"/>
      <point x="642" y="757"/>
      <point x="442" y="757" type="curve" smooth="yes"/>
      <point x="242" y="757"/>
      <point x="77" y="599"/>
      <point x="77" y="373" type="curve" smooth="yes"/>
      <point x="77" y="219"/>
      <point x="156" y="97"/>
      <point x="272" y="33" type="curve"/>
      <point x="288" y="45" type="line"/>
      <point x="77" y="45" type="line"/>
      <point x="77" y="0" type="line"/>
    </contour>
  </outline>
</glyph>
<glyph name="pi" format="2">
  <advance width="626"/>
  <unicode hex="03C0"/>
  <outline>
    <contour>
      <point x="188" y="0" type="line"/>
      <point x="188" y="486" type="line"/>
      <point x="438" y="486" type="line"/>
      <point x="438" y="0" type="line"/>
      <point x="483" y="0" type="line"/>
      <point x="483" y="486" type="line"/>
      <point x="583" y="486" type="line"/>
      <point x="583" y="526" type="line"/>
      <point x="43" y="526" type="line"/>
      <point x="43" y="486" type="line"/>
      <point x="143" y="486" type="line"/>
      <point x="143" y="0" type="line"/>
    </contour>
  </outline>
</glyph>
<glyph name="Djecyr" format="2">
  <advance width="759"/>
  <unicode hex="0402"/>
  <anchor x="350" y="-240" name="bottom"/>
  <anchor x="98" y="640" name="center"/>
  <anchor x="350" y="526" name="top"/>
  <outline>
    <contour>
      <point x="227" y="745" type="line"/>
      <point x="177" y="745" type="line"/>
      <point x="177" y="0" type="line"/>
      <point x="227" y="0" type="line"/>
      <point x="227" y="337" type="line"/>
      <point x="283" y="374"/>
      <point x="355" y="394"/>
      <point x="423.869" y="394" type="curve" smooth="yes"/>
      <point x="559" y="394"/>
      <point x="629" y="317"/>
      <point x="629" y="171.723" type="curve" smooth="yes"/>
      <point x="629" y="35"/>
      <point x="567" y="-51"/>
      <point x="424" y="-82" type="curve"/>
      <point x="434" y="-129" type="line"/>
      <point x="590" y="-99"/>
      <point x="679" y="3"/>
      <point x="679" y="173.179" type="curve" smooth="yes"/>
      <point x="679" y="349"/>
      <point x="584" y="439"/>
      <point x="425.251" y="439" type="curve" smooth="yes"/>
      <point x="345" y="439"/>
      <point x="268" y="416"/>
      <point x="207" y="374" type="curve"/>
      <point x="227" y="366" type="line"/>
    </contour>
    <contour>
      <point x="227" y="0" type="line"/>
      <point x="227" y="700" type="line"/>
      <point x="509" y="700" type="line"/>
      <point x="509" y="745" type="line"/>
      <point x="11" y="745" type="line"/>
      <point x="11" y="700" type="line"/>
      <point x="177" y="700" type="line"/>
      <point x="177" y="0" type="line"/>
    </contour>
  </outline>
</glyph>
<glyph name="Ljecyr" format="2">
  <advance width="1054"/>
  <unicode hex="0409"/>
  <outline>
    <contour>
      <point x="33" y="-4" type="line"/>
      <point x="194" y="-11"/>
      <point x="237" y="76"/>
      <point x="243" y="428" type="curve" smooth="yes"/>
      <point x="248" y="700" type="line"/>
      <point x="521" y="700" type="line"/>
      <point x="521" y="0" type="line"/>
      <point x="760" y="0" type="line" smooth="yes"/>
      <point x="890" y="0"/>
      <point x="981" y="88"/>
      <point x="981" y="215" type="curve" smooth="yes"/>
      <point x="981" y="342"/>
      <point x="891" y="429"/>
      <point x="761" y="429" type="curve" smooth="yes"/>
      <point x="571" y="429" type="line"/>
      <point x="571" y="745" type="line"/>
      <point x="200" y="745" type="line"/>
      <point x="194" y="431" type="line" smooth="yes"/>
      <point x="188" y="103"/>
      <point x="159" y="39"/>
      <point x="33" y="43" type="curve"/>
    </contour>
    <contour>
      <point x="571" y="45" type="line"/>
      <point x="571" y="384" type="line"/>
      <point x="760" y="384" type="line" smooth="yes"/>
      <point x="860" y="384"/>
      <point x="931" y="314"/>
      <point x="931" y="214" type="curve" smooth="yes"/>
      <point x="931" y="114"/>
      <point x="861" y="45"/>
      <point x="760" y="45" type="curve" smooth="yes"/>
    </contour>
  </outline>
</glyph>
<glyph name="Njecyr" format="2">
  <advance width="1072"/>
  <unicode hex="040A"/>
  <outline>
    <contour>
      <point x="539" y="0" type="line"/>
      <point x="778" y="0" type="line" smooth="yes"/>
      <point x="908" y="0"/>
      <point x="999" y="88"/>
      <point x="999" y="215" type="curve" smooth="yes"/>
      <point x="999" y="342"/>
      <point x="909" y="429"/>
      <point x="779" y="429" type="curve" smooth="yes"/>
      <point x="589" y="429" type="line"/>
      <point x="589" y="745" type="line"/>
      <point x="539" y="745" type="line"/>
      <point x="539" y="429" type="line"/>
      <point x="149" y="429" type="line"/>
      <point x="149" y="745" type="line"/>
      <point x="99" y="745" type="line"/>
      <point x="99" y="0" type="line"/>
      <point x="149" y="0" type="line"/>
      <point x="149" y="384" type="line"/>
      <point x="539" y="384" type="line"/>
    </contour>
    <contour>
      <point x="589" y="45" type="line"/>
      <point x="589" y="384" type="line"/>
      <point x="778" y="384" type="line" smooth="yes"/>
      <point x="878" y="384"/>
      <point x="949" y="314"/>
      <point x="949" y="214" type="curve" smooth="yes"/>
      <point x="949" y="114"/>
      <point x="879" y="45"/>
      <point x="778" y="45" type="curve" smooth="yes"/>
    </contour>
  </outline>
</glyph>
<glyph name="Tshecyr" format="2">
  <advance width="759"/>
  <unicode hex="040B"/>
  <outline>
    <contour>
      <point x="227" y="745" type="line"/>
      <point x="177" y="745" type="line"/>
      <point x="177" y="0" type="line"/>
      <point x="227" y="0" type="line"/>
      <point x="227" y="337" type="line"/>
      <point x="283" y="374"/>
      <point x="355" y="394"/>
      <point x="430.952" y="394" type="curve" smooth="yes"/>
      <point x="571" y="394"/>
      <point x="629" y="326"/>
      <point x="629" y="189" type="curve" smooth="yes"/>
      <point x="629" y="0" type="line"/>
      <point x="679" y="0" type="line"/>
      <point x="679" y="200" type="line" smooth="yes"/>
      <point x="679" y="355"/>
      <point x="600" y="439"/>
      <point x="432.597" y="439" type="curve" smooth="yes"/>
      <point x="345" y="439"/>
      <point x="268" y="416"/>
      <point x="207" y="374" type="curve"/>
      <point x="227" y="366" type="line"/>
    </contour>
    <contour>
      <point x="227" y="0" type="line"/>
      <point x="227" y="700" type="line"/>
      <point x="509" y="700" type="line"/>
      <point x="509" y="745" type="line"/>
      <point x="11" y="745" type="line"/>
      <point x="11" y="700" type="line"/>
      <point x="177" y="700" type="line"/>
      <point x="177" y="0" type="line"/>
    </contour>
  </outline>
</glyph>
<glyph name="Dzhecyr" format="2">
  <advance width="732"/>
  <unicode hex="040F"/>
  <outline>
    <contour>
      <point x="149" y="745" type="line"/>
      <point x="99" y="745" type="line"/>
      <point x="99" y="0" type="line"/>
      <point x="341" y="0" type="line"/>
      <point x="341" y="-164" type="line"/>
      <point x="391" y="-164" type="line"/>
      <point x="391" y="0" type="line"/>
      <point x="633" y="0" type="line"/>
      <point x="633" y="745" type="line"/>
      <point x="583" y="745" type="line"/>
      <point x="583" y="45" type="line"/>
      <point x="149" y="45" type="line"/>
    </contour>
  </outline>
</glyph>
<glyph name="Becyr" format="2">
  <advance width="645"/>
  <unicode hex="0411"/>
  <outline>
    <contour>
      <point x="99" y="0" type="line"/>
      <point x="343" y="0" type="line" smooth="yes"/>
      <point x="482" y="0"/>
      <point x="579" y="88"/>
      <point x="579" y="216" type="curve" smooth="yes"/>
      <point x="579" y="345"/>
      <point x="483" y="432"/>
      <point x="343" y="432" type="curve" smooth="yes"/>
      <point x="149" y="432" type="line"/>
      <point x="149" y="700" type="line"/>
      <point x="518" y="700" type="line"/>
      <point x="518" y="745" type="line"/>
      <point x="99" y="745" type="line"/>
    </contour>
    <contour>
      <point x="149" y="45" type="line"/>
      <point x="149" y="387" type="line"/>
      <point x="343" y="387" type="line" smooth="yes"/>
      <point x="452" y="387"/>
      <point x="529" y="317"/>
      <point x="529" y="216" type="curve" smooth="yes"/>
      <point x="529" y="114"/>
      <point x="453" y="45"/>
      <point x="343" y="45" type="curve" smooth="yes"/>
    </contour>
  </outline>
</glyph>
<glyph name="Gecyr" format="2">
  <advance width="466"/>
  <unicode hex="0413"/>
  <outline>
    <contour>
      <point x="149" y="0" type="line"/>
      <point x="149" y="700" type="line"/>
      <point x="444" y="700" type="line"/>
      <point x="444" y="745" type="line"/>
      <point x="99" y="745" type="line"/>
      <point x="99" y="0" type="line"/>
    </contour>
  </outline>
</glyph>
<glyph name="Decyr" format="2">
  <advance width="734"/>
  <unicode hex="0414"/>
  <outline>
    <contour>
      <point x="83" y="-164" type="line"/>
      <point x="83" y="0" type="line"/>
      <point x="651" y="0" type="line"/>
      <point x="651" y="-164" type="line"/>
      <point x="701" y="-164" type="line"/>
      <point x="701" y="45" type="line"/>
      <point x="603" y="45" type="line"/>
      <point x="603" y="745" type="line"/>
      <point x="176" y="745" type="line"/>
      <point x="170" y="514" type="line" smooth="yes"/>
      <point x="164" y="289"/>
      <point x="140" y="123"/>
      <point x="94" y="45" type="curve"/>
      <point x="33" y="45" type="line"/>
      <point x="33" y="-164" type="line"/>
    </contour>
    <contour>
      <point x="150" y="45" type="line"/>
      <point x="188" y="121"/>
      <point x="214" y="289"/>
      <point x="220" y="508" type="curve" smooth="yes"/>
      <point x="225" y="700" type="line"/>
      <point x="553" y="700" type="line"/>
      <point x="553" y="45" type="line"/>
    </contour>
  </outline>
</glyph>
<glyph name="Zhecyr" format="2">
  <advance width="1006"/>
  <unicode hex="0416"/>
  <anchor x="695" y="0" name="bottom"/>
  <anchor x="695" y="745" name="top"/>
  <outline>
    <contour>
      <point x="528" y="0" type="line"/>
      <point x="528" y="241" type="line"/>
      <point x="654" y="389" type="line"/>
      <point x="923" y="0" type="line"/>
      <point x="984" y="0" type="line"/>
      <point x="688" y="427" type="line"/>
      <point x="962" y="745" type="line"/>
      <point x="897" y="745" type="line"/>
      <point x="528" y="318" type="line"/>
      <point x="528" y="745" type="line"/>
      <point x="478" y="745" type="line"/>
      <point x="478" y="318" type="line"/>
      <point x="109" y="745" type="line"/>
      <point x="44" y="745" type="line"/>
      <point x="318" y="427" type="line"/>
      <point x="22" y="0" type="line"/>
      <point x="83" y="0" type="line"/>
      <point x="352" y="389" type="line"/>
      <point x="478" y="241" type="line"/>
      <point x="478" y="0" type="line"/>
    </contour>
  </outline>
</glyph>
<glyph name="Zecyr" format="2">
  <advance width="615"/>
  <unicode hex="0417"/>
  <outline>
    <contour>
      <point x="307" y="-12" type="curve" smooth="yes"/>
      <point x="448" y="-12"/>
      <point x="549" y="77"/>
      <point x="549" y="204" type="curve" smooth="yes"/>
      <point x="549" y="292"/>
      <point x="500" y="364"/>
      <point x="422" y="392" type="curve"/>
      <point x="421" y="377" type="line"/>
      <point x="494" y="402"/>
      <point x="535" y="465"/>
      <point x="535" y="550" type="curve" smooth="yes"/>
      <point x="535" y="674"/>
      <point x="444" y="757"/>
      <point x="309" y="757" type="curve" smooth="yes"/>
      <point x="189" y="757"/>
      <point x="99" y="691"/>
      <point x="65" y="586" type="curve"/>
      <point x="112" y="572" type="line"/>
      <point x="147" y="662"/>
      <point x="214" y="712"/>
      <point x="308" y="712" type="curve" smooth="yes"/>
      <point x="415" y="712"/>
      <point x="487" y="649"/>
      <point x="487" y="548" type="curve" smooth="yes"/>
      <point x="487" y="461"/>
      <point x="434" y="407"/>
      <point x="350" y="407" type="curve" smooth="yes"/>
      <point x="207" y="407" type="line"/>
      <point x="207" y="361" type="line"/>
      <point x="353" y="361" type="line" smooth="yes"/>
      <point x="442" y="361"/>
      <point x="501" y="298"/>
      <point x="501" y="205" type="curve" smooth="yes"/>
      <point x="501" y="101"/>
      <point x="425" y="33"/>
      <point x="308" y="33" type="curve" smooth="yes"/>
      <point x="205" y="33"/>
      <point x="130" y="86"/>
      <point x="91" y="186" type="curve"/>
      <point x="44" y="172" type="line"/>
      <point x="80" y="60"/>
      <point x="181" y="-12"/>
    </contour>
  </outline>
</glyph>
<glyph name="Icyr" format="2">
  <advance width="738"/>
  <unicode hex="0418"/>
  <anchor x="369" y="0" name="bottom"/>
  <anchor x="369" y="745" name="top"/>
  <outline>
    <contour>
      <point x="589" y="0" type="line"/>
      <point x="589" y="680" type="line"/>
      <point x="608" y="680" type="line"/>
      <point x="139" y="0" type="line"/>
      <point x="99" y="0" type="line"/>
      <point x="99" y="745" type="line"/>
      <point x="149" y="745" type="line"/>
      <point x="149" y="70" type="line"/>
      <point x="133" y="70" type="line"/>
      <point x="599" y="745" type="line"/>
      <point x="639" y="745" type="line"/>
      <point x="639" y="0" type="line"/>
    </contour>
  </outline>
</glyph>
<glyph name="Elcyr" format="2">
  <advance width="723"/>
  <unicode hex="041B"/>
  <outline>
    <contour>
      <point x="33" y="-4" type="line"/>
      <point x="194" y="-11"/>
      <point x="236" y="76"/>
      <point x="245" y="428" type="curve" smooth="yes"/>
      <point x="252" y="700" type="line"/>
      <point x="574" y="700" type="line"/>
      <point x="574" y="0" type="line"/>
      <point x="624" y="0" type="line"/>
      <point x="624" y="745" type="line"/>
      <point x="204" y="745" type="line"/>
      <point x="195" y="431" type="line" smooth="yes"/>
      <point x="186" y="103"/>
      <point x="159" y="39"/>
      <point x="33" y="43" type="curve"/>
    </contour>
  </outline>
</glyph>
<glyph name="Ucyr" format="2">
  <advance width="608"/>
  <unicode hex="0423"/>
  <anchor x="217" y="0" name="bottom"/>
  <anchor x="272" y="745" name="top"/>
  <outline>
    <contour>
      <point x="127.142" y="-8" type="curve" smooth="yes"/>
      <point x="213" y="-8"/>
      <point x="264" y="42"/>
      <point x="332" y="191" type="curve" smooth="yes"/>
      <point x="586" y="745" type="line"/>
      <point x="530" y="745" type="line"/>
      <point x="305" y="247" type="line"/>
      <point x="329" y="249" type="line"/>
      <point x="78" y="745" type="line"/>
      <point x="22" y="745" type="line"/>
      <point x="298" y="201" type="line"/>
      <point x="297" y="237" type="line"/>
      <point x="285" y="210" type="line" smooth="yes"/>
      <point x="228" y="82"/>
      <point x="190" y="43"/>
      <point x="121.042" y="43" type="curve" smooth="yes"/>
      <point x="110" y="43"/>
      <point x="95" y="44"/>
      <point x="77" y="49" type="curve"/>
      <point x="77" y="-2" type="line"/>
      <point x="98" y="-7"/>
      <point x="115" y="-8"/>
    </contour>
  </outline>
  <guideline angle="90" x="-559" y="0"/>
</glyph>
<glyph name="Efcyr" format="2">
  <advance width="930"/>
  <unicode hex="0424"/>
  <anchor x="432" y="0" name="bottom"/>
  <anchor x="432" y="373" name="center"/>
  <anchor x="437" y="0" name="ogonek"/>
  <anchor x="432" y="745" name="top"/>
  <anchor x="854" y="745" name="topright"/>
  <outline>
    <contour>
      <point x="452" y="52" type="line"/>
      <point x="452" y="100" type="line"/>
      <point x="432" y="100" type="line" smooth="yes"/>
      <point x="230" y="100"/>
      <point x="127" y="223"/>
      <point x="127" y="376" type="curve" smooth="yes"/>
      <point x="127" y="524"/>
      <point x="230" y="649"/>
      <point x="432" y="649" type="curve" smooth="yes"/>
      <point x="452" y="649" type="line"/>
      <point x="452" y="697" type="line"/>
      <point x="432" y="697" type="line" smooth="yes"/>
      <point x="211" y="697"/>
      <point x="77" y="562"/>
      <point x="77" y="375" type="curve" smooth="yes"/>
      <point x="77" y="187"/>
      <point x="211" y="52"/>
      <point x="432" y="52" type="curve" smooth="yes"/>
    </contour>
    <contour>
      <point x="490" y="-20" type="line"/>
      <point x="490" y="765" type="line"/>
      <point x="440" y="765" type="line"/>
      <point x="440" y="-20" type="line"/>
    </contour>
    <contour>
      <point x="478" y="52" type="line"/>
      <point x="498" y="52" type="line" smooth="yes"/>
      <point x="719" y="52"/>
      <point x="853" y="187"/>
      <point x="853" y="375" type="curve" smooth="yes"/>
      <point x="853" y="562"/>
      <point x="719" y="697"/>
      <point x="498" y="697" type="curve" smooth="yes"/>
      <point x="478" y="697" type="line"/>
      <point x="478" y="649" type="line"/>
      <point x="498" y="649" type="line" smooth="yes"/>
      <point x="700" y="649"/>
      <point x="803" y="524"/>
      <point x="803" y="376" type="curve" smooth="yes"/>
      <point x="803" y="223"/>
      <point x="700" y="100"/>
      <point x="498" y="100" type="curve" smooth="yes"/>
      <point x="478" y="100" type="line"/>
    </contour>
  </outline>
</glyph>
<glyph name="Tsecyr" format="2">
  <advance width="764"/>
  <unicode hex="0426"/>
  <outline>
    <contour>
      <point x="149" y="745" type="line"/>
      <point x="99" y="745" type="line"/>
      <point x="99" y="0" type="line"/>
      <point x="681" y="0" type="line"/>
      <point x="681" y="-164" type="line"/>
      <point x="731" y="-164" type="line"/>
      <point x="731" y="45" type="line"/>
      <point x="633" y="45" type="line"/>
      <point x="633" y="745" type="line"/>
      <point x="583" y="745" type="line"/>
      <point x="583" y="45" type="line"/>
      <point x="149" y="45" type="line"/>
    </contour>
  </outline>
</glyph>
<glyph name="Checyr" format="2">
  <advance width="691"/>
  <unicode hex="0427"/>
  <outline>
    <contour>
      <point x="542" y="0" type="line"/>
      <point x="592" y="0" type="line"/>
      <point x="592" y="745" type="line"/>
      <point x="542" y="745" type="line"/>
      <point x="542" y="388" type="line"/>
      <point x="485" y="351"/>
      <point x="411" y="331"/>
      <point x="332.938" y="331" type="curve" smooth="yes"/>
      <point x="189" y="331"/>
      <point x="130" y="399"/>
      <point x="130" y="536" type="curve" smooth="yes"/>
      <point x="130" y="745" type="line"/>
      <point x="80" y="745" type="line"/>
      <point x="80" y="525" type="line" smooth="yes"/>
      <point x="80" y="370"/>
      <point x="161" y="286"/>
      <point x="331.686" y="286" type="curve" smooth="yes"/>
      <point x="421" y="286"/>
      <point x="500" y="309"/>
      <point x="562" y="351" type="curve"/>
      <point x="542" y="359" type="line"/>
    </contour>
  </outline>
</glyph>
<glyph name="Shacyr" format="2">
  <advance width="968"/>
  <unicode hex="0428"/>
  <outline>
    <contour>
      <point x="149" y="745" type="line"/>
      <point x="99" y="745" type="line"/>
      <point x="99" y="0" type="line"/>
      <point x="869" y="0" type="line"/>
      <point x="869" y="745" type="line"/>
      <point x="819" y="745" type="line"/>
      <point x="819" y="45" type="line"/>
      <point x="509" y="45" type="line"/>
      <point x="509" y="745" type="line"/>
      <point x="459" y="745" type="line"/>
      <point x="459" y="45" type="line"/>
      <point x="149" y="45" type="line"/>
    </contour>
  </outline>
</glyph>
<glyph name="Shchacyr" format="2">
  <advance width="1000"/>
  <unicode hex="0429"/>
  <outline>
    <contour>
      <point x="149" y="745" type="line"/>
      <point x="99" y="745" type="line"/>
      <point x="99" y="0" type="line"/>
      <point x="917" y="0" type="line"/>
      <point x="917" y="-164" type="line"/>
      <point x="967" y="-164" type="line"/>
      <point x="967" y="45" type="line"/>
      <point x="869" y="45" type="line"/>
      <point x="869" y="745" type="line"/>
      <point x="819" y="745" type="line"/>
      <point x="819" y="45" type="line"/>
      <point x="509" y="45" type="line"/>
      <point x="509" y="745" type="line"/>
      <point x="459" y="745" type="line"/>
      <point x="459" y="45" type="line"/>
      <point x="149" y="45" type="line"/>
    </contour>
  </outline>
</glyph>
<glyph name="Hardcyr" format="2">
  <advance width="719"/>
  <unicode hex="042A"/>
  <anchor x="397" y="0" name="bottom"/>
  <anchor x="397" y="745" name="top"/>
  <outline>
    <contour>
      <point x="223" y="745" type="line"/>
      <point x="22" y="745" type="line"/>
      <point x="22" y="700" type="line"/>
      <point x="173" y="700" type="line"/>
      <point x="173" y="0" type="line"/>
      <point x="417" y="0" type="line" smooth="yes"/>
      <point x="556" y="0"/>
      <point x="653" y="93"/>
      <point x="653" y="228" type="curve" smooth="yes"/>
      <point x="653" y="363"/>
      <point x="557" y="455"/>
      <point x="417" y="455" type="curve" smooth="yes"/>
      <point x="223" y="455" type="line"/>
    </contour>
    <contour>
      <point x="223" y="45" type="line"/>
      <point x="223" y="410" type="line"/>
      <point x="417" y="410" type="line" smooth="yes"/>
      <point x="526" y="410"/>
      <point x="603" y="335"/>
      <point x="603" y="227" type="curve" smooth="yes"/>
      <point x="603" y="119"/>
      <point x="527" y="45"/>
      <point x="417" y="45" type="curve" smooth="yes"/>
    </contour>
  </outline>
</glyph>
<glyph name="Ylongcyr" format="2">
  <advance width="850"/>
  <unicode hex="042B"/>
  <anchor x="724" y="0" name="bottom"/>
  <anchor x="729" y="0" name="ogonek"/>
  <anchor x="724" y="745" name="top"/>
  <outline>
    <contour>
      <point x="751" y="0" type="line"/>
      <point x="751" y="745" type="line"/>
      <point x="701" y="745" type="line"/>
      <point x="701" y="0" type="line"/>
    </contour>
    <contour>
      <point x="149" y="745" type="line"/>
      <point x="99" y="745" type="line"/>
      <point x="99" y="0" type="line"/>
      <point x="343" y="0" type="line" smooth="yes"/>
      <point x="482" y="0"/>
      <point x="579" y="93"/>
      <point x="579" y="228" type="curve" smooth="yes"/>
      <point x="579" y="363"/>
      <point x="483" y="455"/>
      <point x="343" y="455" type="curve" smooth="yes"/>
      <point x="149" y="455" type="line"/>
    </contour>
    <contour>
      <point x="149" y="45" type="line"/>
      <point x="149" y="410" type="line"/>
      <point x="343" y="410" type="line" smooth="yes"/>
      <point x="452" y="410"/>
      <point x="529" y="335"/>
      <point x="529" y="227" type="curve" smooth="yes"/>
      <point x="529" y="119"/>
      <point x="453" y="45"/>
      <point x="343" y="45" type="curve" smooth="yes"/>
    </contour>
  </outline>
</glyph>
<glyph name="Ereversedcyr" format="2">
  <advance width="788"/>
  <unicode hex="042D"/>
  <outline>
    <component base="C" xScale="-1" xOffset="788"/>
    <contour>
      <point x="237" y="353" type="line"/>
      <point x="676" y="353" type="line"/>
      <point x="676" y="401" type="line"/>
      <point x="237" y="401" type="line"/>
    </contour>
  </outline>
</glyph>
<glyph name="Yucyr" format="2">
  <advance width="1129"/>
  <unicode hex="042E"/>
  <outline>
    <contour>
      <point x="149" y="0" type="line"/>
      <point x="149" y="357" type="line"/>
      <point x="357" y="357" type="line"/>
      <point x="357" y="402" type="line"/>
      <point x="149" y="402" type="line"/>
      <point x="149" y="745" type="line"/>
      <point x="99" y="745" type="line"/>
      <point x="99" y="0" type="line"/>
    </contour>
    <contour>
      <point x="695" y="-12" type="curve" smooth="yes"/>
      <point x="891" y="-12"/>
      <point x="1052" y="147"/>
      <point x="1052" y="373" type="curve" smooth="yes"/>
      <point x="1052" y="598"/>
      <point x="890" y="757"/>
      <point x="695" y="757" type="curve" smooth="yes"/>
      <point x="499" y="757"/>
      <point x="337" y="599"/>
      <point x="337" y="373" type="curve" smooth="yes"/>
      <point x="337" y="147"/>
      <point x="498" y="-12"/>
    </contour>
    <contour>
      <point x="695" y="36" type="curve" smooth="yes"/>
      <point x="512" y="36"/>
      <point x="387" y="191"/>
      <point x="387" y="373" type="curve" smooth="yes"/>
      <point x="387" y="552"/>
      <point x="511" y="709"/>
      <point x="695" y="709" type="curve" smooth="yes"/>
      <point x="879" y="709"/>
      <point x="1002" y="552"/>
      <point x="1002" y="373" type="curve" smooth="yes"/>
      <point x="1002" y="191"/>
      <point x="877" y="36"/>
    </contour>
  </outline>
</glyph>
<glyph name="becyr" format="2">
  <advance width="658"/>
  <unicode hex="0431"/>
  <outline>
    <contour>
      <point x="371" y="732" type="line" smooth="yes"/>
      <point x="162" y="717"/>
      <point x="77" y="604"/>
      <point x="77" y="339" type="curve" smooth="yes"/>
      <point x="77" y="307" type="line" smooth="yes"/>
      <point x="77" y="112"/>
      <point x="183" y="-12"/>
      <point x="338" y="-12" type="curve" smooth="yes"/>
      <point x="489" y="-12"/>
      <point x="592" y="108"/>
      <point x="592" y="254" type="curve" smooth="yes"/>
      <point x="592" y="404"/>
      <point x="484" y="521"/>
      <point x="340" y="521" type="curve" smooth="yes"/>
      <point x="233" y="521"/>
      <point x="146" y="457"/>
      <point x="114" y="359" type="curve"/>
      <point x="124" y="365" type="line"/>
      <point x="124" y="584"/>
      <point x="195" y="677"/>
      <point x="373" y="690" type="curve" smooth="yes"/>
      <point x="553" y="703" type="line"/>
      <point x="551" y="745" type="line"/>
    </contour>
    <contour>
      <point x="337.237" y="478" type="curve" smooth="yes"/>
      <point x="461" y="478"/>
      <point x="545" y="379"/>
      <point x="545" y="254.5" type="curve" smooth="yes"/>
      <point x="545" y="130"/>
      <point x="461" y="31"/>
      <point x="339.192" y="31" type="curve" smooth="yes"/>
      <point x="218" y="31"/>
      <point x="131" y="129"/>
      <point x="131" y="256.738" type="curve" smooth="yes"/>
      <point x="131" y="383"/>
      <point x="216" y="478"/>
    </contour>
  </outline>
</glyph>
<glyph name="vecyr" format="2">
  <advance width="502"/>
  <unicode hex="0432"/>
  <outline>
    <contour>
      <point x="454" y="148" type="curve" smooth="yes"/>
      <point x="454" y="61"/>
      <point x="387" y="0"/>
      <point x="294" y="0" type="curve" smooth="yes"/>
      <point x="77" y="0" type="line"/>
      <point x="77" y="526" type="line"/>
      <point x="287" y="526" type="line" smooth="yes"/>
      <point x="378" y="526"/>
      <point x="435" y="473"/>
      <point x="435" y="394" type="curve" smooth="yes"/>
      <point x="435" y="328"/>
      <point x="395" y="280"/>
      <point x="326" y="266" type="curve"/>
      <point x="326" y="287" type="line"/>
      <point x="402" y="280"/>
      <point x="454" y="224"/>
    </contour>
    <contour>
      <point x="122" y="486" type="line"/>
      <point x="122" y="297" type="line"/>
      <point x="280" y="297" type="line" smooth="yes"/>
      <point x="355" y="297"/>
      <point x="390" y="333"/>
      <point x="390" y="393" type="curve" smooth="yes"/>
      <point x="390" y="452"/>
      <point x="355" y="486"/>
      <point x="280" y="486" type="curve" smooth="yes"/>
    </contour>
    <contour>
      <point x="122" y="40" type="line"/>
      <point x="288" y="40" type="line" smooth="yes"/>
      <point x="363" y="40"/>
      <point x="409" y="81"/>
      <point x="409" y="149" type="curve" smooth="yes"/>
      <point x="409" y="216"/>
      <point x="363" y="257"/>
      <point x="288" y="257" type="curve" smooth="yes"/>
      <point x="122" y="257" type="line"/>
    </contour>
  </outline>
</glyph>
<glyph name="decyr" format="2">
  <advance width="586"/>
  <unicode hex="0434"/>
  <outline>
    <contour>
      <point x="28" y="-136" type="line"/>
      <point x="73" y="-136" type="line"/>
      <point x="73" y="0" type="line"/>
      <point x="513" y="0" type="line"/>
      <point x="513" y="-136" type="line"/>
      <point x="558" y="-136" type="line"/>
      <point x="558" y="40" type="line"/>
      <point x="480" y="40" type="line"/>
      <point x="480" y="526" type="line"/>
      <point x="145" y="526" type="line"/>
      <point x="138" y="361" type="line" smooth="yes"/>
      <point x="132" y="221"/>
      <point x="116" y="104"/>
      <point x="84" y="40" type="curve"/>
      <point x="28" y="40" type="line"/>
    </contour>
    <contour>
      <point x="135" y="40" type="line"/>
      <point x="161" y="100"/>
      <point x="178" y="204"/>
      <point x="184" y="359" type="curve" smooth="yes"/>
      <point x="189" y="486" type="line"/>
      <point x="435" y="486" type="line"/>
      <point x="435" y="40" type="line"/>
    </contour>
  </outline>
</glyph>
<glyph name="zhecyr" format="2">
  <advance width="823"/>
  <unicode hex="0436"/>
  <outline>
    <contour>
      <point x="389" y="0" type="line"/>
      <point x="434" y="0" type="line"/>
      <point x="434" y="185" type="line"/>
      <point x="533" y="284" type="line"/>
      <point x="743" y="0" type="line"/>
      <point x="801" y="0" type="line"/>
      <point x="567" y="313" type="line"/>
      <point x="779" y="526" type="line"/>
      <point x="713" y="526" type="line"/>
      <point x="434" y="246" type="line"/>
      <point x="434" y="526" type="line"/>
      <point x="389" y="526" type="line"/>
      <point x="389" y="246" type="line"/>
      <point x="110" y="526" type="line"/>
      <point x="44" y="526" type="line"/>
      <point x="256" y="313" type="line"/>
      <point x="22" y="0" type="line"/>
      <point x="80" y="0" type="line"/>
      <point x="290" y="284" type="line"/>
      <point x="389" y="185" type="line"/>
    </contour>
  </outline>
</glyph>
<glyph name="zecyr" format="2">
  <advance width="506"/>
  <unicode hex="0437"/>
  <outline>
    <contour>
      <point x="180" y="247" type="line"/>
      <point x="274" y="247" type="line" smooth="yes"/>
      <point x="347" y="247"/>
      <point x="393" y="208"/>
      <point x="393" y="146" type="curve" smooth="yes"/>
      <point x="393" y="76"/>
      <point x="333" y="31"/>
      <point x="251" y="31" type="curve" smooth="yes"/>
      <point x="176" y="31"/>
      <point x="121" y="68"/>
      <point x="87" y="145" type="curve"/>
      <point x="47" y="127" type="line"/>
      <point x="82" y="36"/>
      <point x="156" y="-12"/>
      <point x="249" y="-12" type="curve" smooth="yes"/>
      <point x="359" y="-12"/>
      <point x="440" y="54"/>
      <point x="440" y="143" type="curve" smooth="yes"/>
      <point x="440" y="206"/>
      <point x="399" y="261"/>
      <point x="339" y="277" type="curve"/>
      <point x="340" y="263" type="line"/>
      <point x="395" y="285"/>
      <point x="427" y="326"/>
      <point x="427" y="387" type="curve" smooth="yes"/>
      <point x="427" y="476"/>
      <point x="357" y="538"/>
      <point x="254" y="538" type="curve" smooth="yes"/>
      <point x="168" y="538"/>
      <point x="95" y="494"/>
      <point x="65" y="415" type="curve"/>
      <point x="108" y="398" type="line"/>
      <point x="139" y="464"/>
      <point x="186" y="495"/>
      <point x="253" y="495" type="curve" smooth="yes"/>
      <point x="330" y="495"/>
      <point x="381" y="454"/>
      <point x="381" y="387" type="curve" smooth="yes"/>
      <point x="381" y="326"/>
      <point x="340" y="291"/>
      <point x="274" y="291" type="curve" smooth="yes"/>
      <point x="180" y="291" type="line"/>
    </contour>
  </outline>
</glyph>
<glyph name="icyr" format="2">
  <advance width="581"/>
  <unicode hex="0438"/>
  <anchor x="285" y="526" name="top"/>
  <outline>
    <contour>
      <point x="493" y="526" type="line"/>
      <point x="493" y="0" type="line"/>
      <point x="448" y="0" type="line"/>
      <point x="448" y="461" type="line"/>
      <point x="455" y="461" type="line"/>
      <point x="129" y="0" type="line"/>
      <point x="88" y="0" type="line"/>
      <point x="88" y="526" type="line"/>
      <point x="133" y="526" type="line"/>
      <point x="133" y="65" type="line"/>
      <point x="126" y="65" type="line"/>
      <point x="452" y="526" type="line"/>
    </contour>
  </outline>
</glyph>
<glyph name="kacyr" format="2">
  <advance width="540"/>
  <unicode hex="043A"/>
  <outline>
    <contour>
      <point x="133" y="0" type="line"/>
      <point x="133" y="182" type="line"/>
      <point x="126" y="163" type="line"/>
      <point x="261" y="300" type="line"/>
      <point x="230" y="299" type="line"/>
      <point x="458" y="0" type="line"/>
      <point x="518" y="0" type="line"/>
      <point x="280" y="313" type="line"/>
      <point x="498" y="526" type="line"/>
      <point x="430" y="526" type="line"/>
      <point x="103" y="205" type="line"/>
      <point x="133" y="205" type="line"/>
      <point x="133" y="526" type="line"/>
      <point x="88" y="526" type="line"/>
      <point x="88" y="0" type="line"/>
    </contour>
  </outline>
</glyph>
<glyph name="elcyr" format="2">
  <advance width="572"/>
  <unicode hex="043B"/>
  <outline>
    <contour>
      <point x="189" y="298" type="curve" smooth="yes"/>
      <point x="196" y="486" type="line"/>
      <point x="439" y="486" type="line"/>
      <point x="439" y="0" type="line"/>
      <point x="484" y="0" type="line"/>
      <point x="484" y="526" type="line"/>
      <point x="152" y="526" type="line"/>
      <point x="144" y="304" type="line" smooth="yes"/>
      <point x="136" y="78"/>
      <point x="115" y="36"/>
      <point x="22" y="38" type="curve"/>
      <point x="22" y="-4" type="line"/>
      <point x="145" y="-9"/>
      <point x="180" y="50"/>
    </contour>
  </outline>
</glyph>
<glyph name="emcyr" format="2">
  <advance width="637"/>
  <unicode hex="043C"/>
  <outline>
    <contour>
      <point x="133" y="0" type="line"/>
      <point x="133" y="460" type="line"/>
      <point x="122" y="453" type="line"/>
      <point x="317" y="169" type="line"/>
      <point x="319" y="169" type="line"/>
      <point x="514" y="453" type="line"/>
      <point x="504" y="460" type="line"/>
      <point x="504" y="0" type="line"/>
      <point x="549" y="0" type="line"/>
      <point x="549" y="526" type="line"/>
      <point x="511" y="526" type="line"/>
      <point x="309" y="233" type="line"/>
      <point x="326" y="233" type="line"/>
      <point x="126" y="526" type="line"/>
      <point x="88" y="526" type="line"/>
      <point x="88" y="0" type="line"/>
    </contour>
  </outline>
</glyph>
<glyph name="encyr" format="2">
  <advance width="581"/>
  <unicode hex="043D"/>
  <outline>
    <contour>
      <point x="493" y="526" type="line"/>
      <point x="493" y="0" type="line"/>
      <point x="448" y="0" type="line"/>
      <point x="448" y="252" type="line"/>
      <point x="133" y="252" type="line"/>
      <point x="133" y="0" type="line"/>
      <point x="88" y="0" type="line"/>
      <point x="88" y="526" type="line"/>
      <point x="133" y="526" type="line"/>
      <point x="133" y="292" type="line"/>
      <point x="448" y="292" type="line"/>
      <point x="448" y="526" type="line"/>
    </contour>
  </outline>
</glyph>
<glyph name="pecyr" format="2">
  <advance width="577"/>
  <unicode hex="043F"/>
  <outline>
    <contour>
      <point x="133" y="0" type="line"/>
      <point x="133" y="486" type="line"/>
      <point x="444" y="486" type="line"/>
      <point x="444" y="0" type="line"/>
      <point x="489" y="0" type="line"/>
      <point x="489" y="526" type="line"/>
      <point x="88" y="526" type="line"/>
      <point x="88" y="0" type="line"/>
    </contour>
  </outline>
</glyph>
<glyph name="tecyr" format="2">
  <advance width="389"/>
  <unicode hex="0442"/>
  <outline>
    <contour>
      <point x="217" y="0" type="line"/>
      <point x="217" y="486" type="line"/>
      <point x="367" y="486" type="line"/>
      <point x="367" y="526" type="line"/>
      <point x="22" y="526" type="line"/>
      <point x="22" y="486" type="line"/>
      <point x="172" y="486" type="line"/>
      <point x="172" y="0" type="line"/>
    </contour>
  </outline>
</glyph>
<glyph name="efcyr" format="2">
  <advance width="767"/>
  <unicode hex="0444"/>
  <outline>
    <contour>
      <point x="361" y="-12" type="curve"/>
      <point x="361" y="-200" type="line"/>
      <point x="406" y="-200" type="line"/>
      <point x="406" y="-12" type="line"/>
      <point x="578" y="-10"/>
      <point x="701" y="97"/>
      <point x="701" y="263" type="curve" smooth="yes"/>
      <point x="701" y="429"/>
      <point x="578" y="536"/>
      <point x="406" y="538" type="curve"/>
      <point x="406" y="757" type="line"/>
      <point x="361" y="757" type="line"/>
      <point x="361" y="538" type="line"/>
      <point x="189" y="536"/>
      <point x="66" y="429"/>
      <point x="66" y="263" type="curve" smooth="yes"/>
      <point x="66" y="97"/>
      <point x="189" y="-10"/>
    </contour>
    <contour>
      <point x="406" y="31" type="curve"/>
      <point x="406" y="495" type="line"/>
      <point x="556" y="494"/>
      <point x="653" y="401"/>
      <point x="653" y="263" type="curve" smooth="yes"/>
      <point x="653" y="125"/>
      <point x="556" y="32"/>
    </contour>
    <contour>
      <point x="361" y="31" type="line"/>
      <point x="211" y="32"/>
      <point x="114" y="125"/>
      <point x="114" y="263" type="curve" smooth="yes"/>
      <point x="114" y="401"/>
      <point x="211" y="494"/>
      <point x="361" y="495" type="curve"/>
    </contour>
  </outline>
</glyph>
<glyph name="tsecyr" format="2">
  <advance width="593"/>
  <unicode hex="0446"/>
  <outline>
    <contour>
      <point x="133" y="526" type="line"/>
      <point x="88" y="526" type="line"/>
      <point x="88" y="0" type="line"/>
      <point x="520" y="0" type="line"/>
      <point x="520" y="-136" type="line"/>
      <point x="565" y="-136" type="line"/>
      <point x="565" y="40" type="line"/>
      <point x="487" y="40" type="line"/>
      <point x="487" y="526" type="line"/>
      <point x="442" y="526" type="line"/>
      <point x="442" y="40" type="line"/>
      <point x="133" y="40" type="line"/>
    </contour>
  </outline>
</glyph>
<glyph name="checyr" format="2">
  <advance width="540"/>
  <unicode hex="0447"/>
  <anchor x="277" y="0" name="bottom"/>
  <anchor x="452" y="0" name="ogonek"/>
  <anchor x="277" y="526" name="top"/>
  <anchor x="542" y="526" name="topright"/>
  <outline>
    <contour>
      <point x="251.319" y="203" type="curve" smooth="yes"/>
      <point x="317" y="203"/>
      <point x="372" y="220"/>
      <point x="422" y="253" type="curve"/>
      <point x="407" y="274" type="line"/>
      <point x="407" y="0" type="line"/>
      <point x="452" y="0" type="line"/>
      <point x="452" y="526" type="line"/>
      <point x="407" y="526" type="line"/>
      <point x="407" y="289" type="line"/>
      <point x="371" y="262"/>
      <point x="314" y="246"/>
      <point x="256.821" y="246" type="curve" smooth="yes"/>
      <point x="162" y="246"/>
      <point x="115" y="290"/>
      <point x="115" y="381" type="curve" smooth="yes"/>
      <point x="115" y="526" type="line"/>
      <point x="70" y="526" type="line"/>
      <point x="70" y="378" type="line" smooth="yes"/>
      <point x="70" y="261"/>
      <point x="130" y="203"/>
    </contour>
  </outline>
</glyph>
<glyph name="shacyr" format="2">
  <advance width="793"/>
  <unicode hex="0448"/>
  <outline>
    <contour>
      <point x="419" y="526" type="line"/>
      <point x="374" y="526" type="line"/>
      <point x="374" y="40" type="line"/>
      <point x="133" y="40" type="line"/>
      <point x="133" y="526" type="line"/>
      <point x="88" y="526" type="line"/>
      <point x="88" y="0" type="line"/>
      <point x="705" y="0" type="line"/>
      <point x="705" y="526" type="line"/>
      <point x="660" y="526" type="line"/>
      <point x="660" y="40" type="line"/>
      <point x="419" y="40" type="line"/>
    </contour>
  </outline>
</glyph>
<glyph name="shchacyr" format="2">
  <advance width="811"/>
  <unicode hex="0449"/>
  <outline>
    <contour>
      <point x="419" y="526" type="line"/>
      <point x="374" y="526" type="line"/>
      <point x="374" y="40" type="line"/>
      <point x="133" y="40" type="line"/>
      <point x="133" y="526" type="line"/>
      <point x="88" y="526" type="line"/>
      <point x="88" y="0" type="line"/>
      <point x="738" y="0" type="line"/>
      <point x="738" y="-136" type="line"/>
      <point x="783" y="-136" type="line"/>
      <point x="783" y="40" type="line"/>
      <point x="705" y="40" type="line"/>
      <point x="705" y="526" type="line"/>
      <point x="660" y="526" type="line"/>
      <point x="660" y="40" type="line"/>
      <point x="419" y="40" type="line"/>
    </contour>
  </outline>
</glyph>
<glyph name="hardcyr" format="2">
  <advance width="559"/>
  <unicode hex="044A"/>
  <outline>
    <contour>
      <point x="142" y="0" type="line"/>
      <point x="142" y="486" type="line"/>
      <point x="22" y="486" type="line"/>
      <point x="22" y="526" type="line"/>
      <point x="187" y="526" type="line"/>
      <point x="187" y="320" type="line"/>
      <point x="340" y="320" type="line" smooth="yes"/>
      <point x="443" y="320"/>
      <point x="511" y="260"/>
      <point x="511" y="160" type="curve" smooth="yes"/>
      <point x="511" y="60"/>
      <point x="443" y="0"/>
      <point x="340" y="0" type="curve" smooth="yes"/>
    </contour>
    <contour>
      <point x="187" y="40" type="line"/>
      <point x="339" y="40" type="line" smooth="yes"/>
      <point x="417" y="40"/>
      <point x="466" y="84"/>
      <point x="466" y="160" type="curve" smooth="yes"/>
      <point x="466" y="236"/>
      <point x="417" y="280"/>
      <point x="339" y="280" type="curve" smooth="yes"/>
      <point x="187" y="280" type="line"/>
    </contour>
  </outline>
</glyph>
<glyph name="ylongcyr" format="2">
  <advance width="664"/>
  <unicode hex="044B"/>
  <outline>
    <contour>
      <point x="542" y="526" type="line"/>
      <point x="587" y="526" type="line"/>
      <point x="587" y="0" type="line"/>
      <point x="542" y="0" type="line"/>
    </contour>
    <contour>
      <point x="446" y="160" type="curve" smooth="yes"/>
      <point x="446" y="60"/>
      <point x="378" y="0"/>
      <point x="275" y="0" type="curve" smooth="yes"/>
      <point x="77" y="0" type="line"/>
      <point x="77" y="526" type="line"/>
      <point x="122" y="526" type="line"/>
      <point x="122" y="320" type="line"/>
      <point x="275" y="320" type="line" smooth="yes"/>
      <point x="378" y="320"/>
      <point x="446" y="260"/>
    </contour>
    <contour>
      <point x="122" y="40" type="line"/>
      <point x="274" y="40" type="line" smooth="yes"/>
      <point x="352" y="40"/>
      <point x="401" y="84"/>
      <point x="401" y="160" type="curve" smooth="yes"/>
      <point x="401" y="236"/>
      <point x="352" y="280"/>
      <point x="274" y="280" type="curve" smooth="yes"/>
      <point x="122" y="280" type="line"/>
    </contour>
  </outline>
</glyph>
<glyph name="ereversedcyr" format="2">
  <advance width="607"/>
  <unicode hex="044D"/>
  <anchor x="331" y="0" name="bottom"/>
  <anchor x="331" y="263" name="center"/>
  <anchor x="381" y="0" name="ogonek"/>
  <anchor x="331" y="526" name="top"/>
  <anchor x="642" y="526" name="topright"/>
  <outline>
    <contour>
      <point x="279" y="-12" type="curve" smooth="yes"/>
      <point x="426" y="-12"/>
      <point x="541" y="106"/>
      <point x="541" y="263" type="curve" smooth="yes"/>
      <point x="541" y="420"/>
      <point x="426" y="538"/>
      <point x="279" y="538" type="curve" smooth="yes"/>
      <point x="182" y="538"/>
      <point x="102" y="485"/>
      <point x="66" y="414" type="curve"/>
      <point x="104" y="393" type="line"/>
      <point x="141" y="459"/>
      <point x="203" y="496"/>
      <point x="279" y="496" type="curve" smooth="yes"/>
      <point x="401" y="496"/>
      <point x="496" y="403"/>
      <point x="496" y="263" type="curve" smooth="yes"/>
      <point x="496" y="123"/>
      <point x="401" y="30"/>
      <point x="279" y="30" type="curve" smooth="yes"/>
      <point x="203" y="30"/>
      <point x="141" y="67"/>
      <point x="104" y="133" type="curve"/>
      <point x="66" y="113" type="line"/>
      <point x="102" y="42"/>
      <point x="182" y="-12"/>
    </contour>
    <contour>
      <point x="518" y="242" type="line"/>
      <point x="518" y="285" type="line"/>
      <point x="201" y="285" type="line"/>
      <point x="201" y="242" type="line"/>
    </contour>
  </outline>
</glyph>
<glyph name="yacyr" format="2">
  <advance width="527"/>
  <unicode hex="044F"/>
  <outline>
    <contour>
      <point x="68" y="375" type="curve" smooth="yes"/>
      <point x="68" y="466"/>
      <point x="133" y="526"/>
      <point x="231" y="526" type="curve" smooth="yes"/>
      <point x="439" y="526" type="line"/>
      <point x="439" y="0" type="line"/>
      <point x="394" y="0" type="line"/>
      <point x="394" y="223" type="line"/>
      <point x="231" y="223" type="line" smooth="yes"/>
      <point x="133" y="223"/>
      <point x="68" y="283"/>
    </contour>
    <contour>
      <point x="394" y="486" type="line"/>
      <point x="236" y="486" type="line" smooth="yes"/>
      <point x="161" y="486"/>
      <point x="113" y="444"/>
      <point x="113" y="375" type="curve" smooth="yes"/>
      <point x="113" y="306"/>
      <point x="161" y="263"/>
      <point x="236" y="263" type="curve" smooth="yes"/>
      <point x="394" y="263" type="line"/>
    </contour>
    <contour>
      <point x="188" y="238" type="line"/>
      <point x="237" y="238" type="line"/>
      <point x="99" y="0" type="line"/>
      <point x="47" y="0" type="line"/>
    </contour>
  </outline>
</glyph>
